<svg id="Layer_1" data-name="Layer 1" xmlns="http://www.w3.org/2000/svg" viewBox="0 0 16 16"><defs><style>.cls-1{fill:#f9d1e3;}.cls-2{fill:#f9d2e3;}.cls-3{fill:#fff;}</style></defs><path class="cls-1" d="M12,6a4.45,4.45,0,0,1-1.88,6A4.35,4.35,0,0,1,4.26,10a4.46,4.46,0,0,1,1.89-6A4.35,4.35,0,0,1,12,6Z"/><path class="cls-2" d="M1.27,12.53c-.59,0-1-.14-1.1-.43s0-.93.68-1.64A15.9,15.9,0,0,1,3.52,8.24l.14-.1,0,.18a3.07,3.07,0,0,0,0,.34v.06l-.05,0c-1.22,1-1.53,1.56-1.41,1.79s.26.18.57.18a16,16,0,0,0,5.74-2A22.88,22.88,0,0,0,12.5,6.18c1.36-1.11,1.29-1.54,1.24-1.64s-.26-.19-.57-.19a6.78,6.78,0,0,0-1.84.37l-.06,0,0,0a1.84,1.84,0,0,0-.2-.19l-.12-.12.16,0a12,12,0,0,1,3.67-.87c.59,0,1,.14,1.1.43.6,1.17-3,4-6.88,6-3.09,1.62-6.1,2.66-7.68,2.66Z"/><path class="cls-3" d="M14.73,3.57c.53,0,.88.12,1,.37.5,1-2.56,3.6-6.84,5.84-3.17,1.66-6.12,2.65-7.63,2.65-.53,0-.88-.12-1-.37-.35-.68,1-2.15,3.32-3.73a2.27,2.27,0,0,0,0,.35C2.57,9.52,2,10.23,2.19,10.59c.08.17.31.25.66.25A16.21,16.21,0,0,0,8.64,8.78c3.21-1.68,5.54-3.6,5.19-4.29-.09-.16-.32-.24-.66-.24a6.59,6.59,0,0,0-1.87.38l-.21-.2a12.07,12.07,0,0,1,3.64-.86m0-.2A12,12,0,0,0,11,4.24l-.32.12.25.22.2.19.09.09.12,0a6.52,6.52,0,0,1,1.81-.36c.3,0,.44.06.48.13s-.11.6-1.21,1.51a23.17,23.17,0,0,1-3.9,2.5,16.33,16.33,0,0,1-5.69,2c-.39,0-.47-.1-.48-.13s.13-.66,1.38-1.66l.1-.07,0-.12c0-.11,0-.22-.05-.34l0-.35-.29.2C2.26,9-.49,11,.08,12.15c.16.32.56.48,1.19.48C2.86,12.63,5.9,11.58,9,10a29.3,29.3,0,0,0,5.25-3.42,7.66,7.66,0,0,0,1.4-1.47c.34-.5.43-.91.27-1.22s-.56-.48-1.19-.48Z"/></svg>