<svg id="Layer_1" data-name="Layer 1" xmlns="http://www.w3.org/2000/svg" width="396.87mm" height="859.37mm" viewBox="0 0 1125 2436"><defs><style>.cls-1{fill:#fff;}</style></defs><path class="cls-1" d="M304.74,969.53h89V1003H338v32h55.75v33.5H338V1149H304.74Z"/><path class="cls-1" d="M431.49,969.53h34.25V1149H431.49Z"/><path class="cls-1" d="M514,969.53h32.75l77,118v-118H658V1149H625l-76.75-117.75V1149H514Z"/><path class="cls-1" d="M709.24,969.53h43.25c31.5,0,53.75,3.75,73.25,22.75,16.25,15.75,26,40.75,26,69.25,0,30.75-11.5,56.25-30.75,71.25-20.5,16-41.75,16.25-68,16.25H709.24Zm34.25,33.5v112.5h18c18.75,0,32-2.5,42.5-13.75,8.25-9,13.25-23.5,13.25-41,0-37.5-20.75-57.75-59.75-57.75Z"/><path class="cls-1" d="M486.93,1269.16c-32.25,0-58.75,25-58.75,62,0,36.5,27.5,60.75,59.25,60.75,32.5,0,58.5-26.75,58.5-61C545.93,1297.91,521.18,1269.16,486.93,1269.16Z"/><path class="cls-1" d="M-139.41,1194.25V2546.1H1212.43V1194.25Zm533.09,136.16a93.31,93.31,0,0,1,93.5-94c49.5,0,93.25,40,93.25,94.75,0,52.75-41.25,93.5-92.75,93.5C434.43,1424.66,393.68,1382.66,393.68,1330.41ZM584.57,2392.27l-89.51-89.5,10.61-10.61,78.9,78.9,78.9-78.9,10.61,10.61Zm80.11-967.36c-26.25,0-44.5-12.75-57.75-39l28.75-17.25c8.25,15.5,17.75,23.5,29.75,23.5,11.5,0,20.75-7.5,20.75-16.75,0-6.5-4.25-14-11.5-20-37.25-31.25-59.25-48.25-59.25-73.75s22.25-45.25,49.25-45.25c22.75,0,37.75,12.25,52,28.75l-25.5,22.5c-8.5-12-17.25-18.5-27-18.5-9,0-15.25,5.25-15.25,12.5,0,7,5.25,11.5,10.5,16,33.5,29.5,60.25,43.5,60.25,76.25C719.68,1403.91,697.18,1424.91,664.68,1424.91Z"/></svg>
