<svg id="Layer_1" data-name="Layer 1" xmlns="http://www.w3.org/2000/svg" viewBox="0 0 305 228"><defs><style>.cls-1,.cls-2{fill:#fff;}.cls-1{stroke:#fff;stroke-miterlimit:10;}</style></defs><path class="cls-1" d="M70.85,99.94l.4,2.33-.13.11a87.4,87.4,0,0,0,8.24,24.68c1,2,2.15,4,3.31,5.86C105.19,126.24,133.94,114.24,163,99c27.73-14.53,52.81-30.34,71.42-45-.89-2.16-1.85-4.3-2.93-6.42a86.39,86.39,0,0,0-15.72-21.73h0l-1-1a84.78,84.78,0,0,0-98.51-14.54C84.14,27.12,67,61.5,70.25,95.74,70.42,97.22,70.62,98.61,70.85,99.94Z"/><path class="cls-1" d="M171.9,125.6a686.75,686.75,0,0,1-67.77,31.11,84.74,84.74,0,0,0,90.5,7.62c30.38-15.86,47.39-47.57,46.3-80A679.88,679.88,0,0,1,171.9,125.6Z"/><path class="cls-2" d="M303.82,7.54c-6.53-12.9-42.65-8.17-90.92,9.56,1.38,1.23,2.72,2.5,4,3.83,26.8-8.45,45.74-10,49.49-2.61,6.78,13.4-38.66,51-101.49,84.05S45.64,151.3,38.86,137.9c-3.6-7.11,7.52-21.05,28.14-37.51-.4-2.3-.68-4.62-.9-6.93-44.92,31-71.68,59.76-64.92,73.11,9.75,19.25,85.39-.75,169-44.67S313.56,26.78,303.82,7.54Z"/><path class="cls-2" d="M13.65,196.59H30.77v5.81H25.13v25.16h-6V202.4h-5.5Z"/><path class="cls-2" d="M34.8,196.59h6v11.68H51.12V196.59h6v31h-6V214H40.78v13.58h-6Z"/><path class="cls-2" d="M64.55,196.59H70.8q5.13,0,7.31.91a7.51,7.51,0,0,1,3.5,3,9.37,9.37,0,0,1,1.32,5,8.54,8.54,0,0,1-1.46,5.1,8.82,8.82,0,0,1-4.41,3.11l7.34,13.77H78l-7-13.12h-.54v13.12h-5.9Zm5.9,12.1H72.3a7.15,7.15,0,0,0,3.87-.74,2.76,2.76,0,0,0,1.06-2.45,3,3,0,0,0-.53-1.76,2.9,2.9,0,0,0-1.4-1.08,10.64,10.64,0,0,0-3.24-.33H70.45Z"/><path class="cls-2" d="M88.75,196.59H94.6v31H88.75Z"/><path class="cls-2" d="M101.32,196.59h15.37v5.74h-9.52V208h9.52v5.66h-9.52v13.94h-5.85Z"/><path class="cls-2" d="M118.88,196.59H136v5.81h-5.64v25.16h-6V202.4h-5.5Z"/><path class="cls-2" d="M152.09,196.59h6.25a20.69,20.69,0,0,1,7.32.93,7.47,7.47,0,0,1,3.54,3,9.44,9.44,0,0,1,1.3,5,8.43,8.43,0,0,1-1.7,5.39,8.78,8.78,0,0,1-4.6,3,26.7,26.7,0,0,1-6.21.48v13.12h-5.9Zm5.9,12.1h1.87a10.14,10.14,0,0,0,3.07-.31,2.7,2.7,0,0,0,1.36-1,3.06,3.06,0,0,0,.5-1.76A2.81,2.81,0,0,0,163.4,203a7.92,7.92,0,0,0-3.75-.62H158Z"/><path class="cls-2" d="M176.27,196.59h5.89v25.35h8.59v5.62H176.27Z"/><path class="cls-2" d="M204.69,196.59h6l11.91,31h-6.12L214,221.18H201.39l-2.52,6.38h-6.13Zm3,8.21-4.16,10.63h8.29Z"/><path class="cls-2" d="M227.16,196.59h5.66L246.07,217V196.59H252v31H246.3l-13.24-20.32v20.32h-5.9Z"/><path class="cls-2" d="M259.07,196.59H276v5.76H264.92V208H276v5.66H264.92v8.15H276v5.79H259.07Z"/><path class="cls-2" d="M278.42,196.59h17.12v5.81H289.9v25.16h-6V202.4h-5.5Z"/></svg>
