<svg id="Layer_1" data-name="Layer 1" xmlns="http://www.w3.org/2000/svg" viewBox="0 0 1920 57"><defs><style>.cls-1{fill:none;stroke:#d5e59e;stroke-miterlimit:10;stroke-width:9px;}</style></defs><path class="cls-1" d="M0,4.5c38.4,0,38.4,48,76.8,48s38.4-48,76.8-48,38.39,48,76.79,48,38.4-48,76.8-48,38.4,48,76.8,48,38.4-48,76.8-48,38.4,48,76.8,48,38.39-48,76.79-48,38.4,48,76.8,48,38.4-48,76.8-48,38.4,48,76.8,48,38.4-48,76.8-48,38.4,48,76.8,48,38.4-48,76.8-48,38.4,48,76.79,48,38.4-48,76.8-48,38.4,48,76.81,48,38.4-48,76.79-48,38.41,48,76.81,48,38.4-48,76.8-48,38.4,48,76.8,48,38.4-48,76.8-48,38.4,48,76.81,48,38.4-48,76.8-48,38.41,48,76.81,48"/></svg>
