<svg xmlns="http://www.w3.org/2000/svg" width="61.06" height="61.1" viewBox="0 0 61.06 61.1">
    <g id="Group_2" data-name="Group 2" transform="translate(-12 -12)">
        <path id="Path_692" data-name="Path 692" d="M42.28,26.54A16.15,16.15,0,1,0,58.43,42.68h0A16.15,16.15,0,0,0,42.28,26.54ZM32.6,42.68A9.69,9.69,0,1,0,42.28,33h0a9.68,9.68,0,0,0-9.68,9.68Z" fill-rule="evenodd" />
        <path id="Path_693" data-name="Path 693" d="M59.77,21.24a3.66,3.66,0,1,0,3.65,3.65,3.66,3.66,0,0,0-3.65-3.65Z" />
        <path id="Path_694" data-name="Path 694" d="M23.08,12A11.1,11.1,0,0,0,12,23.08h0V62A11.1,11.1,0,0,0,23.1,73.1H62A11.1,11.1,0,0,0,73.06,62h0V23.08A11.1,11.1,0,0,0,62,12ZM62,17.53H23.08a5.55,5.55,0,0,0-5.55,5.55h0V62a5.56,5.56,0,0,0,5.55,5.55H62A5.56,5.56,0,0,0,67.51,62h0V23.08A5.56,5.56,0,0,0,62,17.53Z" fill-rule="evenodd" />
    </g>
</svg>
