<svg id="Layer_1" data-name="Layer 1" xmlns="http://www.w3.org/2000/svg" width="677.33mm" height="381mm" viewBox="0 0 1920 1080"><defs><style>.cls-1{fill:#fff;}</style></defs><path class="cls-1" d="M870.37,474.42h-11.2v90h14.4c15,0,25.6-2,34-11,6.6-7.21,10.6-18.8,10.6-32.8C918.17,490.62,901.57,474.42,870.37,474.42Z"/><path class="cls-1" d="M1186,519.82c0,42.2-33,74.8-74.2,74.8-42.6,0-75.2-33.6-75.2-75.4a74.66,74.66,0,0,1,74.1-75.2h.7C1151,444,1186,476,1186,519.82Zm-121.8,0c0,29.2,22,48.6,47.4,48.6,26,0,46.8-21.4,46.8-48.8,0-26.4-19.8-49.4-47.2-49.4-25.83,0-47,20-47,49.6Z"/><path class="cls-1" d="M1230.17,549.82c6.6,12.39,14.2,18.8,23.8,18.8,9.2,0,16.6-6,16.6-13.41,0-5.19-3.4-11.19-9.2-16-29.8-25-47.4-38.6-47.4-59s17.8-36.2,39.4-36.2c18.2,0,30.2,9.8,41.6,23l-20.4,18c-6.8-9.6-13.8-14.8-21.6-14.8-7.2,0-12.2,4.2-12.2,10,0,5.6,4.2,9.2,8.4,12.8,26.8,23.6,48.2,34.8,48.2,61,0,24-18,40.79-44,40.79-21,0-35.6-10.19-46.2-31.19Z"/><path class="cls-1" d="M920.55,983.55,960,1023V0H0V1080H960v-46.39l-44.75-44.76ZM579.38,474.42h-44.6V500h44.6v26.8h-44.6v64.39h-26.6V447.62h71.2ZM637,591.21H609.6V447.62H637Zm153.79,0h-26.4L703,497v94.19H675.6V447.62h26.19l61.6,94.4v-94.4h27.4Zm41,0V447.62h34.6c25.2,0,43,3,58.6,18.2,13,12.6,20.8,32.6,20.8,55.4,0,24.6-9.22,45-24.62,57h0c-16.4,12.8-33.4,13-54.4,13Z"/><polygon class="cls-1" points="999.45 983.32 960 1022.77 960 1033.38 1004.75 988.62 999.45 983.32"/></svg>
