<svg id="Layer_1" data-name="Layer 1" xmlns="http://www.w3.org/2000/svg" width="1920" height="1080" viewBox="0 0 1920 1080"><defs><style>.cls-1{fill:#fff;}</style></defs><path class="cls-1" d="M510.13,455h27.4v49.4l39-49.4h33l-50.4,64,55.2,79.6h-32.4l-44.4-63.8v63.8h-27.4Z"/><path class="cls-1" d="M774.13,527.23c0,42.2-33,74.8-74.2,74.8-42.6,0-75.19-33.6-75.19-75.4a74.64,74.64,0,0,1,74.79-75.2C739.13,451.43,774.13,483.43,774.13,527.23Zm-121.8,0c0,29.2,22,48.6,47.4,48.6,26,0,46.8-21.4,46.8-48.8,0-26.4-19.8-49.4-47.2-49.4C673.53,477.63,652.33,497.63,652.33,527.23Z"/><path class="cls-1" d="M807.73,455h26.2l61.6,94.4V455h27.4v143.6h-26.4l-61.4-94.2v94.2h-27.4Z"/><polygon class="cls-1" points="1080.53 542.23 1118.53 542.23 1099.53 493.03 1080.53 542.23"/><path class="cls-1" d="M939,0V1080h981V0Zm89.93,481.83h-26.4v116.8h-27.4V481.83h-25.6V455h79.4Zm111.2,116.8-11.2-29.6h-58.6l-11.8,29.6h-28.4l55.4-143.6h27.6l55.4,143.6Zm129.8,0-44.4-63.8v63.8h-27.4V455h27.4v49.4l39-49.4h33l-50.4,64,55.2,79.6Zm125-116.8h-26.4v116.8h-27.4V481.83h-25.6V455h79.4Z"/></svg>
