<svg id="Layer_1" data-name="Layer 1" xmlns="http://www.w3.org/2000/svg" viewBox="0 0 1440 863.36"><defs><style>.cls-1{fill:#fff;}.cls-2{fill:#d4e49d;}</style></defs><polygon class="cls-1" points="1422 830.34 1414.92 839.36 1422 839.36 1422 830.34"/><polygon class="cls-1" points="387.48 863.36 382 830.36 429 809.36 462.9 863.36 387.48 863.36"/><polygon class="cls-1" points="376.36 863.36 371 832.36 356 844.36 358.93 863.36 376.36 863.36"/><polygon class="cls-1" points="349.75 863.36 348 849.36 332.14 863.36 349.75 863.36"/><path class="cls-1" d="M442,798.36l42.12,65h27.12l114.76-74-25-44-83,59s-29-15-48-12S453,796.36,442,798.36Z"/><polygon class="cls-1" points="537.8 863.36 635 811.36 700.79 863.36 537.8 863.36"/><polygon class="cls-1" points="477 732.36 505 781.36 589 734.36 556 677.36 477 732.36"/><path class="cls-1" d="M438,699.36s-9,47-5,68,23-31,23-31,1.59-33-7.7-37S438,699.36,438,699.36Z"/><polygon class="cls-1" points="312.5 863.36 364 817.36 365 779.36 318 771.36 304.06 856.36 307.7 863.36 312.5 863.36"/><polygon class="cls-1" points="288.64 863.36 302 769.36 255 761.36 240.95 863.36 288.64 863.36"/><polygon class="cls-1" points="271.48 639.55 313 645.36 297 754.36 258 749.36 271.48 639.55"/><path class="cls-1" d="M325,642.36l9.53,1.42L320,752.36s1,2-5,4-9.51,0-9.51,0Z"/><polygon class="cls-1" points="343 644.36 390 652.36 374 767.36 330.04 761.36 343 644.36"/><path class="cls-1" d="M432,675.1c-18,30.74-9.53,115.12-9.53,115.12S388,812.36,382,805.17s21-148.81,21-148.81"/><path class="cls-1" d="M504,589.36l46,74-30,26-5-6,1-9-15-32-7,5,11,25v11l7,11-32,23s-4.61,5-10.81,0l-21.19-42,27-60S492,593.36,504,589.36Z"/><path class="cls-1" d="M362,516.36l-13,110,38,5s14-90,27-103S362,516.36,362,516.36Z"/><polygon class="cls-1" points="344.98 514.24 353.08 516.34 341 613.36 330.04 613.36 344.98 514.24"/><polygon class="cls-1" points="436 604.36 412 594.36 404 632.36 420 638.52 440.26 654.47 468 606.36 494 570.36 449 494.95 425.03 548.21 415.72 580.83 435.07 589.36 452 555.36 461 559.36 436 604.36"/><polygon class="cls-1" points="358 502.36 421 510.36 430.86 494.95 410 460.36 370 433.36 358 502.36"/><polygon class="cls-1" points="274.33 613.36 310 617.36 344 421.36 311 397.36 274.33 613.36"/><polygon class="cls-1" points="349 295.36 322 350.36 366 379.36 407 318.36 349 295.36"/><polygon class="cls-1" points="419 324.36 384 381.36 404 411.99 449 439.86 482 365.36 419 324.36"/><polygon class="cls-1" points="457 269.36 427 312.36 486 348.36 509 302.36 457 269.36"/><polygon class="cls-1" points="405 186.36 355 283.36 415 305.36 473 223.36 405 186.36"/><polygon class="cls-1" points="520 175.36 555 200.36 517 289.36 465 258.36 520 175.36"/><polygon class="cls-1" points="430 139.36 410.44 175.36 481 213.36 500 180.36 430 139.36"/><polygon class="cls-1" points="434 131.36 508 171.36 569.24 75.27 506 8.36 498 15.36 481 45.36 510 63.6 516 67.36 506 79.36 500 77.86 505 69.36 476 55.36 434 131.36"/><polygon class="cls-1" points="524 166.36 565 194.36 608 112.36 580 83.36 524 166.36"/><polygon class="cls-1" points="576 199.36 610 223.36 662 149.36 619 118.37 576 199.36"/><polygon class="cls-1" points="510 0.36 577 66 608 20.78 579.94 0.36 510 0.36"/><polygon class="cls-1" points="587 72.36 615 30.36 641 47.36 645 58.36 619 98.6 587 72.36"/><polygon class="cls-1" points="595.82 0.36 614 11 624.66 0.36 595.82 0.36"/><polygon class="cls-1" points="634.71 0.36 624.66 15.59 659 41 685.59 0.36 634.71 0.36"/><polygon class="cls-1" points="625 108.36 666 134.36 702 92.44 662 64.48 625 108.36"/><polygon class="cls-1" points="702 0.36 672 47 712 77 751 22 711.5 0.36 702 0.36"/><polygon class="cls-1" points="763 25.36 720 86.28 766 113.36 814 51.36 763 25.36"/><polygon class="cls-1" points="738 0 894.62 69 955.55 0.36 738 0"/><polygon class="cls-1" points="822 54.36 777.63 118.37 822 151.1 885 85.36 822 54.36"/><polygon class="cls-1" points="764.34 134.36 735 182.36 767 202.3 770 209.36 809 168.36 764.34 134.36"/><path class="cls-1" d="M215.62,863.36l40.37-221Z"/><polygon class="cls-1" points="93.13 863.36 127.92 617.36 255.99 642.36 215.62 863.36 93.13 863.36"/><path class="cls-1" d="M136,580.64l122,19,27.5-206.87s-66.39-64-110.94-62.68Z"/><path class="cls-1" d="M335.06.36,203.47,245.5,241,274a16.85,16.85,0,0,1,18.17,0c9.83,6,22.65,15,22.65,15s1.18,2-2.82,9,33,22,33,22L482.47.36Z"/><path class="cls-1" d="M139,311.36h31l-21,134-72-9S90,390.36,139,311.36Z"/><path class="cls-1" d="M68.43,445.36s-9.43,23-9.43,41l81,13,5-41-19.09-3.24Z"/><polygon class="cls-1" points="128.37 442.78 149 445.36 145 458.36 125.91 455.12 128.37 442.78"/><path class="cls-1" d="M57,496.36s0,37.69,2,39.35,71,10.65,71,10.65l7.45-37.51Z"/><polygon class="cls-1" points="121.31 496.36 119.55 506.07 137.45 508.85 140 499.36 121.31 496.36"/><polygon class="cls-1" points="57 547.16 57 572.46 55 580.36 125 594.36 128 555.36 57 547.16"/><polygon class="cls-1" points="115.07 544.38 113.42 553.68 128 555.36 130 546.36 115.07 544.38"/><polygon class="cls-1" points="49.44 592.7 121.71 610.29 116.34 647.53 40 632.36 49.44 592.7"/><polygon class="cls-1" points="34.98 642.36 109 660.36 106.18 696.96 24 682.36 34.98 642.36"/><polygon class="cls-1" points="101 708.36 19 693.36 12 715.36 55 863.36 83.67 863.36 101 708.36"/><polygon class="cls-1" points="41.93 863.36 33 827.36 15.72 832.5 0 857.46 0 863.36 41.93 863.36"/><polygon class="cls-1" points="0 781.75 18 776.36 30.89 815.31 9 821.36 0 839.36 0 781.75"/><polygon class="cls-1" points="0 771.36 15.44 767.36 4 715.36 20.97 654.06 0 647.53 0 771.36"/><polygon class="cls-1" points="0 636.55 25 644.36 41 591.36 0 574.03 0 636.55"/><polygon class="cls-1" points="0 564.16 5 567.36 8 557.36 0 551.74 0 564.16"/><polygon class="cls-1" points="11 569.36 15 553.36 0 543.7 0 497.49 49 518.36 50 539.36 49 575.36 46 583.36 11 569.36"/><path class="cls-1" d="M0,490.15l51,22.21s-1-27,3-42l-54-23Z"/><polygon class="cls-1" points="0 375.77 20 324.36 0 314.15 0 375.77"/><polygon class="cls-1" points="0 392.03 27.1 328.75 130 313.89 130 318.44 93.33 373.31 68.24 426.5 54.19 460.58 0 438.77 0 392.03"/><polygon class="cls-1" points="136 244.51 116 294.36 169.99 289.82 136 244.51"/><polygon class="cls-1" points="1.95 308.36 18.95 315.36 22 315.36 22 311.86 14.95 300.36 6.95 303.36 1.95 308.36"/><polygon class="cls-1" points="38.5 255.36 21.5 295.36 30 307.86 30 311.36 103.5 302.36 109.39 283.36 38.5 255.36"/><polygon class="cls-1" points="46 234.36 42 246.36 113 273.36 117 262.36 46 234.36"/><polygon class="cls-1" points="70 171.36 50 225.36 118.03 253.86 126 235.36 100 203.36 83 161.36 70 171.36"/><polygon class="cls-1" points="0 302.14 3 298.36 13 293.36 63 165.36 75 148.36 60 121.36 56.23 121.36 0 185.67 0 302.14"/><polygon class="cls-1" points="0 170.75 45 115.36 37.5 103.3 11 84.36 0 78.97 0 170.75"/><polygon class="cls-1" points="126 196.36 158.68 234.36 202 166.36 164 138.47 126 196.36"/><polygon class="cls-1" points="77 115.36 104 165.36 118.69 186.42 155 131.36 107.36 93.36 95 104.36 77 115.36"/><path class="cls-1" d="M0,37.65,73,99s39-35,76-87L133.62.36H0Z"/><polygon class="cls-1" points="158 15.36 112 85.36 168 126.36 214 55.36 158 15.36"/><polygon class="cls-1" points="177 132.36 210 155.36 251 80.36 214 55.36 200.46 76.26 209 81.36 177 132.36"/><polygon class="cls-1" points="149 0.36 153.98 3 158.9 0.36 149 0.36"/><polygon class="cls-1" points="167.25 0.36 163 8.52 209 40 222.14 21.79 229 29 217 46 238 60 275.65 0.36 167.25 0.36"/><polygon class="cls-1" points="285.73 0.36 247 64 262 77 169.99 235.49 193 252 324.97 0.36 285.73 0.36"/><polyline class="cls-1" points="742.29 863.36 698 818.36 732 779.36 801 840.36 783.62 863.36 810.94 863.36 820 856.36 831.78 863.36"/><polygon class="cls-1" points="584 657.36 621 717.36 648 702.36 608 646.36 584 657.36"/><path class="cls-1" d="M534,572.59l40,68.77,24-11-32-57.77s-8-12.17-16-8.2S534,572.59,534,572.59Z"/><polygon class="cls-1" points="463 473.36 483 502.36 494 494.95 477 467.36 463 473.36"/><polygon class="cls-1" points="494 481.69 508 505.36 515.82 502.36 502 478.36 494 481.69"/><path class="cls-1" d="M570.55,209.36,473,446.66s-11.19,17,31.91,16.84,23.78,41.86,23.78,41.86.31,21,29.31-8,136-194,136-194Z"/><polygon class="cls-1" points="724.64 196.36 678 267.36 704 287.36 757 217.36 724.64 196.36"/><polygon class="cls-1" points="703.21 113.36 683 143.36 699 154.36 720 124.73 703.21 113.36"/><polygon class="cls-1" points="730.67 133.86 711.5 163.05 725 173.36 745 143.36 730.67 133.86"/><polygon class="cls-1" points="673 155.36 620.54 232.36 662 265.04 716 191.36 673 155.36"/><polygon class="cls-1" points="993.69 0.36 930.42 81.36 1219 216.36 1329.09 0.36 993.69 0.36"/><polygon class="cls-1" points="1440 664.1 1402 682.36 1407 746.36 1440 749 1440 664.1"/><polygon class="cls-1" points="932.77 863.36 993.3 821.36 1023.74 863.36 932.77 863.36"/><polygon class="cls-1" points="851.39 863.36 828.9 842.36 947 763.36 987 807.36 913.91 863.36 851.39 863.36"/><polygon class="cls-1" points="799 815.36 821 834.36 905.31 779.36 887 755.36 799 815.36"/><polygon class="cls-1" points="772 794.86 790 810.36 880 749.36 844 717.36 772 794.86"/><polygon class="cls-1" points="764.89 786.52 775 776.36 722 746.36 764.89 786.52"/><path class="cls-1" d="M747,643.36l-67,67,16,13s9,4,22-4,64-49,64-49Z"/><polygon class="cls-1" points="715 733.36 761 697.36 775.97 724.36 797.47 745.36 779.94 766.44 715 733.36"/><polygon class="cls-1" points="789 675.36 768 690.36 782 712.42 805 740.36 835 712.36 789 675.36"/><polygon class="cls-1" points="756.24 637.66 788 660.36 838 625.36 801.5 605.9 756.24 637.66"/><polygon class="cls-1" points="845 630.36 797.12 667.43 842 704.36 875 691.36 845 630.36"/><polygon class="cls-1" points="851 713.36 885.8 740.36 930 719.36 907.95 672.06 896 678.36 901 689.36 883.81 697.36 892.41 704.36 885.47 707.86 878 699.36 851 713.36"/><polygon class="cls-1" points="895 749.36 912 769.36 945.01 749.36 932.77 724.36 895 749.36"/><polygon class="cls-1" points="964 760.36 978.25 780.89 1001.24 760.36 1027 732.36 1015 719.36 1003 736.36 964 760.36"/><polygon class="cls-1" points="940.38 717.36 957 751.36 995.5 729.29 1009 715.36 983 686.36 964 706.21 940.38 717.36"/><path class="cls-1" d="M915.9,672.06s8.1,7.3,20.1,37.3l42.25-26.05L951,646.36Z"/><path class="cls-1" d="M1019,714.36l13,10,41-45-6.59-12S1034,683.36,1019,714.36Z"/><path class="cls-1" d="M990,679.36l24.48,28.5s5.52-23.5,44.52-45.5l-9-25S1030,645.36,990,679.36Z"/><polygon class="cls-1" points="954 641.36 984.04 675.36 1015 652.36 982 620.36 954 641.36"/><polygon class="cls-1" points="875 607.22 911 664.36 945 640.36 915.9 583.08 875 607.22"/><polygon class="cls-1" points="920 575.47 951.63 633.13 978.25 612.85 947.08 563.56 920 575.47"/><polygon class="cls-1" points="954 559.92 966 580.36 984.5 609.21 1021 641.36 1046 627.4 1015 566.54 954 559.92"/><polygon class="cls-1" points="996 784.53 996 794.79 1007.7 789.66 1043.76 746.86 1090.07 695.86 1117.19 677.86 1150.5 658.36 1170.5 649.36 1179.38 647.86 1182.5 636.36 1173.1 637.36 1152.5 644.36 1130.5 653.36 1107.27 667.36 1083.45 686.36 1061.5 711.36 996 784.53"/><path class="cls-1" d="M1197.74,637.36l-3.74,14,95.37,68,9.63-9-73-57S1204.48,636.36,1197.74,637.36Z"/><polygon class="cls-1" points="1169.95 863.36 1214 832.36 1237 809.36 1273.16 863.36 1169.95 863.36"/><polygon class="cls-1" points="1287.05 863.36 1249 802.36 1280 781.36 1305 806.36 1440 860.61 1440 863.36 1287.05 863.36"/><polygon class="cls-1" points="1440 852.63 1327 801.36 1333 785.36 1440 826.34 1440 852.63"/><polygon class="cls-1" points="1440 770.36 1414.92 766.03 1417 791.36 1440 799.12 1440 770.36"/><polygon class="cls-1" points="1307 730.36 1321 716.36 1343 738.36 1382 761.36 1395.01 766.03 1396.56 785.36 1360 772.36 1307 730.36"/><polygon class="cls-1" points="1270 672.36 1293 656.36 1316 695.36 1307 701.85 1270 672.36"/><polygon class="cls-1" points="1303 652.36 1325 691.36 1354.42 679.1 1331 643.36 1303 652.36"/><polygon class="cls-1" points="1338 639.36 1361 672.36 1381.3 664.1 1357 628.36 1338 639.36"/><polygon class="cls-1" points="1369 623.36 1393 662.36 1430.3 643.36 1440 632.47 1440 548.21 1424 551.36 1427.46 600.82 1369 623.36"/><path class="cls-1" d="M1376,558.36l5.3,25.12,9.7,18.88,20-8s7-4,8-17a37.47,37.47,0,0,0-5-22Z"/><polygon class="cls-1" points="1354.42 599.14 1361 617.36 1385.01 608.25 1376 590.11 1354.42 599.14"/><polygon class="cls-1" points="1338 565.79 1369 559.88 1374 582.36 1351 594.36 1338 565.79"/><polygon class="cls-1" points="1318 614.36 1328.71 631.11 1354.42 620.68 1348.53 602.36 1318 614.36"/><polygon class="cls-1" points="1311.35 616.74 1324 634.36 1299 645.35 1288.77 628.36 1311.35 616.74"/><polygon class="cls-1" points="1299 577.12 1314 608.36 1347 596.36 1332 566.36 1299 577.12"/><polygon class="cls-1" points="1260.97 590.11 1284 621.36 1309 611.36 1293 578.86 1260.97 590.11"/><polygon class="cls-1" points="1227 624.36 1260.97 600.11 1280.78 628.36 1293 650.36 1264 669.36 1231 640.36 1208.86 628.36 1227 624.36"/><polygon class="cls-1" points="1190 552.36 1199 577.12 1236.65 564.74 1226.34 542.17 1190 552.36"/><polygon class="cls-1" points="1250.93 588.71 1293 572.74 1281 520.36 1260.97 529.44 1233 538.36 1245.47 567.75 1245.47 567.75 1242 570.36 1199 583.36 1205.39 616.74 1202.19 621.36 1221 619.36 1253.68 594.36 1250.93 588.71 1250.93 588.71"/><polygon class="cls-1" points="1286 518.36 1310 509.36 1328.71 559.88 1299 570.86 1286 518.36"/><polygon class="cls-1" points="1414 475.36 1319 506.36 1338 557.45 1440 540.11 1440 527.93 1425 472.36 1414 475.36"/><path class="cls-1" d="M1315,475.36l10,21,86-28V433.6S1386,429.36,1315,475.36Z"/><path class="cls-1" d="M1339,405.36l12,38s49.2-21,57.1-19l-9.1-37Z"/><polygon class="cls-1" points="1440 489.55 1419.11 377.06 1433 341.36 1440 343.9 1440 489.55"/><polygon class="cls-1" points="1440 323.1 1436.31 330.06 1440 332.53 1440 323.1"/><path class="cls-1" d="M1440,303.59l-12,22.77L1398.92,315,1413,285.36s5-11,13-10a40.71,40.71,0,0,1,14,4.5Z"/><polygon class="cls-1" points="1358 304.36 1345 332.36 1410 365.36 1423 337.36 1358 304.36"/><polygon class="cls-1" points="1341 340.36 1336 351.36 1327 358.36 1328.71 363.41 1337 395.36 1404 374.36 1341 340.36"/><path class="cls-1" d="M1440,212.24l-30-13.88-44.5,94.83,24.5,14.17,20-34s2-10,16-10,14,6.75,14,6.75Z"/><polygon class="cls-1" points="1440 203.46 1414 190.36 1417 180.36 1440 190.13 1440 203.46"/><polygon class="cls-1" points="1440 182.66 1421 173.36 1440 131.94 1440 182.66"/><polygon class="cls-1" points="1440 10.03 1427 1.9 1423 2.36 1398.27 56.36 1434.36 75.27 1418.1 108.36 1435 118.36 1440 111.46 1440 10.03"/><polygon class="cls-1" points="1393 63.36 1380 90.36 1411 106.36 1426 78.36 1393 63.36"/><polygon class="cls-1" points="1377 97.36 1365.5 123.16 1394 139.36 1408 113.36 1377 97.36"/><polygon class="cls-1" points="1360.23 131.94 1297 263.36 1344 287.36 1427 122.19 1416 115.36 1398.27 151.12 1360.23 131.94"/><polygon class="cls-1" points="1433 124.36 1436 125.36 1416 171.36 1412 169.36 1433 124.36"/><polygon class="cls-1" points="1408 175.18 1402.75 186.88 1405.38 189.16 1412 178.43 1408 175.18"/><polygon class="cls-1" points="1398.92 191.91 1404 193.71 1358 296.36 1351 293.36 1398.92 191.91"/><polygon class="cls-1" points="1342 0.36 1316.67 58.14 1374 86.36 1414.85 0.36 1342 0.36"/><polygon class="cls-1" points="1311.14 66.36 1370 94.36 1290 260.36 1230 233.36 1311.14 66.36"/><polygon class="cls-1" points="1315 284.74 1351 300.83 1329.09 344.23 1324 352.36 1300 314.97 1315 284.74"/><polygon class="cls-1" points="1230 244.14 1236 279.36 1245.47 279.36 1293.59 307.36 1307 281.36 1230 244.14"/><polygon class="cls-1" points="1256 347.36 1271 369.36 1273 376.36 1317 358.36 1295 321.36 1256 347.36"/><polygon class="cls-1" points="1276.36 387.36 1305 466.36 1343 449.36 1320.9 365.36 1276.36 387.36"/><polygon class="cls-1" points="1205 378.36 1216 399.36 1225 427.36 1273.11 402.86 1264.66 376.36 1249.05 352.36 1205 378.36"/><polygon class="cls-1" points="1236 291.36 1245.15 291.36 1286.5 314.32 1252.3 340.36 1242.22 334.86 1236 291.36"/><polygon class="cls-1" points="1220 242.36 1187.28 291.36 1232 324.36 1220 242.36"/><polygon class="cls-1" points="1192 221.36 1216 236.36 1178.83 284.74 1157 270.36 1192 221.36"/><polygon class="cls-1" points="1149.57 201.36 1185 218.36 1149.57 266.53 1119.34 244.14 1149.57 201.36"/><polygon class="cls-1" points="1119.34 188.18 1142.74 198.36 1114 239.36 1092 224.36 1119.34 188.18"/><polygon class="cls-1" points="1050 278.36 1073 296.36 1082.93 283.36 1138.84 330.06 1167 295.36 1085.53 233.95 1050 278.36"/><polygon class="cls-1" points="1019 356.36 1061.14 376.36 1094 391.36 1134 347.36 1124 328.36 1098 312.36 1092 321.36 1043.26 283.36 1035 289.36 1060 310.36 1019 356.36"/><polygon class="cls-1" points="1019 306.36 996 332.1 1006 341.1 1030 317.1 1030 306.36 1019 306.36"/><polygon class="cls-1" points="1177 300.36 1146.72 341.36 1199 370.53 1240.85 348.86 1177 300.36"/><polygon class="cls-1" points="1104 395.36 1119.34 408.36 1185 376.36 1142.74 352.36 1104 395.36"/><path class="cls-1" d="M1126.65,415.86S1148,428.18,1157,462.27l62-27.91s-11.43-34.73-25.22-52.36Z"/><polygon class="cls-1" points="1230 437.42 1248 499.36 1293 481.86 1273.11 410.67 1230 437.42"/><polygon class="cls-1" points="1162 476.36 1180.16 520.36 1240.85 503.84 1221.74 443.36 1162 476.36"/><path class="cls-1" d="M1187.28,542.17s76.72-21.8,112.72-38.8l-3-16.25"/><path class="cls-1" d="M1055,629.36l12,28s62.58-36,104.79-37l-8.79-52S1149,586.36,1055,629.36Z"/><polygon class="cls-1" points="1022 565.36 1053 622.36 1164 561.36 1164 555.56 1022 565.36"/><path class="cls-1" d="M1068,478.36l14,20,11,17.56,12,29.44,67.82-15.76S1155,444.36,1118,420.36Z"/><polygon class="cls-1" points="1036 450.36 1064 475.36 1111 418.36 1081 396.36 1036 450.36"/><polygon class="cls-1" points="1018 513.36 1063 485.36 1083.65 520.36 1099.55 548.21 1081 552.36 1038 553.36 1018 513.36"/><polygon class="cls-1" points="998 473.36 1000 477.39 972 500.36 1016.04 555.56 1027.71 553.36 1009 511.36 1056 478.36 993 415.36 951 476.36 967 493.36 969 495.36 998 473.36"/><polygon class="cls-1" points="996 409.57 1032 444.36 1076.5 392.47 1030 368.52 996 409.57"/><polygon class="cls-1" points="940.98 422.13 958 447.36 1023 366.36 1003.5 355.24 940.98 422.13"/><polygon class="cls-1" points="947.02 482.86 1006.58 555.36 981.63 555.36 959.9 553.36 947.02 553.36 928 558.36 911.2 563.56 896 543.36 913.82 531.36 947.02 482.86"/><polygon class="cls-1" points="848 575.36 867.54 600.64 912 572.36 890.5 549.22 848 575.36"/><path class="cls-1" d="M837,534.36l8,31s55-25,65-43.5l-4-11.5Z"/><path class="cls-1" d="M895,456.36l17,54s27.58-35.82,39.29-54.91L935,429.36S917,453.36,895,456.36Z"/><polygon class="cls-1" points="1107 187.36 1085 220.36 949 146.36 971 120.36 1107 187.36"/><polygon class="cls-1" points="1016 195.36 1010.61 201.36 1014 241.36 1038 268.36 1076.5 227.26 1016 195.36"/><polygon class="cls-1" points="928.91 170.36 944 152.36 1007 184.36 1005 199.36 942 224.36 928.91 170.36"/><polygon class="cls-1" points="977 215.36 990 249.36 1009 242.36 1004 203.36 977 215.36"/><polygon class="cls-1" points="942.59 231.86 951 265.36 983 254.36 969.96 220.36 942.59 231.86"/><polygon class="cls-1" points="921 181.36 894 214.36 914.22 231.86 935 227.36 921 181.36"/><path class="cls-1" d="M945,273.36l8,26,9.8,16.24,11.59,14.46,59.61-54.7-21-26S965,270.36,945,273.36Z"/><path class="cls-1" d="M904,277.36l32,78,31-19s-26.47-34-29.24-59Z"/><polygon class="cls-1" points="903 118.36 938 146.36 960.5 118.36 920 98.36 903 118.36"/><polygon class="cls-1" points="923 69.36 918.93 70.36 912.93 78.36 923 81.58 923 69.36"/><path class="cls-1" d="M882,116.36l-3,14s-1,6,4,3,9-10,9-10S892,115.36,882,116.36Z"/><path class="cls-1" d="M852,137.36l-16,17s-4,2,0,6.5,9.2,0,9.2,0l9.8-6.5s2.35-1,2.68-8l.32-7-1.53-2S855,134.36,852,137.36Z"/><polygon class="cls-1" points="896.91 125.24 930.42 152.36 887 208.36 851 178.36 896.91 125.24"/><path class="cls-1" d="M790,203.36l16-17s3.19-5,5.6,0,7.4,14,7.4,14,4.84,5-3.58,8-13.42,3-13.42,3l-9.92-3S787,207.36,790,203.36Z"/><path class="cls-1" d="M777.63,222.43l2.37,7.93s1.26,5,4.63,0a46.51,46.51,0,0,1,4.42-6s2-4-1-5-8-5-9-1S777.63,222.43,777.63,222.43Z"/><path class="cls-1" d="M764,236.36l-9,13s-2,7.54,4.5,5.27,7.5-5.27,7.5-5.27Z"/><polygon class="cls-1" points="846.11 186.82 896 230.36 907.91 268.36 843 257.36 825 257.36 814 224.6 846.11 186.82"/><path class="cls-1" d="M894,279.19l36.42,79.63L872,380.36s-17.14-62.47-29.07-73.73S830,267.36,830,267.36Z"/><path class="cls-1" d="M814,249.36s13.21,57,21.61,67,28,64,28,64L795.79,401.3S794,303.36,785,260.36Z"/><path class="cls-1" d="M895,449.76c29,.39,103-96.4,103-96.4l-23.81-12L935.5,364.47,874,389.36Z"/><path class="cls-1" d="M612.76,633.13,669,701.36l11-10.58s33.25-27.2,37.12-36.31S738,635.36,738,635.36l-33.87-60.65Z"/><polygon class="cls-1" points="712 569.36 745.96 630.36 836.06 574.71 828.39 531.36 814 534.36 804.84 514.24 778 526.36 712 569.36"/><polygon class="cls-1" points="811.79 512.71 816 524.36 827 520.36 823 507.36 811.79 512.71"/><path class="cls-1" d="M869,393.36l18,59-65,25s-28.56-49-22.28-64Z"/><polygon class="cls-1" points="579.39 572.3 606.65 623.72 699 567.36 680 531.36 579.39 572.3"/><polygon class="cls-1" points="688 526.36 708 561.36 772 521.36 819.39 501.47 803 462.36 739 501.36 688 526.36"/><polygon class="cls-1" points="635 450.36 675.38 520.72 582.85 556.31 574 538.36 635 450.36"/><polygon class="cls-1" points="688 378.64 642 442.36 683 517.36 729 496.36 715.7 450.36 688 378.64"/><path class="cls-1" d="M733,410.36l-2-7-21.08,5L694,367.73l77.18-102.37s24.82,69,13.82,143a58.3,58.3,0,0,0,13.82,47.25L736,491.36l-8-39-15-36Z"/><polygon class="cls-1" points="827 502.11 830 512.71 839.49 510.36 837 500.19 827 502.11"/><polygon class="cls-1" points="830 496.02 838 517.36 885.03 503.34 877 480.36 830 496.02"/><circle class="cls-1" cx="881" cy="492.36" r="12"/><polygon class="cls-1" points="664 784.36 695.81 740.36 662 712.36 623.51 731.9 643 768.36 664 784.36"/><polygon class="cls-1" points="698 746.36 729 774.36 692.66 810.36 668 788.36 698 746.36"/><polygon class="cls-1" points="1093 712.36 1105 732.36 1146.39 709.36 1133 688.36 1093 712.36"/><polygon class="cls-1" points="1137.31 688.36 1148 705.36 1186 683.36 1175.9 667.36 1137.31 688.36"/><polygon class="cls-1" points="1133 693.36 1142.7 688.36 1149.23 701.85 1142.41 705.36 1133 693.36"/><polygon class="cls-1" points="1172.78 686.36 1182 681.67 1201 712.36 1191.23 715.57 1172.78 686.36"/><polygon class="cls-1" points="1051 782.36 1059 794.79 1097 770.36 1095.43 767.46 1090 757.36 1051 782.36"/><polygon class="cls-1" points="1141.11 772.76 1151 766.36 1149.23 761.41 1192.93 732.36 1220 771.36 1176 803.36 1172.78 800.58 1161.65 807.67 1172 823.36 1245.43 777.86 1201 707.86 1127 755.36 1141.11 772.76"/><polygon class="cls-1" points="1093 756.02 1098.43 765.61 1129 747.36 1135.6 757.36 1143.83 750.86 1131 730.36 1093 756.02"/><path class="cls-1" d="M1116.86,776.07,1150,827.36l-49,32s-28.29-2-36.15-50Z"/><circle class="cls-1" cx="1208" cy="751.36" r="6"/><path class="cls-1" d="M1392,760.36l-44-22-19.29-19,15.79-12.81s43.85-29.22,45.68-4.7S1392,760.36,1392,760.36Z"/><polygon class="cls-1" points="1115.68 863.36 1146.39 846.72 1154.25 859.36 1149.23 863.36 1115.68 863.36"/><polygon class="cls-1" points="1150 844.97 1158 857.36 1186.89 839.1 1182 826.95 1150 844.97"/><polygon class="cls-1" points="1174 564.36 1186 559.64 1198.29 612.86 1186 616.68 1174 564.36"/><path class="cls-1" d="M1080,660.36l7.31,12.25S1137,636.36,1177,632.36v-5.61S1117,637.36,1080,660.36Z"/><circle class="cls-1" cx="997.5" cy="342.86" r="6.5"/><path d="M614.79,444.74l1.17-1.59,8.48.45-5.74-4.2,1.22-1.67,8.73,6.4-1.17,1.6-8.47-.46,5.74,4.2-1.23,1.66Z"/><path d="M628.92,432.53a4.22,4.22,0,0,1,2.65.82,4.16,4.16,0,0,1,.9,5.91,4,4,0,0,1-1.84,1.42l.31,1.4-1.19.27-.29-1.41a4.1,4.1,0,0,1-2.84-.8,4.19,4.19,0,0,1-1-5.84,4.59,4.59,0,0,1,2.06-1.54l-.28-1.35,1.19-.25Zm-.8,2.11a2.31,2.31,0,0,0-.9.75,2.17,2.17,0,0,0,.58,3.11,3.06,3.06,0,0,0,1.25.52Zm2.12,4.15a2.36,2.36,0,0,0,.71-.66,2.17,2.17,0,0,0-.56-3.14,2.61,2.61,0,0,0-1.06-.47Z"/><path d="M631,429.13a1.86,1.86,0,0,1,0-2.08,1.89,1.89,0,0,1,.69-.59l1,1.52a1.38,1.38,0,0,0-.48.37c-.34.47-.07,1.22.85,1.95.35.28.75.57,1.1.83l2.61,1.91-1.18,1.62-6.46-4.73,1-1.4Z"/><path d="M633.81,425.24a1.88,1.88,0,0,1,0-2.09,2,2,0,0,1,.69-.58l1,1.52a1.27,1.27,0,0,0-.48.37c-.34.46-.07,1.22.85,2l1.1.82,2.61,1.92-1.18,1.61L632,426l1-1.4Z"/><path d="M644.66,419.62a4.51,4.51,0,1,1-1.55-1.81c.15.1.21.17.36.28l-3.81,5.2a2.14,2.14,0,0,0,2.82-.71,2.58,2.58,0,0,0,.54-2.07Zm-3.65-.85a2.33,2.33,0,0,0-2.58,3.52Z"/><path d="M640.58,409.49l1.26-1.71,7.81,2.35-4.57-6.78,1.25-1.7,6.43,9.54-1.17,1.59Z"/><path d="M656.7,399a4.2,4.2,0,1,1-5.91.95A4.23,4.23,0,0,1,656.7,399Zm-3.77,5.15a2.14,2.14,0,0,0,3.15-.37,2.32,2.32,0,1,0-3.15.37Z"/><path d="M651.83,393.67l1.18-1.62,9,6.56-1.18,1.62Z"/><path d="M665.85,391.87a3.33,3.33,0,0,1-.61,2.62,4,4,0,0,1-5.65.59c-2-1.48-2.41-3.86-1.18-5.53a3.45,3.45,0,0,1,2.37-1.4l-3.2-2.34,1.18-1.62,9,6.56-1.18,1.62Zm-5.07,1.57a2.18,2.18,0,1,0-.64-3.14A2.2,2.2,0,0,0,660.78,393.44Z"/><path d="M672.67,382a4,4,0,0,1,2,3,4.37,4.37,0,0,1-1,2.87c-1.3,1.78-2.82,2.4-4.49,1.85l1.31-1.78a2.28,2.28,0,0,0,1.65-1.09,2.49,2.49,0,0,0,.58-1.69c-.08-.66-.51-1-1.12-1.43a3.16,3.16,0,0,1-.63,2.54,3.89,3.89,0,0,1-5.59.68,3.83,3.83,0,0,1-1.1-5.44,3.53,3.53,0,0,1,2.37-1.41l-.7-.51,1.18-1.62Zm-6.08,3.3a2.15,2.15,0,0,0,3.12-.44,2.1,2.1,0,0,0-.54-3.06,2.18,2.18,0,1,0-2.58,3.5Z"/><path d="M677.6,375.81a3.36,3.36,0,0,1-.6,2.62,4,4,0,0,1-5.65.59,3.92,3.92,0,0,1-1.18-5.54,3.48,3.48,0,0,1,2.36-1.39l-.71-.51L673,370l6.46,4.73-1.19,1.61Zm-5.07,1.57a2.19,2.19,0,1,0-.64-3.14A2.2,2.2,0,0,0,672.53,377.38Z"/><path d="M683.48,367.78a3.3,3.3,0,0,1-.61,2.61,4,4,0,0,1-5.65.6,3.92,3.92,0,0,1-1.18-5.54,3.5,3.5,0,0,1,2.37-1.39l-3.2-2.34,1.18-1.62,9,6.56-1.18,1.61Zm-5.07,1.57a2.19,2.19,0,1,0-.64-3.14A2.2,2.2,0,0,0,678.41,369.35Z"/><path d="M689.72,358.05a4.29,4.29,0,1,1-7.57-.94,4.11,4.11,0,0,1,6-.87l.35.28-3.81,5.21a2.15,2.15,0,0,0,2.82-.72,2.58,2.58,0,0,0,.55-2.07Zm-3.66-.85a2.33,2.33,0,0,0-2.57,3.52Z"/><path d="M761.17,195.79h2.63l6.16,9.44v-9.44h2.74v14.36h-2.64l-6.15-9.42v9.42h-2.74Z"/><path d="M785.32,201.35a5.61,5.61,0,0,1-4.42,9.08,5.34,5.34,0,0,1-3-.86L776.67,211l-1.22-1.06,1.29-1.42a5.35,5.35,0,0,1-1.37-3.66,5.57,5.57,0,0,1,5.51-5.6,6,6,0,0,1,3.26,1l1.22-1.36,1.2,1.08Zm-2.88.8a3,3,0,0,0-1.52-.38,2.87,2.87,0,0,0-2.86,3.06,3.73,3.73,0,0,0,.42,1.74Zm-2.78,5.52a3.07,3.07,0,0,0,1.26.24,2.87,2.87,0,0,0,2.92-3.06,3.62,3.62,0,0,0-.32-1.5Z"/><path d="M790.55,200.87a2.42,2.42,0,0,1,3.41-1.34l-.82,2.28a1.88,1.88,0,0,0-.79-.22c-.76,0-1.35.88-1.42,2.44,0,.58,0,1.24,0,1.82v4.3h-2.66V199.53h2.3Z"/><path d="M797,200.87a2.5,2.5,0,0,1,2.25-1.62,2.58,2.58,0,0,1,1.16.28l-.82,2.28a1.92,1.92,0,0,0-.79-.22c-.75,0-1.35.88-1.42,2.44,0,.58,0,1.24,0,1.82v4.3h-2.67V199.53H797Z"/><path d="M811.48,208.09a6,6,0,1,1,.72-3.08c0,.24,0,.36,0,.6h-8.57a2.85,2.85,0,0,0,3,2.46,3.45,3.45,0,0,0,2.65-1Zm-2-4.58a3.1,3.1,0,0,0-5.79,0Z"/><path d="M817,200.69a4.55,4.55,0,0,1,3.34-1.44c2.74,0,5,2.28,5,5.6a5.3,5.3,0,0,1-5.08,5.58A4.41,4.41,0,0,1,817,209v5h-2.67v-14.5H817Zm-.13,4.12a2.92,2.92,0,1,0,5.81,0,2.91,2.91,0,1,0-5.81,0Z"/><path d="M838.16,204.83a5.58,5.58,0,1,1-5.65-5.58A5.53,5.53,0,0,1,838.16,204.83Zm-8.47,0a2.84,2.84,0,0,0,2.87,3.08,3.08,3.08,0,1,0-2.87-3.08Z"/><path d="M842,200.87a2.48,2.48,0,0,1,2.25-1.62,2.58,2.58,0,0,1,1.16.28l-.82,2.28a1.92,1.92,0,0,0-.79-.22c-.76,0-1.36.88-1.42,2.44,0,.58,0,1.24,0,1.82v4.3h-2.66V199.53H842Z"/><path d="M847,195.61h2.66v3.92h1.58v2.28h-1.58v8.34H847v-8.34h-1.36v-2.28H847Z"/><path d="M491.79,527.53l1,1.7-3.36,1.94,1.73,3,3.36-1.94,1,1.71-8.93,5.15-1-1.71,3.91-2.25-1.74-3-3.91,2.25-1-1.7Z"/><path d="M489.48,542.34A1.08,1.08,0,0,1,488,542a1.12,1.12,0,0,1,.4-1.51,1.1,1.1,0,0,1,1.1,1.9Z"/><path d="M498,555.41a5.8,5.8,0,0,1-4-2.89,5.22,5.22,0,0,1,2-7.44,5.32,5.32,0,0,1,7.42,2,6,6,0,0,1,.45,4.93l-1.83-.53a4.24,4.24,0,0,0-.27-3.49,3.47,3.47,0,0,0-4.81-1.29,3.4,3.4,0,0,0-1.29,4.85,4.14,4.14,0,0,0,2.85,2Z"/><path d="M499.1,559a1.1,1.1,0,1,1-1.1-1.9,1.1,1.1,0,0,1,1.1,1.9Z"/><path d="M511.87,562.35l1,1.71-6.94,8.6-1-1.77,1.44-1.76-2.1-3.64-2.27.33-1-1.77ZM510,564.58l-3.74.58,1.36,2.37Z"/><path d="M513.46,572a3.37,3.37,0,0,1,2,1.46,2.51,2.51,0,0,1-.95,3.57l-4.52,2.6L509,578l3.12-1.8c1.3-.75,2.07-1.35,1.49-2.35a1.51,1.51,0,0,0-1.28-.76,3.74,3.74,0,0,0-2,.73l-2.81,1.62-.95-1.66,6.6-3.81,1,1.66Z"/><path d="M514.4,585.75a3.2,3.2,0,0,1-2-1.54,3.8,3.8,0,0,1,1.65-5.15,3.73,3.73,0,0,1,5.28,1.1,3.25,3.25,0,0,1,.3,2.6l3.28-1.89.95,1.65-9.15,5.28-1-1.65Zm.58-5a2.08,2.08,0,1,0,3,.65A2.1,2.1,0,0,0,515,580.72Z"/><path d="M520.47,594.93a4.31,4.31,0,1,1,2.18-.66c-.15.09-.24.12-.38.2l-3.07-5.32a2.05,2.05,0,0,0-.47,2.74,2.5,2.5,0,0,0,1.6,1.26Zm2.15-2.86a2.22,2.22,0,0,0-2.08-3.6Z"/><path d="M526.59,595.15a1.79,1.79,0,0,1,1.81.82,1.77,1.77,0,0,1,.24.82l-1.71.3a1.34,1.34,0,0,0-.15-.56c-.27-.47-1-.53-2,0l-1.14.64-2.68,1.55-1-1.66,6.6-3.81.83,1.43Z"/><path d="M526.13,601.09c-.07-1.37.26-2.28,1.1-2.76a2.3,2.3,0,0,1,3.13,1,3.07,3.07,0,0,1,.16,2.8l-1.62-.42a2,2,0,0,0,0-1.5c-.19-.33-.48-.52-.74-.37s-.22.45-.2.92l0,.79c.07,1.41-.16,2.33-1.15,2.9a2.46,2.46,0,0,1-3.43-1.19,3.22,3.22,0,0,1-.2-3l1.7.38a2.41,2.41,0,0,0,0,1.82.76.76,0,0,0,1,.43c.28-.17.34-.56.31-1.16Z"/><path d="M530.52,612.35a4.09,4.09,0,1,1,3.73-6.23,3.9,3.9,0,0,1-1.56,5.57c-.15.09-.23.12-.38.2l-3.07-5.32a2,2,0,0,0-.46,2.74,2.49,2.49,0,0,0,1.6,1.27Zm2.14-2.86a2.22,2.22,0,0,0-2.07-3.6Z"/><path d="M537.15,613.09a3.41,3.41,0,0,1,2,1.46,2.51,2.51,0,0,1-1,3.57l-4.51,2.61-1-1.66,3.12-1.8c1.31-.75,2.08-1.34,1.5-2.35a1.49,1.49,0,0,0-1.28-.75,3.73,3.73,0,0,0-2,.72l-2.82,1.62-1-1.65,6.6-3.81,1,1.65Z"/><path d="M536.68,626l8.93-5.15.94,1.63a5.15,5.15,0,0,1,.87,2.5,2.48,2.48,0,0,1-1.25,2.15,2.43,2.43,0,0,1-2.26.06,2.9,2.9,0,0,1-3.68,3.18,3.21,3.21,0,0,1-2-1.7Zm4.9-.55-2.3,1.33.33.57c.62,1.07,1.25,1.47,2,1s.9-1.32.21-2.51Zm3.4-2-1.88,1.08.22.38c.46.79,1,1,1.66.64s.69-.91.25-1.66Z"/><path d="M549.8,627.58l1,1.66-9.15,5.28-1-1.66Z"/><path d="M548.66,631.49l1,1.7-2.93,3.91,4.85-.58,1,1.68-8.22,1-.62-1.07Z"/><path d="M550,647.47a3.2,3.2,0,0,1-2-1.54,3.8,3.8,0,0,1,1.65-5.15,3.73,3.73,0,0,1,5.28,1.1,3.23,3.23,0,0,1,.3,2.59l3.27-1.88,1,1.65-9.16,5.28-1-1.65Zm.58-5a2.08,2.08,0,1,0,3,.65A2.1,2.1,0,0,0,550.58,642.44Z"/><path d="M553.07,652.59a1.09,1.09,0,0,1-1.5-.39,1.12,1.12,0,0,1,.4-1.51,1.1,1.1,0,0,1,1.1,1.9Z"/><path d="M1091.38,773.25a8,8,0,0,1-6.24,2.76,7.26,7.26,0,0,1-7.6-7.56,7.4,7.4,0,0,1,7.64-7.52,8.27,8.27,0,0,1,6.26,2.88l-1.92,1.84a5.88,5.88,0,0,0-4.4-2.1,4.83,4.83,0,0,0-4.9,4.9,4.75,4.75,0,0,0,5,4.94,5.74,5.74,0,0,0,4.34-2.08Z"/><path d="M1093.56,760.93h2.66v5.18a4.71,4.71,0,0,1,3.14-1.36,3.52,3.52,0,0,1,3.64,3.88v7h-2.66v-5c0-2.16-.26-3.44-1.82-3.44a2.11,2.11,0,0,0-1.8,1,5.11,5.11,0,0,0-.5,2.9v4.52h-2.66Z"/><path d="M1107.22,766.37a2.48,2.48,0,0,1,2.24-1.62,2.51,2.51,0,0,1,1.16.28l-.82,2.28a1.87,1.87,0,0,0-.78-.22c-.76,0-1.36.88-1.42,2.44,0,.58,0,1.24,0,1.82v4.3h-2.67V765h2.31Z"/><path d="M1114.7,762.41a1.7,1.7,0,0,1-1.7,1.7,1.77,1.77,0,0,1-1.7-1.84,1.66,1.66,0,0,1,1.7-1.62A1.72,1.72,0,0,1,1114.7,762.41Zm-3,2.62h2.67v10.62h-2.67Z"/><path d="M1118.86,771.05c-1.7-.86-2.56-1.9-2.56-3.24a3.2,3.2,0,0,1,3.44-3.06,4.32,4.32,0,0,1,3.5,1.76l-1.64,1.66a2.73,2.73,0,0,0-1.84-1c-.54,0-1,.22-1,.64s.38.58,1,.88l1,.5c1.76.9,2.7,1.82,2.7,3.4,0,1.9-1.5,3.32-3.82,3.32a4.49,4.49,0,0,1-3.72-1.82l1.64-1.8a3.33,3.33,0,0,0,2.22,1.24c.66,0,1.18-.38,1.18-.86s-.44-.8-1.18-1.18Z"/><path d="M1125.85,761.11h2.67V765h1.58v2.28h-1.58v8.34h-2.67v-8.34h-1.35V765h1.35Z"/><path d="M1134.3,762.41a1.7,1.7,0,0,1-1.71,1.7,1.77,1.77,0,0,1-1.69-1.84,1.65,1.65,0,0,1,1.69-1.62A1.73,1.73,0,0,1,1134.3,762.41Zm-3,2.62h2.67v10.62h-2.67Z"/><path d="M1144.2,774.53a4.41,4.41,0,0,1-3.28,1.4,5.3,5.3,0,0,1-5.07-5.58c0-3.32,2.24-5.6,5-5.6a4.56,4.56,0,0,1,3.34,1.44V765h2.66v10.62h-2.66Zm-5.66-4.2a2.9,2.9,0,1,0,2.86-3.14A2.89,2.89,0,0,0,1138.54,770.33Z"/><path d="M1152.2,766.11a4.73,4.73,0,0,1,3.14-1.36,3.5,3.5,0,0,1,3.64,3.64v7.26h-2.66v-5c0-2.1-.18-3.44-1.8-3.44a2.09,2.09,0,0,0-1.8,1,5.13,5.13,0,0,0-.52,2.92v4.52h-2.67V765h2.67Z"/><path d="M1163.66,771.05c-1.71-.86-2.57-1.9-2.57-3.24a3.2,3.2,0,0,1,3.44-3.06,4.35,4.35,0,0,1,3.51,1.76l-1.64,1.66a2.77,2.77,0,0,0-1.85-1c-.54,0-1,.22-1,.64s.38.58,1,.88l1,.5c1.76.9,2.7,1.82,2.7,3.4,0,1.9-1.5,3.32-3.83,3.32a4.49,4.49,0,0,1-3.72-1.82l1.64-1.8a3.33,3.33,0,0,0,2.22,1.24c.66,0,1.19-.38,1.19-.86s-.45-.8-1.19-1.18Z"/><path d="M1173,775.65h-2.67V760.93H1173v5.26a4.54,4.54,0,0,1,3.33-1.44c2.75,0,5,2.28,5,5.6a5.3,5.3,0,0,1-5.08,5.58,4.41,4.41,0,0,1-3.28-1.4Zm-.13-5.34a2.92,2.92,0,1,0,5.81,0,2.91,2.91,0,1,0-5.81,0Z"/><path d="M1194.18,770.33a5.58,5.58,0,1,1-5.65-5.58A5.53,5.53,0,0,1,1194.18,770.33Zm-8.47,0a2.84,2.84,0,0,0,2.87,3.08,3.08,3.08,0,1,0-2.87-3.08Z"/><path d="M1198,766.37a2.48,2.48,0,0,1,2.24-1.62,2.44,2.44,0,0,1,1.16.28l-.82,2.28a1.83,1.83,0,0,0-.78-.22c-.76,0-1.36.88-1.42,2.44,0,.58,0,1.24,0,1.82v4.3h-2.66V765h2.3Z"/><path d="M1213.1,774.13c0,2.06-.4,3.44-1.62,4.48a5.83,5.83,0,0,1-3.87,1.18c-2.92,0-4.78-1.14-5.5-3.36h2.94a3,3,0,0,0,2.46.92,3.38,3.38,0,0,0,2.27-.7,2.83,2.83,0,0,0,.66-2.32,4.3,4.3,0,0,1-3.23,1.32,5.16,5.16,0,0,1-5.1-5.46c0-3.28,2.26-5.44,5-5.44a4.7,4.7,0,0,1,3.36,1.44V765h2.66Zm-8.31-3.92a2.87,2.87,0,0,0,2.92,3,2.8,2.8,0,0,0,2.87-3,2.9,2.9,0,1,0-5.79,0Z"/><path d="M547.86,312.19a5.67,5.67,0,0,1-7.27,8.58l-1.27,1.5-.92-.79,1.25-1.49a5.71,5.71,0,0,1,4.05-9.67,5.49,5.49,0,0,1,3.26,1.05l1.19-1.38.93.77Zm-2.2.74a3.35,3.35,0,0,0-2-.64,3.56,3.56,0,0,0-3.54,3.75,3.48,3.48,0,0,0,.82,2.39Zm-3.74,6.29a3.67,3.67,0,0,0,1.81.48,3.57,3.57,0,0,0,3.51-3.68,3.77,3.77,0,0,0-.72-2.25Z"/><path d="M552.29,314.42A1.87,1.87,0,0,1,554,313.2a1.91,1.91,0,0,1,.88.21l-.62,1.72a1.51,1.51,0,0,0-.59-.17c-.57,0-1,.67-1.07,1.85,0,.43,0,.93,0,1.37v3.24h-2v-8h1.73Z"/><path d="M557.45,318c-1.28-.65-1.93-1.43-1.93-2.44a2.42,2.42,0,0,1,2.6-2.31,3.26,3.26,0,0,1,2.64,1.33l-1.24,1.25a2.07,2.07,0,0,0-1.39-.74c-.41,0-.72.17-.72.48s.28.44.72.67l.74.37c1.33.68,2,1.38,2,2.57a2.59,2.59,0,0,1-2.89,2.5,3.36,3.36,0,0,1-2.8-1.37l1.24-1.36a2.47,2.47,0,0,0,1.67.94c.5,0,.89-.29.89-.65s-.33-.6-.89-.89Z"/><path d="M562.73,310.45h2v3h1.19v1.72h-1.19v6.29h-2v-6.29h-1v-1.72h1Z"/><path d="M574.53,319.87a4.53,4.53,0,1,1,.54-2.32c0,.18,0,.27,0,.45H568.6a2.14,2.14,0,0,0,2.25,1.85,2.6,2.6,0,0,0,2-.78Zm-1.48-3.46a2.33,2.33,0,0,0-4.36,0Z"/><path d="M582.6,320.58a3.35,3.35,0,0,1-2.48,1.05,4,4,0,0,1-3.81-4.2,3.92,3.92,0,0,1,3.77-4.23,3.44,3.44,0,0,1,2.52,1.09v-4h2v11.1h-2Zm-4.27-3.17a2.19,2.19,0,1,0,2.16-2.37A2.2,2.2,0,0,0,578.33,317.41Z"/><path d="M588.22,318c-1.28-.65-1.93-1.43-1.93-2.44a2.42,2.42,0,0,1,2.6-2.31,3.26,3.26,0,0,1,2.64,1.33l-1.24,1.25a2.07,2.07,0,0,0-1.39-.74c-.41,0-.72.17-.72.48s.28.44.72.67l.74.37c1.33.68,2,1.38,2,2.57a2.59,2.59,0,0,1-2.88,2.5,3.36,3.36,0,0,1-2.81-1.37l1.24-1.36a2.47,2.47,0,0,0,1.67.94c.5,0,.89-.29.89-.65s-.33-.6-.89-.89Z"/><path d="M595.27,314.29a3.41,3.41,0,0,1,2.52-1.09,3.94,3.94,0,0,1,3.79,4.23,4,4,0,0,1-3.84,4.2,3.35,3.35,0,0,1-2.47-1.05v3.77h-2V313.41h2Zm-.09,3.1a2.19,2.19,0,1,0,4.37,0,2.19,2.19,0,1,0-4.37,0Z"/><path d="M609.15,320.58a3.35,3.35,0,0,1-2.48,1.05,4,4,0,0,1-3.82-4.2,3.92,3.92,0,0,1,3.78-4.23,3.44,3.44,0,0,1,2.52,1.09v-.88h2v8h-2Zm-4.28-3.17A2.19,2.19,0,1,0,607,315,2.19,2.19,0,0,0,604.87,317.41Z"/><path d="M614.44,314.42a1.81,1.81,0,0,1,2.56-1l-.62,1.72a1.46,1.46,0,0,0-.58-.17c-.58,0-1,.67-1.08,1.85,0,.43,0,.93,0,1.37v3.24h-2v-8h1.74Z"/><path d="M618,310.32h2v6.4l3-3.31h2.51l-3.44,3.85,3.86,4.16h-2.49L620,317.73v3.69h-2Z"/><path d="M634.26,319.87a4.53,4.53,0,1,1,.54-2.32c0,.18,0,.27,0,.45h-6.46a2.14,2.14,0,0,0,2.25,1.85,2.6,2.6,0,0,0,2-.78Zm-1.48-3.46a2.33,2.33,0,0,0-4.36,0Z"/><path d="M638.41,314.23a3.57,3.57,0,0,1,2.37-1,2.64,2.64,0,0,1,2.74,2.75v5.47h-2v-3.78c0-1.59-.13-2.6-1.35-2.6a1.57,1.57,0,0,0-1.36.77,3.9,3.9,0,0,0-.39,2.2v3.41h-2v-8h2Z"/><path d="M824.48,496.45H826l1.89,5.36,1.93-5.36h1.47L828.53,504h-1.37Z"/><path d="M837,501.2a2.93,2.93,0,1,1-3-2.93A2.91,2.91,0,0,1,837,501.2Zm-4.44,0a1.49,1.49,0,0,0,1.5,1.61,1.61,1.61,0,1,0-1.5-1.61Z"/><path d="M839,499.12a1.29,1.29,0,0,1,1.17-.85,1.23,1.23,0,0,1,.61.15l-.43,1.19a1,1,0,0,0-.41-.11c-.4,0-.71.46-.74,1.28,0,.3,0,.65,0,1V504h-1.4v-5.57H839Z"/><path d="M844.63,496.45h3.74v1.41H846v1.34h2.35v1.41H846V504h-1.39Z"/><path d="M850.36,499.12a1.31,1.31,0,0,1,1.18-.85,1.26,1.26,0,0,1,.61.15l-.43,1.19a1,1,0,0,0-.41-.11c-.4,0-.72.46-.75,1.28,0,.3,0,.65,0,1V504h-1.39v-5.57h1.2Z"/><path d="M852.85,498.42h1.4v2.9c0,1,.31,1.52,1,1.52s1.05-.51,1.05-1.45v-3h1.4V501a3.29,3.29,0,0,1-.66,2.43,2.49,2.49,0,0,1-4.18-1.28,5.7,5.7,0,0,1-.06-1.17Z"/><path d="M864.37,502.91a3,3,0,0,1-5.48-1.71,2.93,2.93,0,1,1,5.86.09c0,.13,0,.19,0,.32h-4.49a1.49,1.49,0,0,0,1.56,1.29,1.81,1.81,0,0,0,1.39-.55Zm-1-2.41a1.5,1.5,0,0,0-1.53-1.05,1.52,1.52,0,0,0-1.5,1.05Z"/><path d="M869,496.45h1.44V499l2-2.59h1.74l-2.65,3.36,2.9,4.18h-1.7l-2.33-3.35V504H869Z"/><path d="M876.77,497a.89.89,0,0,1-.89.89.93.93,0,0,1-.89-1,.86.86,0,0,1,.89-.85A.91.91,0,0,1,876.77,497Zm-1.58,1.38h1.39V504h-1.39Z"/><path d="M878.73,499.12a1.29,1.29,0,0,1,1.17-.85,1.23,1.23,0,0,1,.61.15l-.43,1.19a1,1,0,0,0-.41-.11c-.4,0-.71.46-.74,1.28,0,.3,0,.65,0,1V504h-1.39v-5.57h1.21Z"/><path d="M881.22,496.26h1.39v4.45l2.07-2.29h1.74L884,501.09l2.69,2.9H885l-2.38-2.57V504h-1.39Z"/><path d="M892.53,502.91a2.85,2.85,0,0,1-2.57,1.23,2.82,2.82,0,0,1-2.91-2.94,2.93,2.93,0,1,1,5.85.09c0,.13,0,.19,0,.32H888.4A1.5,1.5,0,0,0,890,502.9a1.81,1.81,0,0,0,1.39-.55Zm-1-2.41a1.52,1.52,0,0,0-1.54-1.05,1.53,1.53,0,0,0-1.5,1.05Z"/><path d="M975.17,329.88h1.75a2.82,2.82,0,0,1,2.13.6,2.2,2.2,0,0,1,.61,1.58,2,2,0,0,1-1.45,2l1.79,3.35h-1.57l-1.68-3.19h-.14v3.19h-1.44Zm1.44,2.94h.66c.65,0,1-.26,1-.77s-.35-.77-1-.77h-.62Z"/><path d="M980.76,331.84h1.4v2.91c0,1,.31,1.52,1,1.52s1-.52,1-1.46v-3h1.4v2.57a3.31,3.31,0,0,1-.65,2.44,2.25,2.25,0,0,1-1.8.7,2.19,2.19,0,0,1-2.39-2,6.51,6.51,0,0,1,0-1.17Z"/><path d="M988.45,332.4a2.48,2.48,0,0,1,1.65-.71A1.83,1.83,0,0,1,992,333.6v3.81h-1.4v-2.63c0-1.1-.09-1.81-1-1.81a1.09,1.09,0,0,0-.94.54,2.75,2.75,0,0,0-.27,1.53v2.37h-1.4v-5.57h1.4Z"/><path d="M997.48,336.82a2.29,2.29,0,0,1-1.72.74,2.78,2.78,0,0,1-2.66-2.93,2.73,2.73,0,0,1,2.63-2.94,2.37,2.37,0,0,1,1.75.76v-2.76h1.4v7.72h-1.4Zm-3-2.2A1.52,1.52,0,1,0,996,333,1.53,1.53,0,0,0,994.51,334.62Z"/><path d="M1005.52,336.33a2.85,2.85,0,0,1-2.57,1.23,2.82,2.82,0,0,1-2.91-2.94,2.93,2.93,0,1,1,5.85.09c0,.13,0,.19,0,.32h-4.49a1.49,1.49,0,0,0,1.56,1.29,1.81,1.81,0,0,0,1.39-.55Zm-1-2.4a1.63,1.63,0,0,0-3,0Z"/><path d="M1007.18,329.78h1.4v2.06h.83V333h-.83v4.38h-1.4V333h-.71v-1.19h.71Z"/><path d="M1014.29,336.82a2.31,2.31,0,0,1-1.72.74,2.78,2.78,0,0,1-2.66-2.93,2.73,2.73,0,0,1,2.62-2.94,2.39,2.39,0,0,1,1.76.76v-.61h1.39v5.57h-1.39Zm-3-2.2a1.52,1.52,0,1,0,1.5-1.65A1.52,1.52,0,0,0,1011.32,334.62Zm2.73-4.93a1.13,1.13,0,1,1-1.13-1.13A1.12,1.12,0,0,1,1014.05,329.69Zm-1.57,0a.44.44,0,1,0,.88,0,.44.44,0,1,0-.88,0Z"/><path d="M1018,332.54a1.29,1.29,0,0,1,1.17-.85,1.2,1.2,0,0,1,.61.15l-.43,1.19a1,1,0,0,0-.41-.11c-.4,0-.71.46-.74,1.28,0,.3,0,.65,0,1v2.25h-1.4v-5.57H1018Z"/><path d="M1021.91,332.4a2.45,2.45,0,0,1,1.64-.71,1.83,1.83,0,0,1,1.91,1.91v3.81h-1.39v-2.63c0-1.1-.1-1.81-.95-1.81a1.09,1.09,0,0,0-.94.54,2.75,2.75,0,0,0-.27,1.53v2.37h-1.4v-5.57h1.4Z"/><path d="M1032,336.33a3,3,0,1,1-2.58-4.64,2.86,2.86,0,0,1,3,3c0,.13,0,.19,0,.32h-4.5a1.5,1.5,0,0,0,1.57,1.29,1.77,1.77,0,0,0,1.38-.55Zm-1-2.4a1.62,1.62,0,0,0-3,0Z"/><path d="M1033.7,329.78h1.4v2.06h.83V333h-.83v4.38h-1.4V333H1033v-1.19h.71Z"/><path d="M1060.71,55.15h2.74v4.94l3.9-4.94h3.3l-5,6.41,5.52,8h-3.24l-4.44-6.38v6.38h-2.74Z"/><path d="M1082.61,64.2a5.57,5.57,0,1,1-5.64-5.59A5.59,5.59,0,0,1,1082.61,64.2Zm-8.46,0a2.83,2.83,0,0,0,2.86,3.08,3.08,3.08,0,1,0-2.86-3.08Z"/><path d="M1087.43,60a4.69,4.69,0,0,1,3.14-1.37,3.5,3.5,0,0,1,3.64,3.65v7.26h-2.66v-5c0-2.1-.18-3.44-1.8-3.44a2.09,2.09,0,0,0-1.8,1,5.21,5.21,0,0,0-.52,2.92v4.52h-2.66V58.9h2.66Z"/><path d="M1107.29,68c0,2.06-.4,3.44-1.62,4.48a5.82,5.82,0,0,1-3.86,1.18c-2.92,0-4.78-1.14-5.5-3.36h2.94a3,3,0,0,0,2.46.92,3.35,3.35,0,0,0,2.26-.7,2.8,2.8,0,0,0,.66-2.32,4.28,4.28,0,0,1-3.22,1.32,5.16,5.16,0,0,1-5.1-5.46c0-3.29,2.26-5.45,5-5.45a4.65,4.65,0,0,1,3.36,1.45V58.9h2.66Zm-8.3-3.92a2.87,2.87,0,0,0,2.92,3,2.79,2.79,0,0,0,2.86-3,2.89,2.89,0,1,0-5.78,0Z"/><path d="M1119.93,67.46a5.7,5.7,0,1,1-4.92-8.85,5.45,5.45,0,0,1,5.64,5.77c0,.24,0,.36,0,.6h-8.56a2.84,2.84,0,0,0,3,2.46,3.44,3.44,0,0,0,2.64-1Zm-2-4.58a3.09,3.09,0,0,0-5.78,0Z"/><path d="M1125.43,60a4.69,4.69,0,0,1,3.14-1.37,3.5,3.5,0,0,1,3.64,3.65v7.26h-2.66v-5c0-2.1-.18-3.44-1.8-3.44a2.09,2.09,0,0,0-1.8,1,5.21,5.21,0,0,0-.52,2.92v4.52h-2.66V58.9h2.66Z"/><path d="M1136.89,64.92c-1.7-.86-2.56-1.9-2.56-3.24a3.2,3.2,0,0,1,3.44-3.07,4.33,4.33,0,0,1,3.5,1.77L1139.63,62a2.68,2.68,0,0,0-1.84-1c-.54,0-1,.21-1,.64s.38.58,1,.88l1,.5c1.76.9,2.7,1.82,2.7,3.4,0,1.9-1.5,3.32-3.82,3.32a4.49,4.49,0,0,1-3.72-1.82l1.64-1.8a3.33,3.33,0,0,0,2.22,1.24c.66,0,1.18-.38,1.18-.86s-.44-.8-1.18-1.18Z"/><path d="M1149.49,55.15h2.74v5.41h4.84V55.15h2.74V69.52h-2.74V63.24h-4.84v6.28h-2.74Z"/><path d="M1170.63,68.4a4.41,4.41,0,0,1-3.28,1.4,5.29,5.29,0,0,1-5.06-5.58c0-3.32,2.24-5.61,5-5.61a4.53,4.53,0,0,1,3.34,1.45V58.9h2.66V69.52h-2.66ZM1165,64.2a2.9,2.9,0,1,0,2.86-3.14A2.89,2.89,0,0,0,1165,64.2Z"/><path d="M1174.83,58.9h2.72l2.68,6.26,2.68-6.26h2.7l-4.52,10.62h-1.72Z"/><path d="M1197.13,67.46a5.7,5.7,0,1,1-4.92-8.85,5.45,5.45,0,0,1,5.64,5.77c0,.24,0,.36,0,.6h-8.56a2.84,2.84,0,0,0,3,2.46,3.44,3.44,0,0,0,2.64-1Zm-2-4.58a3.09,3.09,0,0,0-5.78,0Z"/><path d="M297.33,186l1.55-3c.87-1.64,1.72-2.66,2.92-3.05a4.23,4.23,0,0,1,3.2.37,3.76,3.76,0,0,1,2.16,3.19,7.19,7.19,0,0,1-1.23,3.88l5.38,2.83L310,192.7Zm6.25.19.59-1.13c.58-1.1.45-1.87-.42-2.33s-1.63-.09-2.23,1.07l-.54,1Z"/><path d="M317.94,173.26a6,6,0,1,1-2.39-2.07l.52.29-4,7.58a2.84,2.84,0,0,0,3.57-1.49,3.45,3.45,0,0,0,.31-2.82Zm-5-.4a2.88,2.88,0,0,0-3.13,1.65,2.92,2.92,0,0,0,.44,3.47Z"/><path d="M322.32,169.35l-1.24,2.36-13-6.86,1.23-2.35L314,165a4.6,4.6,0,0,1,.28-3.63c1.28-2.43,4.36-3.38,7.3-1.84a5.31,5.31,0,0,1,2.57,7.1,4.46,4.46,0,0,1-2.77,2.25ZM317.54,167a2.91,2.91,0,1,0,2.72-5.12,2.91,2.91,0,1,0-2.72,5.12Z"/><path d="M314.08,153.4l1.24-2.35,13,6.85-1.24,2.36Z"/><path d="M319,147.17a1.7,1.7,0,0,1,.72,2.3,1.77,1.77,0,0,1-2.42.64,1.66,1.66,0,0,1-.65-2.26A1.72,1.72,0,0,1,319,147.17Zm.92,3.89,1.24-2.35,9.39,4.94L329.35,156Z"/><path d="M324.5,144.73a4.7,4.7,0,0,1,.26-3.41,3.49,3.49,0,0,1,4.91-1.53l6.43,3.39-1.24,2.35-4.44-2.34c-1.86-1-3.13-1.44-3.89,0a2.1,2.1,0,0,0,.07,2.07,5.2,5.2,0,0,0,2.34,1.82l4,2.11-1.24,2.35-9.4-4.95,1.24-2.35Z"/><path d="M340.85,130.89c1.82,1,2.86,2,3.21,3.52a5.82,5.82,0,0,1-.76,4c-1.36,2.58-3.23,3.7-5.53,3.3l1.37-2.6a3,3,0,0,0,2-1.75,3.37,3.37,0,0,0,.43-2.33c-.23-.84-.86-1.2-1.75-1.66a4.24,4.24,0,0,1-.33,3.46,5.15,5.15,0,0,1-7.21,2c-2.9-1.52-3.76-4.53-2.5-6.92a4.66,4.66,0,0,1,2.84-2.3l-1-.54,1.24-2.36Zm-7.34,5.52a2.88,2.88,0,0,0,4-1.18,2.8,2.8,0,0,0-1.31-3.92,2.89,2.89,0,1,0-2.71,5.1Z"/><path d="M346.25,119.45a5.7,5.7,0,1,1-10.11.24,5.45,5.45,0,0,1,7.72-2.31c.22.12.31.19.52.3l-4,7.58a2.84,2.84,0,0,0,3.56-1.5,3.45,3.45,0,0,0,.31-2.82Zm-5-.39a3.09,3.09,0,0,0-2.7,5.11Z"/><path d="M349,109.82c1.4,0,2.32-.39,2.77-1.24a1.53,1.53,0,0,0-.41-2.09,2.27,2.27,0,0,0-1.85.07c-3.6,1.47-5.62,2.4-7.43,1.45a3.78,3.78,0,0,1-1.37-5.18c.85-1.61,2.27-2.21,4-2.61l.65,2.65a2.81,2.81,0,0,0-2.32,1.22,1.07,1.07,0,0,0,.32,1.54,1.75,1.75,0,0,0,1.52-.14c3.34-1.28,5.33-2.65,7.65-1.43a4.07,4.07,0,0,1,1.56,5.8c-1,1.86-2.56,2.67-4.91,2.63Z"/><path d="M353.55,91.11a5.61,5.61,0,0,1,6,8.14,5.27,5.27,0,0,1-2.14,2.22l.67,1.78-1.51.59-.66-1.8a5.4,5.4,0,0,1-3.87-.5,5.56,5.56,0,0,1-2.4-7.48A6.1,6.1,0,0,1,352,91.64l-.64-1.71,1.52-.56ZM352.92,94a3,3,0,0,0-1.05,1.17,2.88,2.88,0,0,0,1.38,4,3.77,3.77,0,0,0,1.73.44Zm3.59,5a3.25,3.25,0,0,0,.8-1,2.88,2.88,0,0,0-1.35-4,3.67,3.67,0,0,0-1.48-.41Z"/><path d="M117.08,192.27l1.11,1.51-5.66,8.79L111.39,201l1.18-1.8L110.22,196l-2.1.54L107,195Zm-1.52,2.29-3.46.93,1.52,2.08Zm4.69-1.65a1.45,1.45,0,1,1,.32-2A1.45,1.45,0,0,1,120.25,192.91Zm-1.19-1.64a.57.57,0,0,0-.12.8.57.57,0,0,0,.92-.67A.58.58,0,0,0,119.06,191.27Z"/><path d="M114.32,205l-1.06-1.45,8.07-5.9,1.06,1.46-2.88,2.11a3.12,3.12,0,0,1,2.13,1.25,3.55,3.55,0,0,1-1.06,5,3.6,3.6,0,0,1-5.1-.56,3,3,0,0,1-.54-2.35Zm2.88-2.2a2,2,0,1,0,2.31,3.19,2,2,0,1,0-2.31-3.19Z"/><path d="M125.72,214.5a3.78,3.78,0,1,1,.8-5.32A3.75,3.75,0,0,1,125.72,214.5Zm-3.39-4.64a1.93,1.93,0,0,0-.54,2.81,2.09,2.09,0,1,0,.54-2.81Z"/><path d="M129.5,213.57l1.06,1.46-3,2.22c-1,.76-1.35,1.49-.79,2.26s1.34.7,2.32,0l3.1-2.27,1.07,1.46-2.69,2a4.31,4.31,0,0,1-3,1.18,2.9,2.9,0,0,1-2.1-1.34,2.85,2.85,0,0,1,.24-4,8.41,8.41,0,0,1,1.19-.95Z"/><path d="M136.44,218.35l1.06,1.46-8.07,5.9-1.06-1.46Z"/><path d="M135.51,231.66a4.07,4.07,0,1,1,2-.84c-.13.1-.21.13-.34.23l-3.43-4.69a1.93,1.93,0,0,0-.15,2.62,2.33,2.33,0,0,0,1.63,1Zm1.73-2.91a2.1,2.1,0,0,0-2.32-3.17Z"/><path d="M140.88,229.16l1.09,1.49-2.36,4,4.51-1,1.08,1.48-7.63,1.78-.69-.95Z"/><path d="M143.76,244a3,3,0,0,1-2.08-1.24,3.59,3.59,0,0,1,1-5,3.52,3.52,0,0,1,5.07.5,3.12,3.12,0,0,1,.55,2.41l.63-.46,1.07,1.45L144.22,246l-1.07-1.46Zm0-4.79a2,2,0,1,0,2.87.31A2,2,0,0,0,143.8,239.25Z"/><path d="M151.05,244.62a1.66,1.66,0,0,1,1.78.58,1.52,1.52,0,0,1,.31.75l-1.57.46a1.3,1.3,0,0,0-.2-.52c-.3-.41-1-.39-1.9.2-.33.22-.69.49-1,.72l-2.36,1.72L145,247.07l5.82-4.25.92,1.26Z"/><path d="M151.55,254.69a3,3,0,0,1-2.08-1.23,3.58,3.58,0,0,1,1-5,3.51,3.51,0,0,1,5.07.5,3.1,3.1,0,0,1,.55,2.4l2.88-2.1,1.07,1.46L152,256.6l-1.07-1.46Zm0-4.78a2,2,0,1,0,2.87.31A2,2,0,0,0,151.58,249.91Z"/><path d="M620.53,203.57h1.92v10h-1.92Z"/><path d="M625.86,210.4c-1.19-.61-1.79-1.33-1.79-2.27a2.24,2.24,0,0,1,2.4-2.14,3,3,0,0,1,2.45,1.23l-1.14,1.16a1.91,1.91,0,0,0-1.29-.69c-.38,0-.67.16-.67.45s.26.41.67.62l.68.35c1.24.63,1.89,1.27,1.89,2.38a2.4,2.4,0,0,1-2.67,2.32,3.15,3.15,0,0,1-2.6-1.27l1.15-1.26a2.32,2.32,0,0,0,1.55.86c.46,0,.82-.26.82-.6s-.3-.56-.82-.82Z"/><path d="M631.71,207.12a1.73,1.73,0,0,1,1.56-1.13,1.81,1.81,0,0,1,.81.19l-.57,1.6a1.31,1.31,0,0,0-.55-.16c-.53,0-1,.62-1,1.71,0,.41,0,.87,0,1.27v3H630.1v-7.43h1.61Z"/><path d="M640.5,212.83a3.08,3.08,0,0,1-2.29,1,3.7,3.7,0,0,1-3.54-3.9,3.63,3.63,0,0,1,3.5-3.92,3.15,3.15,0,0,1,2.33,1v-.82h1.87v7.43H640.5Zm-4-2.94a2,2,0,1,0,2-2.2A2,2,0,0,0,636.55,209.89Z"/><path d="M651.21,212.17a4.2,4.2,0,1,1,.5-2.15c0,.16,0,.25,0,.42h-6a2,2,0,0,0,2.08,1.72,2.43,2.43,0,0,0,1.85-.73Zm-1.38-3.2a2,2,0,0,0-2-1.4,2,2,0,0,0-2,1.4Z"/><path d="M653,203.32h1.86v10.29H653Z"/><path d="M658,210.4c-1.19-.61-1.79-1.33-1.79-2.27a2.24,2.24,0,0,1,2.41-2.14,3,3,0,0,1,2.44,1.23L660,208.38a1.91,1.91,0,0,0-1.29-.69c-.38,0-.67.16-.67.45s.26.41.67.62l.69.35c1.23.63,1.89,1.27,1.89,2.38a2.4,2.4,0,0,1-2.68,2.32,3.16,3.16,0,0,1-2.6-1.27l1.15-1.26a2.32,2.32,0,0,0,1.55.86c.46,0,.83-.26.83-.6s-.31-.56-.83-.82Z"/><path d="M666.81,203.57h2.34a3.82,3.82,0,0,1,2.84.81,2.93,2.93,0,0,1,.81,2.1,2.6,2.6,0,0,1-1.27,2.37,5,5,0,0,1-2.8.51v4.25h-1.92Zm1.92,3.93h.9c.86,0,1.3-.34,1.3-1s-.48-1-1.39-1h-.81Z"/><path d="M674.27,203.32h1.86v10.29h-1.86Z"/><path d="M683.31,212.83a3.11,3.11,0,0,1-2.3,1,3.7,3.7,0,0,1-3.54-3.9A3.63,3.63,0,0,1,681,206a3.16,3.16,0,0,1,2.34,1v-.82h1.86v7.43h-1.86Zm-4-2.94a2,2,0,1,0,2-2.2A2,2,0,0,0,679.35,209.89Z"/><path d="M692.54,212.83a3.11,3.11,0,0,1-2.3,1,3.7,3.7,0,0,1-3.54-3.9,3.63,3.63,0,0,1,3.5-3.92,3.16,3.16,0,0,1,2.34,1v-3.68h1.86v10.29h-1.86Zm-4-2.94a2,2,0,1,0,2-2.2A2,2,0,0,0,688.58,209.89Z"/><path d="M697.75,210.4c-1.18-.61-1.79-1.33-1.79-2.27a2.24,2.24,0,0,1,2.41-2.14,3,3,0,0,1,2.45,1.23l-1.15,1.16a1.91,1.91,0,0,0-1.29-.69c-.37,0-.67.16-.67.45s.27.41.67.62l.69.35c1.23.63,1.89,1.27,1.89,2.38a2.4,2.4,0,0,1-2.67,2.32,3.18,3.18,0,0,1-2.61-1.27l1.15-1.26a2.36,2.36,0,0,0,1.55.86c.47,0,.83-.26.83-.6s-.31-.56-.83-.82Z"/><path d="M161,845.22c1.3-.53,2-1.22,2.11-2.18a1.52,1.52,0,0,0-1.17-1.78,2.19,2.19,0,0,0-1.68.75c-2.79,2.71-4.32,4.33-6.35,4.12a3.78,3.78,0,0,1-3.21-4.29c.19-1.81,1.28-2.9,2.71-3.91l1.59,2.22c-1,.58-1.62,1.22-1.69,2a1.07,1.07,0,0,0,.87,1.31c.55.06.95-.32,1.36-.7,2.61-2.43,3.95-4.45,6.55-4.18,2.39.24,3.88,2.2,3.62,4.79-.21,2.09-1.38,3.44-3.57,4.28Z"/><path d="M165.75,828.71a4.4,4.4,0,0,1,1.06,3.41,5.29,5.29,0,0,1-6.06,4.47c-3.31-.34-5.35-2.8-5.07-5.54a4.57,4.57,0,0,1,1.77-3.18l-1.15-.12.27-2.65,10.56,1.08-.27,2.64ZM161,833.92a2.9,2.9,0,1,0,.56-5.75,2.9,2.9,0,1,0-.56,5.75Z"/><path d="M158.18,819.9a4.74,4.74,0,0,1-1-3.26,3.49,3.49,0,0,1,4-3.25l7.23.73-.27,2.65-5-.51c-2.09-.21-3.44-.17-3.6,1.44a2.09,2.09,0,0,0,.83,1.9,5.24,5.24,0,0,0,2.85.81l4.5.46-.27,2.64-10.56-1.07.26-2.65Z"/><path d="M154,810.07l.27-2.65,8.44.86-4-4.36.33-3.31,4.62,5,6-4.53-.34,3.28-5.33,4,4.88.5-.27,2.65Z"/><path d="M155.35,798.25l.27-2.65,3.9.4.16-1.58,2.27.23-.16,1.58,8.3.84-.27,2.65-8.3-.85-.14,1.36-2.26-.23.13-1.36Z"/><path d="M157.06,783.18l.28-2.72,10,1a5.5,5.5,0,0,1,3.31,1.1,3.35,3.35,0,0,1,1,2.92,5.1,5.1,0,0,1-2.48,3.81l-1.63-2.14a2.94,2.94,0,0,0,1.44-1.88c.06-.62-.43-.93-1.47-1Z"/><path d="M164.15,768.46a5.62,5.62,0,0,1,8.59,5.32,5.3,5.3,0,0,1-1.16,2.86l1.29,1.39-1.18,1.11-1.28-1.42a5.38,5.38,0,0,1-3.78,1,5.57,5.57,0,0,1-5-6,6,6,0,0,1,1.33-3.15l-1.23-1.35,1.19-1.08Zm.5,2.95a3.07,3.07,0,0,0-.53,1.47,2.89,2.89,0,0,0,2.76,3.16,3.78,3.78,0,0,0,1.77-.24Zm5.22,3.32a3.17,3.17,0,0,0,.36-1.23,2.87,2.87,0,0,0-2.75-3.21,3.79,3.79,0,0,0-1.52.16Z"/><path d="M164.2,763.2a2.48,2.48,0,0,1-1.38-2.39,2.52,2.52,0,0,1,.39-1.13l2.19,1.05a1.94,1.94,0,0,0-.3.75c-.08.76.74,1.45,2.28,1.66.58.08,1.24.15,1.81.21l4.28.43-.27,2.65-10.56-1.08.23-2.28Z"/><path d="M173.45,749c2.05.21,3.38.75,4.29,2.07a5.83,5.83,0,0,1,.79,4c-.3,2.9-1.62,4.64-3.9,5.13l.29-2.92a3,3,0,0,0,1.17-2.36,3.34,3.34,0,0,0-.47-2.32c-.53-.7-1.25-.79-2.24-.89a4.26,4.26,0,0,1,1,3.34,5.17,5.17,0,0,1-6,4.52c-3.27-.33-5.19-2.8-4.92-5.49a4.7,4.7,0,0,1,1.78-3.19l-1.16-.12.27-2.65Zm-4.74,7.86a2.87,2.87,0,0,0,3.28-2.6,2.79,2.79,0,0,0-2.68-3.14,2.89,2.89,0,1,0-.6,5.74Z"/><path d="M174.19,736.35a5.7,5.7,0,1,1-9.3,4,5.45,5.45,0,0,1,6.31-5c.24,0,.35,0,.59.08l-.86,8.51a2.85,2.85,0,0,0,2.75-2.71,3.48,3.48,0,0,0-.77-2.74Zm-4.76,1.49a3.09,3.09,0,0,0-.58,5.75Z"/><path d="M167.3,730.13a4.76,4.76,0,0,1-1-3.27,3.49,3.49,0,0,1,4-3.25l7.23.73-.27,2.65-5-.51c-2.09-.21-3.45-.17-3.61,1.45a2.1,2.1,0,0,0,.83,1.89,5.27,5.27,0,0,0,2.86.81l4.49.46-.26,2.65L166,732.66l.27-2.64Z"/><path d="M173.38,719.22c-1,1.61-2.15,2.36-3.49,2.22a3.19,3.19,0,0,1-2.69-3.73,4.29,4.29,0,0,1,2.1-3.3l1.49,1.8a2.67,2.67,0,0,0-1.16,1.73c-.06.54.12,1,.53,1s.62-.32,1-.87l.59-.92c1.08-1.66,2.09-2.5,3.66-2.34,1.89.19,3.15,1.82,2.92,4.13a4.51,4.51,0,0,1-2.19,3.52l-1.62-1.81a3.33,3.33,0,0,0,1.45-2.09c.07-.65-.25-1.21-.73-1.26s-.84.36-1.3,1.06Z"/><path d="M175.21,705.7c1.3-.53,2-1.22,2.11-2.18a1.51,1.51,0,0,0-1.16-1.78,2.22,2.22,0,0,0-1.69.75c-2.79,2.71-4.32,4.33-6.35,4.12a3.78,3.78,0,0,1-3.2-4.29c.18-1.81,1.28-2.9,2.71-3.9l1.58,2.21c-1,.58-1.61,1.22-1.69,2a1.09,1.09,0,0,0,.87,1.31,1.76,1.76,0,0,0,1.36-.7c2.62-2.43,3.95-4.45,6.56-4.18a4,4,0,0,1,3.61,4.79c-.21,2.09-1.37,3.44-3.57,4.28Z"/><path d="M172.46,686.64a5.65,5.65,0,0,1,3.59-.84,5.54,5.54,0,0,1,5,6.16,5.33,5.33,0,0,1-1.15,2.86l1.28,1.4-1.18,1.1-1.28-1.41a5.41,5.41,0,0,1-3.78,1,5.57,5.57,0,0,1-5-6,6.11,6.11,0,0,1,1.33-3.14L170,686.36l1.2-1.09Zm.51,3a3,3,0,0,0-.53,1.47,2.87,2.87,0,0,0,2.75,3.16A3.84,3.84,0,0,0,177,694Zm5.21,3.33a3.07,3.07,0,0,0,.37-1.23,2.88,2.88,0,0,0-2.75-3.22,3.65,3.65,0,0,0-1.53.17Z"/><path d="M199.12,570c1.33-.45,2.08-1.1,2.23-2.05a1.52,1.52,0,0,0-1.06-1.85,2.27,2.27,0,0,0-1.73.66c-2.94,2.54-4.56,4.07-6.57,3.74a3.76,3.76,0,0,1-3-4.46c.28-1.8,1.44-2.83,2.93-3.75l1.45,2.3c-1,.52-1.68,1.13-1.8,1.9a1.09,1.09,0,0,0,.79,1.37,1.81,1.81,0,0,0,1.4-.63c2.75-2.27,4.2-4.21,6.79-3.8,2.37.38,3.74,2.43,3.33,5-.33,2.07-1.57,3.35-3.81,4.06Z"/><path d="M204.77,553.74a4.43,4.43,0,0,1,.87,3.46,5.29,5.29,0,0,1-6.31,4.12c-3.28-.53-5.18-3.1-4.74-5.82a4.57,4.57,0,0,1,1.95-3.08l-1.15-.18.42-2.63,10.49,1.68-.42,2.63Zm-5,4.93a2.9,2.9,0,1,0-2.65-3.32A2.92,2.92,0,0,0,199.73,558.67Z"/><path d="M197.72,544.51a4.73,4.73,0,0,1-.84-3.31,3.49,3.49,0,0,1,4.17-3l7.17,1.15L207.8,542l-5-.79c-2.07-.33-3.43-.37-3.68,1.23a2.07,2.07,0,0,0,.72,1.94,5.23,5.23,0,0,0,2.8,1l4.47.71-.43,2.63L196.24,547l.42-2.63Z"/><path d="M194.09,534.45l.42-2.62,8.37,1.34-3.7-4.59.53-3.28,4.31,5.31,6.26-4.18-.52,3.26-5.55,3.69,4.84.78-.42,2.62Z"/><path d="M196.15,522.73l.42-2.63,3.87.62.25-1.56,2.25.36-.25,1.57,8.24,1.32-.42,2.62-8.24-1.32-.21,1.34-2.25-.36.21-1.34Z"/><path d="M198.72,507.79l.44-2.71,9.89,1.59a5.53,5.53,0,0,1,3.24,1.29,3.33,3.33,0,0,1,.84,3,5.1,5.1,0,0,1-2.69,3.66l-1.51-2.23c.82-.53,1.43-1,1.55-1.8s-.38-.95-1.4-1.11Z"/><path d="M210.24,493.07a5.57,5.57,0,1,1-6.4,4.68A5.53,5.53,0,0,1,210.24,493.07Zm-1.34,8.35a2.89,2.89,0,1,0-2.57-3.31A2.88,2.88,0,0,0,208.9,501.42Z"/><path d="M206.94,488.65a2.48,2.48,0,0,1-1.25-2.47,2.54,2.54,0,0,1,.46-1.1l2.12,1.17a2,2,0,0,0-.34.74c-.12.75.66,1.48,2.19,1.78.57.11,1.22.22,1.79.31l4.25.68-.42,2.63-10.49-1.68.36-2.27Z"/><path d="M217,475c2,.32,3.33.93,4.16,2.3a5.85,5.85,0,0,1,.56,4c-.46,2.89-1.88,4.54-4.19,4.9l.47-2.9a3,3,0,0,0,1.29-2.28,3.35,3.35,0,0,0-.33-2.35c-.49-.73-1.2-.86-2.19-1a4.29,4.29,0,0,1,.8,3.39,5.17,5.17,0,0,1-6.2,4.18c-3.24-.52-5-3.1-4.59-5.76a4.67,4.67,0,0,1,1.95-3.09l-1.14-.19.42-2.62Zm-5.19,7.57a2.88,2.88,0,0,0,3.43-2.41,2.79,2.79,0,0,0-2.49-3.29,2.89,2.89,0,1,0-.94,5.7Z"/><path d="M218.45,462.42a5.69,5.69,0,1,1-9.51,3.46,5.46,5.46,0,0,1,6.59-4.66l.58.12-1.35,8.45a2.84,2.84,0,0,0,2.9-2.55,3.44,3.44,0,0,0-.61-2.78Zm-4.83,1.21a3.09,3.09,0,0,0-.92,5.71Z"/><path d="M211.94,455.81a4.72,4.72,0,0,1-.85-3.32,3.49,3.49,0,0,1,4.17-3l7.17,1.15-.42,2.63-5-.8c-2.07-.33-3.43-.36-3.68,1.24a2.08,2.08,0,0,0,.72,1.93,5.21,5.21,0,0,0,2.8,1l4.47.72-.42,2.62-10.49-1.68.42-2.63Z"/><path d="M218.63,445.27c-1.12,1.55-2.29,2.23-3.61,2a3.2,3.2,0,0,1-2.48-3.88,4.31,4.31,0,0,1,2.3-3.18l1.38,1.88a2.72,2.72,0,0,0-1.26,1.66c-.09.54.06,1,.48,1.05s.63-.28,1-.81l.65-.89c1.16-1.59,2.22-2.37,3.78-2.12,1.88.3,3,2,2.68,4.29a4.5,4.5,0,0,1-2.39,3.39l-1.52-1.9a3.35,3.35,0,0,0,1.58-2c.1-.65-.19-1.23-.66-1.3s-.86.31-1.36,1Z"/><path d="M221.24,431.88c1.33-.46,2.08-1.11,2.23-2.06a1.53,1.53,0,0,0-1.06-1.85,2.24,2.24,0,0,0-1.72.66c-2.94,2.55-4.57,4.07-6.58,3.75a3.78,3.78,0,0,1-3-4.47c.28-1.8,1.44-2.83,2.93-3.74l1.45,2.3c-1,.52-1.68,1.12-1.8,1.9a1.07,1.07,0,0,0,.79,1.36,1.77,1.77,0,0,0,1.4-.63c2.75-2.27,4.2-4.21,6.79-3.79,2.37.38,3.74,2.42,3.33,5-.33,2.07-1.57,3.35-3.81,4.07Z"/><path d="M219.59,412.69a5.62,5.62,0,0,1,8.27,5.81,5.27,5.27,0,0,1-1.32,2.78l1.21,1.47-1.25,1-1.19-1.49a5.34,5.34,0,0,1-3.83.76,5.56,5.56,0,0,1-4.67-6.31,6.1,6.1,0,0,1,1.51-3.07l-1.15-1.42,1.25-1Zm.34,3a3.06,3.06,0,0,0-.62,1.44,2.87,2.87,0,0,0,2.57,3.31,3.57,3.57,0,0,0,1.78-.14Zm5,3.62a3.09,3.09,0,0,0,.43-1.2,2.87,2.87,0,0,0-2.56-3.37,3.62,3.62,0,0,0-1.53.08Z"/><path d="M640.53,790.11h3.14c1.72,0,2.92.21,3.83,1.09a3.92,3.92,0,0,1,1.09,2.83,3.57,3.57,0,0,1-2.6,3.6l3.2,6h-2.8l-3-5.72h-.25v5.72h-2.58Zm2.58,5.29h1.19c1.16,0,1.77-.47,1.77-1.39s-.62-1.37-1.85-1.37h-1.11Z"/><path d="M657.93,802.58a4.16,4.16,0,0,1-3.09,1.32,5,5,0,0,1-4.76-5.26c0-3.12,2.11-5.27,4.71-5.27a4.27,4.27,0,0,1,3.14,1.36v-1.1h2.51v10h-2.51Zm-5.33-4a2.74,2.74,0,1,0,5.45,0,2.73,2.73,0,1,0-5.45,0Zm4.9-8.85a2,2,0,1,1-2-2A2,2,0,0,1,657.5,789.77Zm-2.81,0a.8.8,0,1,0,1.59,0,.8.8,0,0,0-1.59,0Z"/><path d="M670.36,802.58a4.16,4.16,0,0,1-3.08,1.32,5,5,0,0,1-4.77-5.26c0-3.12,2.11-5.27,4.71-5.27a4.27,4.27,0,0,1,3.14,1.36v-5h2.51v13.86h-2.51Zm-5.32-4a2.73,2.73,0,1,0,2.69-3A2.72,2.72,0,0,0,665,798.62Z"/><path d="M675.41,789.77h2.51v4.88a4.42,4.42,0,0,1,3-1.28A3.31,3.31,0,0,1,684.3,797v6.61h-2.5v-4.72c0-2-.25-3.24-1.72-3.24a2,2,0,0,0-1.69,1,4.79,4.79,0,0,0-.47,2.73v4.25h-2.51Z"/><path d="M686.71,793.63h2.51v5.22c0,1.79.56,2.73,1.88,2.73S693,800.66,693,799v-5.33h2.5v4.62c0,1.84-.11,3.2-1.17,4.37a4,4,0,0,1-3.22,1.26,3.94,3.94,0,0,1-4.29-3.56,11.4,11.4,0,0,1-.1-2.11Z"/><path d="M700,799.3c-1.6-.81-2.41-1.79-2.41-3a3,3,0,0,1,3.24-2.88,4.06,4.06,0,0,1,3.3,1.66l-1.55,1.56a2.53,2.53,0,0,0-1.73-.92c-.51,0-.9.2-.9.6s.35.55.9.83l.92.47c1.66.85,2.54,1.71,2.54,3.2,0,1.79-1.41,3.13-3.59,3.13a4.22,4.22,0,0,1-3.5-1.72l1.54-1.69a3.12,3.12,0,0,0,2.09,1.17c.62,0,1.11-.36,1.11-.82s-.41-.75-1.11-1.1Z"/><path d="M708.79,794.73a4.27,4.27,0,0,1,3.14-1.36c2.58,0,4.73,2.15,4.73,5.27a5,5,0,0,1-4.78,5.26,4.2,4.2,0,0,1-3.09-1.32v4.71h-2.51V793.63h2.51Zm-.12,3.87a2.75,2.75,0,1,0,5.47,0,2.74,2.74,0,1,0-5.47,0Z"/><path d="M718.47,789.77H721v13.86h-2.5Z"/><path d="M730.64,802.58a4.2,4.2,0,0,1-3.09,1.32,5,5,0,0,1-4.77-5.26c0-3.12,2.11-5.27,4.71-5.27a4.29,4.29,0,0,1,3.15,1.36v-1.1h2.5v10h-2.5Zm-5.33-4a2.73,2.73,0,1,0,2.69-3A2.72,2.72,0,0,0,725.31,798.62Z"/><path d="M743.07,802.58A4.2,4.2,0,0,1,740,803.9a5,5,0,0,1-4.77-5.26c0-3.12,2.11-5.27,4.71-5.27a4.29,4.29,0,0,1,3.15,1.36v-5h2.5v13.86h-2.5Zm-5.33-4a2.73,2.73,0,1,0,2.69-3A2.72,2.72,0,0,0,737.74,798.62Z"/><path d="M750.09,799.3c-1.6-.81-2.41-1.79-2.41-3a3,3,0,0,1,3.24-2.88,4.06,4.06,0,0,1,3.3,1.66l-1.55,1.56a2.53,2.53,0,0,0-1.73-.92c-.51,0-.9.2-.9.6s.36.55.9.83l.92.47c1.66.85,2.55,1.71,2.55,3.2,0,1.79-1.42,3.13-3.6,3.13a4.22,4.22,0,0,1-3.5-1.72l1.54-1.69a3.12,3.12,0,0,0,2.09,1.17c.62,0,1.11-.36,1.11-.82s-.41-.75-1.11-1.1Z"/><path d="M765.76,801.69a5.36,5.36,0,1,1-4.63-8.32,5.13,5.13,0,0,1,5.31,5.42c0,.23,0,.34,0,.57h-8.06a2.69,2.69,0,0,0,2.81,2.32,3.22,3.22,0,0,0,2.48-1Zm-1.84-4.31a2.91,2.91,0,0,0-5.44,0Z"/><path d="M770.94,794.65a4.46,4.46,0,0,1,3-1.28,3.3,3.3,0,0,1,3.43,3.43v6.83h-2.51v-4.72c0-2-.17-3.24-1.69-3.24a2,2,0,0,0-1.7,1,4.89,4.89,0,0,0-.49,2.75v4.25h-2.5v-10h2.5Z"/><path d="M831.67,628.84h2.63l6.16,9.44v-9.44h2.74V643.2h-2.64l-6.15-9.42v9.42h-2.74Z"/><path d="M845,632.58h2.73l2.76,6.66,3.06-6.66h2.74l-6.68,14.5h-2.75l2.19-4.68Z"/><path d="M858.09,628.66h2.66v3.92h1.58v2.28h-1.58v8.34h-2.66v-8.34h-1.36v-2.28h1.36Z"/><path d="M874.42,637.88a5.58,5.58,0,1,1-5.64-5.58A5.53,5.53,0,0,1,874.42,637.88Zm-8.46,0a2.83,2.83,0,0,0,2.86,3.08,3.08,3.08,0,1,0-2.86-3.08Z"/><path d="M878.25,633.92a2.42,2.42,0,0,1,3.41-1.34l-.83,2.28a1.83,1.83,0,0,0-.78-.22c-.76,0-1.36.88-1.42,2.44,0,.58,0,1.24,0,1.82v4.3H876V632.58h2.3Z"/><path d="M881.83,632.58h2.72l2.69,6.26,2.67-6.26h2.71l-4.53,10.62h-1.72Z"/><path d="M784.07,21.21V6.85h2.62a7.15,7.15,0,0,1,3.63.7,3.46,3.46,0,0,1,1.72,3,3.35,3.35,0,0,1-1.5,2.76,3.84,3.84,0,0,1,2.52,3.7,3.88,3.88,0,0,1-1.24,3,4.44,4.44,0,0,1-3.47,1.24Zm2.74-11.76v3h.6c1.28,0,1.94-.56,1.94-1.56s-.61-1.46-1.84-1.46Zm0,5.46v3.7h.93c1.72,0,2.64-.48,2.64-1.7s-1-2-2.88-2Z"/><path d="M806,15.89a5.58,5.58,0,1,1-5.65-5.58A5.54,5.54,0,0,1,806,15.89Zm-8.47,0A2.83,2.83,0,0,0,800.41,19a2.87,2.87,0,0,0,2.92-3.06,2.9,2.9,0,1,0-5.78,0Z"/><path d="M808.49,6.67h2.66v3.92h1.59v2.28h-1.59v8.34h-2.66V12.87h-1.36V10.59h1.36Z"/><path d="M822,20.09a4.46,4.46,0,0,1-3.29,1.41,5.29,5.29,0,0,1-5.06-5.59c0-3.32,2.24-5.6,5-5.6A4.58,4.58,0,0,1,822,11.75V10.59h2.66V21.21H822Zm-5.67-4.2a2.91,2.91,0,1,0,5.79,0,2.9,2.9,0,1,0-5.79,0Z"/><path d="M830,11.67a4.73,4.73,0,0,1,3.14-1.36A3.5,3.5,0,0,1,836.82,14v7.26h-2.67v-5c0-2.1-.18-3.44-1.8-3.44a2.09,2.09,0,0,0-1.8,1,5.21,5.21,0,0,0-.52,2.92v4.52h-2.66V10.59H830Z"/><path d="M842.13,8a1.7,1.7,0,0,1-1.7,1.7,1.77,1.77,0,0,1-1.7-1.84,1.66,1.66,0,0,1,1.7-1.62A1.72,1.72,0,0,1,842.13,8Zm-3,2.62h2.66V21.21h-2.66Z"/><path d="M846.29,16.61c-1.7-.86-2.56-1.9-2.56-3.24a3.2,3.2,0,0,1,3.44-3.06,4.32,4.32,0,0,1,3.5,1.76L849,13.73a2.73,2.73,0,0,0-1.84-1c-.54,0-1,.22-1,.64s.38.58,1,.88l1,.5c1.76.9,2.7,1.82,2.7,3.4,0,1.9-1.5,3.33-3.82,3.33a4.51,4.51,0,0,1-3.72-1.82L845,17.87a3.33,3.33,0,0,0,2.22,1.24c.66,0,1.18-.38,1.18-.86s-.44-.8-1.18-1.18Z"/><path d="M853,6.49h2.66V15l3.94-4.38h3.32l-4.56,5.1,5.12,5.52h-3.3l-4.52-4.9v4.9H853Z"/><path d="M870.49,6.85h2.74v5.4h4.84V6.85h2.74V21.21h-2.74V14.93h-4.84v6.28h-2.74Z"/><path d="M891.63,20.09a4.42,4.42,0,0,1-3.28,1.41,5.29,5.29,0,0,1-5.06-5.59c0-3.32,2.24-5.6,5-5.6a4.56,4.56,0,0,1,3.34,1.44V10.59h2.66V21.21h-2.66ZM886,15.89a2.9,2.9,0,1,0,5.78,0,2.9,2.9,0,1,0-5.78,0Z"/><path d="M895.83,10.59h2.72l2.68,6.26,2.68-6.26h2.7l-4.52,10.62h-1.72Z"/><path d="M918.13,19.15a5.78,5.78,0,0,1-10.44-3.26,5.58,5.58,0,1,1,11.16.18c0,.24,0,.36,0,.6h-8.56a2.84,2.84,0,0,0,3,2.46,3.44,3.44,0,0,0,2.64-1Zm-2-4.58a3.09,3.09,0,0,0-5.78,0Z"/><path d="M1307.45,715.2h2v4H1313v-4h2v10.55h-2v-4.61h-3.55v4.61h-2Z"/><path d="M1325,721.84a4.1,4.1,0,1,1-4.15-4.1A4.07,4.07,0,0,1,1325,721.84Zm-6.22,0a2.08,2.08,0,0,0,2.1,2.26,2.26,2.26,0,1,0-2.1-2.26Z"/><path d="M1326.41,714.94h2v10.81h-2Z"/><path d="M1337.09,725.75h-1.95V722c0-1.51-.29-2.44-1.38-2.44s-1.68.8-1.68,2.4v3.82h-1.95V718h1.95v.89a3.29,3.29,0,0,1,2.44-1.1,2.45,2.45,0,0,1,2.28,1.4,3.08,3.08,0,0,1,2.62-1.4,2.64,2.64,0,0,1,2.08.91,3.89,3.89,0,0,1,.58,2.53v4.57h-2v-4.31c0-1.27-.46-1.91-1.34-1.91s-1.69.77-1.69,2.37Z"/><path d="M1351.26,724.24a4.41,4.41,0,1,1,.53-2.27c0,.18,0,.27,0,.45h-6.29a2.08,2.08,0,0,0,2.19,1.8,2.51,2.51,0,0,0,1.94-.76Zm-1.44-3.37a2.27,2.27,0,0,0-4.25,0Z"/><path d="M1355.3,718.74a3.48,3.48,0,0,1,2.3-1,2.57,2.57,0,0,1,2.68,2.68v5.33h-2v-3.69c0-1.54-.13-2.53-1.32-2.53a1.55,1.55,0,0,0-1.32.75,3.83,3.83,0,0,0-.38,2.15v3.32h-2V718h2Z"/><path d="M1363.71,722.37c-1.24-.63-1.88-1.39-1.88-2.38a2.35,2.35,0,0,1,2.53-2.25,3.17,3.17,0,0,1,2.57,1.3l-1.2,1.22a2,2,0,0,0-1.35-.73c-.4,0-.71.17-.71.48s.28.42.71.64l.72.37c1.29.66,2,1.34,2,2.5a2.53,2.53,0,0,1-2.81,2.44,3.3,3.3,0,0,1-2.73-1.34l1.21-1.32a2.42,2.42,0,0,0,1.63.91c.48,0,.86-.28.86-.63s-.32-.59-.86-.87Z"/><path d="M1373,715.2h2v3.63l2.86-3.63h2.43l-3.71,4.7,4.06,5.85h-2.38l-3.26-4.69v4.69h-2Z"/><path d="M1383.87,716a1.25,1.25,0,0,1-1.25,1.25,1.3,1.3,0,0,1-1.25-1.35,1.22,1.22,0,0,1,1.25-1.19A1.27,1.27,0,0,1,1383.87,716Zm-2.22,1.93h2v7.8h-2Z"/><path d="M1386.6,718.93a1.82,1.82,0,0,1,1.65-1.19,1.8,1.8,0,0,1,.85.21l-.6,1.67a1.46,1.46,0,0,0-.57-.16c-.56,0-1,.65-1,1.8,0,.42,0,.91,0,1.33v3.16h-2V718h1.69Z"/><path d="M1390.08,714.94h2v6.23l2.89-3.22h2.44l-3.35,3.74,3.77,4.06h-2.43l-3.32-3.6v3.6h-2Z"/><path d="M1405.91,724.24a4.41,4.41,0,1,1,.53-2.27c0,.18,0,.27,0,.45h-6.29a2.09,2.09,0,0,0,2.19,1.8,2.51,2.51,0,0,0,1.94-.76Zm-1.44-3.37a2.27,2.27,0,0,0-4.25,0Z"/><path d="M987.39,118.09a5.19,5.19,0,0,1-2.68,2.82,4.66,4.66,0,0,1-4.16-.11,5.29,5.29,0,1,1,4.47-9.59,5.48,5.48,0,0,1,3.14,3.57l-1.79.63a4,4,0,0,0-2.12-2.53,3.4,3.4,0,0,0-4.61,1.6,3.51,3.51,0,0,0,1.77,4.7,2.78,2.78,0,0,0,3.24-.37L982,117.56l.78-1.65Z"/><path d="M995,123.21a3.91,3.91,0,1,1-1.9-5.24A3.88,3.88,0,0,1,995,123.21Zm-5.37-2.54a2,2,0,0,0,.89,2.81,2.16,2.16,0,1,0-.89-2.81Z"/><path d="M999.31,118.1l1.69.8-1.17,2.49,1,.47-.69,1.45-1-.47-2.51,5.29-1.69-.8,2.51-5.29-.86-.41.68-1.45.87.41Z"/><path d="M1003,119.7l1.69.8-1.56,3.29a3.25,3.25,0,0,1,2.41.08,2.47,2.47,0,0,1,1.14,3.56l-2.11,4.45-1.69-.79,1.51-3.19c.65-1.38.87-2.27-.12-2.74a1.5,1.5,0,0,0-1.46.12,3.67,3.67,0,0,0-1.18,1.7l-1.36,2.87-1.69-.8Z"/><path d="M1013.12,134.33a4.07,4.07,0,0,1-5.65-5.21,3.92,3.92,0,1,1,7,3.47c-.07.16-.12.23-.2.38l-5.43-2.57a2,2,0,0,0,1.15,2.45,2.41,2.41,0,0,0,2,.14Zm.14-3.49a2.18,2.18,0,0,0-3.68-1.74Z"/><path d="M1018.17,131.1a1.69,1.69,0,0,1,2.56.18l-1.21,1.2a1.24,1.24,0,0,0-.43-.38c-.48-.22-1.12.16-1.63,1.13-.19.36-.38.78-.56,1.15l-1.29,2.73-1.69-.8,3.19-6.75,1.46.7Z"/><path d="M1021.11,136.13c-.82-1-1.06-2-.65-2.82a2.23,2.23,0,0,1,3.1-.91,3,3,0,0,1,1.69,2.17l-1.54.56a1.93,1.93,0,0,0-.87-1.18c-.34-.16-.68-.15-.8.12s.07.48.34.85l.48.61c.84,1.1,1.16,2,.69,3a2.41,2.41,0,0,1-3.43,1,3.14,3.14,0,0,1-1.81-2.27l1.58-.65a2.33,2.33,0,0,0,1,1.45.73.73,0,0,0,1-.19c.14-.29,0-.64-.4-1.1Z"/><path d="M1031.11,143.26a3.73,3.73,0,0,1-2.37,2.36,4.14,4.14,0,0,1-2.81-.41c-1.85-.88-2.69-2.16-2.48-3.79l1.86.89a2.14,2.14,0,0,0,1.29,1.32,2.36,2.36,0,0,0,1.65.23c.58-.18.81-.64,1.11-1.27a3,3,0,0,1-2.44-.13,3.63,3.63,0,0,1-1.6-5,3.57,3.57,0,0,1,4.79-2,3.35,3.35,0,0,1,1.7,1.93l.35-.74,1.69.8Zm-4.09-5a2,2,0,0,0,1,2.78,2,2,0,0,0,2.71-1,2,2,0,1,0-3.66-1.74Z"/><path d="M1037.69,146.68a3.14,3.14,0,0,1-2.51-.09,3.73,3.73,0,0,1-1.53-5.07,3.64,3.64,0,0,1,4.86-2.05,3.24,3.24,0,0,1,1.69,1.91l.34-.73,1.69.8-3.19,6.74-1.69-.8Zm-2.33-4.37a2,2,0,1,0,2.76-1.13A2,2,0,0,0,1035.36,142.31Z"/><path d="M1046.08,150.65a3.09,3.09,0,0,1-2.51-.1,3.71,3.71,0,0,1-1.53-5.06,3.64,3.64,0,0,1,4.85-2.06,3.19,3.19,0,0,1,1.69,1.92l1.58-3.34,1.69.8-4.42,9.35-1.69-.8Zm-2.34-4.37a2,2,0,1,0,3.68,1.73,2,2,0,1,0-3.68-1.73Z"/><path d="M1056.08,154.65a4.21,4.21,0,1,1,1.38-1.74c-.07.15-.12.22-.19.38l-5.44-2.58a2,2,0,0,0,1.16,2.46,2.41,2.41,0,0,0,2,.13Zm.13-3.5A2,2,0,0,0,1055,149a2,2,0,0,0-2.42.41Z"/><path class="cls-2" d="M653,576.43l.16.94-.05,0a34.64,34.64,0,0,0,3.3,9.88c.41.81.86,1.58,1.32,2.35a189.71,189.71,0,0,0,32.15-13.57,191.78,191.78,0,0,0,28.59-18c-.36-.86-.74-1.72-1.17-2.57a34.45,34.45,0,0,0-6.3-8.7h0l-.39-.4a34,34,0,0,0-39.45-5.82,34.78,34.78,0,0,0-18.39,34.17Q652.9,575.64,653,576.43Z"/><path class="cls-2" d="M693.49,586.71a277.74,277.74,0,0,1-27.14,12.45,33.93,33.93,0,0,0,36.24,3.05,34.73,34.73,0,0,0,18.53-32A273.71,273.71,0,0,1,693.49,586.71Z"/><path class="cls-2" d="M746.3,539.44c-2.61-5.17-17.07-3.28-36.4,3.82.55.5,1.09,1,1.61,1.54,10.73-3.39,18.32-4,19.82-1,2.71,5.37-15.48,20.43-40.64,33.65S642.94,597,640.22,591.63c-1.44-2.85,3-8.43,11.27-15-.16-.92-.27-1.85-.36-2.77-18,12.42-28.7,23.92-26,29.27,3.9,7.71,34.18-.3,67.64-17.88S750.2,547.14,746.3,539.44Z"/><path d="M619.08,564.36h9.65v3.25h-3.21V581.8h-3.33V567.61h-3.11Z"/><path d="M630.67,563.92h3.23v6.29a5.72,5.72,0,0,1,3.82-1.65c2.43,0,4.42,1.58,4.42,4.71v8.53h-3.23v-6.1c0-2.62-.32-4.18-2.21-4.18a2.57,2.57,0,0,0-2.19,1.27,6.16,6.16,0,0,0-.61,3.52v5.49h-3.23Z"/><path d="M647.27,570.53a3,3,0,0,1,2.72-2,3.14,3.14,0,0,1,1.41.34l-1,2.77a2.3,2.3,0,0,0-.95-.27c-.92,0-1.65,1.07-1.72,3,0,.7,0,1.5,0,2.21v5.22h-3.24V568.9h2.8Z"/><path d="M656.36,565.72a2.07,2.07,0,0,1-2.07,2.06,2.14,2.14,0,0,1-2.06-2.23,2,2,0,0,1,2.06-2A2.1,2.1,0,0,1,656.36,565.72Zm-3.67,3.18h3.23v12.9h-3.23Z"/><path d="M657.38,568.9h1.16c0-2.89-.26-5.32,3.14-5.32A6.2,6.2,0,0,1,664,564v2.48a4,4,0,0,0-1.17-.22c-1.26,0-1,.66-1,2.6h2.05v2.75h-2.05V581.8h-3.23V571.65h-1.16Z"/><path d="M666,564.14h3.23v4.76h1.92v2.77h-1.92V581.8H666V571.67h-1.65V568.9H666Z"/><path d="M680.07,564.36h4.06c2.26,0,3.84.34,4.93,1.41a5.1,5.1,0,0,1,1.41,3.64,4.54,4.54,0,0,1-2.21,4.13c-1.48.9-3,.88-4.86.88v7.38h-3.33Zm3.33,6.82H685c1.5,0,2.25-.58,2.25-1.77s-.82-1.8-2.4-1.8H683.4Z"/><path d="M693,563.92h3.23V581.8H693Z"/><path d="M708.72,580.44a5.36,5.36,0,0,1-4,1.7c-3.28,0-6.14-2.82-6.14-6.78s2.72-6.8,6.07-6.8a5.53,5.53,0,0,1,4.06,1.75V568.9H712v12.9h-3.23Zm-6.88-5.1a3.53,3.53,0,1,0,7,0,3.52,3.52,0,1,0-7,0Z"/><path d="M718.44,570.21a5.76,5.76,0,0,1,3.81-1.65,4.24,4.24,0,0,1,4.42,4.42v8.82h-3.23v-6.1c0-2.55-.22-4.18-2.18-4.18a2.54,2.54,0,0,0-2.19,1.24,6.31,6.31,0,0,0-.63,3.55v5.49h-3.23V568.9h3.23Z"/><path d="M741.88,579.3a6.92,6.92,0,1,1-6-10.74,6.62,6.62,0,0,1,6.85,7c0,.29,0,.43,0,.73h-10.4a3.44,3.44,0,0,0,3.62,3,4.18,4.18,0,0,0,3.2-1.26Zm-2.38-5.57a3.48,3.48,0,0,0-3.54-2.42,3.53,3.53,0,0,0-3.48,2.42Z"/><path d="M745.73,564.14H749v4.76h1.92v2.77H749V581.8h-3.23V571.67h-1.65V568.9h1.65Z"/></svg>
