<svg id="Layer_1" data-name="Layer 1" xmlns="http://www.w3.org/2000/svg" viewBox="0 0 1440 863"><defs><style>.cls-1{fill:#fff;}.cls-2{fill:#d4e49d;}</style></defs><path class="cls-1" d="M465.5,553.5l60,120s178-99.22,194.5-116.11L676.5,478.5S538.5,533.5,465.5,553.5Z"/><path class="cls-1" d="M727.5,569.5s-149,99-188,115v7.58l16,27.42,96,120,47-36s75-95,98-103C796.5,700.5,773.5,643.5,727.5,569.5Z"/><path class="cls-1" d="M686,471l43,79S911,421,961,421c0,0-13-54-31-75C930,346,858,371,686,471Z"/><path class="cls-1" d="M737,561l74,130,52-37s65-42,141-82l-24-98-34,11-13.63-37S858,474,737,561Z"/><path class="cls-1" d="M945,441l25-7,9,27-18,9s-4.86,5-7.93,0S945,441,945,441Z"/><path class="cls-1" d="M670.17,863,663,857s54-46,65-57,56-80,85-92l75,54L764.3,863"/><polyline class="cls-1" points="783.31 863 900 775 1002 855 994.89 863"/><path class="cls-1" d="M552,860l49-27-51-66s-23-28-31-47l-38,22Z"/><path class="cls-1" d="M823.5,700.59S912,635,927,636s72.8,32.29,72.8,32.29L898,755Z"/><path class="cls-1" d="M1009,683l-97.35,79.37L1002,839.5s2,5.5,15,3.5,64-31,64-31Z"/><path class="cls-1" d="M1026.79,863l-1.79-9,59-27,21,33,17-13-17-25-12,4s-5-14,7-28,34-29,34-29l54.08,94"/><path class="cls-1" d="M441,573l65,116-39,22s-6,6-12-8-57-95-57-95a10,10,0,0,1-2-10C398,592,441,573,441,573Z"/><polygon class="cls-1" points="583 318 456 494 463 543 668 466.67 583 318"/><path class="cls-1" d="M694,177c30,28,84,234,84,234l-99,45L597,307Z"/><path class="cls-1" d="M705,149,820,1h68.38S900,95,897,133s-8,111.81.5,126.91S922,328,922,328L793,403S740,196,705,149Z"/><polyline class="cls-1" points="296.34 863 415 781 465.5 863"/><path class="cls-1" d="M1157.79,769,1174,790l29,62s54-23,83-61l-56-75-32,22Z"/><path class="cls-1" d="M1210.66,863S1281,822,1296,801l57,54-7.3,8"/><path class="cls-1" d="M1440,776.52c-43,33.53-74,78.48-74,78.48l8.32,8h42.43L1440,832"/><polygon class="cls-1" points="1440 853.98 1432.92 863 1440 863 1440 853.98"/><path class="cls-1" d="M1428,696s-35,22-47,31-72,65-72,65l49,51s30-44,38-47,44-31.26,44-31.26V728Z"/><polygon class="cls-1" points="1238 706 1298 781 1368 724 1298 660 1238 706"/><path class="cls-1" d="M1071,643l82-52,22,39,18.15,30,28.74,42.44L1151,757S1068,648,1071,643Z"/><path class="cls-1" d="M1231.88,695.49,1290,651s-51-60-56-75-15-27-15-27-35,17-53,29Z"/><polygon class="cls-1" points="1019 573 1104 520 1146.41 565.38 1057 624 1019 573"/><path class="cls-1" d="M1236,545l54,6.24,44,3.76,30-2,66,124s-47,41-54,39-73-65.76-73-65.76S1230,554,1236,545Z"/><polyline class="cls-1" points="1440 547.24 1377 553 1435 667 1440 669.37"/><path class="cls-1" d="M1221.89,385.87,1166,462.19,1116,509l34.28,40L1205,535l43-5,46,6,52,1S1233.79,387.74,1221.89,385.87Z"/><polygon class="cls-1" points="1317 245 1290 280.31 1309 322 1371 301 1317 245"/><path class="cls-1" d="M1273,306l-42,61.54L1262.78,413,1312,372S1278,304,1273,306Z"/><path class="cls-1" d="M1392,325l-120.5,96.06S1340,495,1336,497s6,11,6,11l13-6,6,9-7.53,9,6.53,12,28-4-33-65-7-15,92-64.11V367.54Z"/><polyline class="cls-1" points="1440 271.39 1405 315 1405 322 1440 350.19"/><polyline class="cls-1" points="1440 173.76 1390 152 1352 196 1325 235 1392 303 1440 255.04"/><polyline class="cls-1" points="1440 155.42 1365 121 1402.5 69.69 1408.48 69.69 1422.5 53.83 1432 58 1440 50.36"/><path class="cls-1" d="M996,492l14,62,77-39,61.25-47.56s.1-18.44-9.58-19.44S1032,483,1032,483Z"/><polygon class="cls-1" points="1201 274 1237.59 325 1165 443 1116 330.88 1152.81 322 1201 274"/><path class="cls-1" d="M918.06,245S915,256,933,308s29,68.46,29,68.46l17-4.1S922.08,263,928.54,245,918.06,245,918.06,245Z"/><polygon class="cls-1" points="945 293.5 950.88 306.73 996 297.6 994.18 283.5 945 293.5"/><polygon class="cls-1" points="951.33 237 965.92 283.5 1033 263 1018 215 951.33 237"/><polygon class="cls-1" points="1000 299 1014 335 979 350.93 985 369 1082 332 1074 314 1038 327 1022 288 1000 299"/><polygon class="cls-1" points="1053 262 1036 207 1060 198 1091.72 295.12 1068.93 305.96 1060.27 288 1036 295.12 1027.45 274 1053 262"/><polyline class="cls-1" points="1074 301 1087.62 328.5 1099.47 325 1086.74 295.12"/><path class="cls-1" d="M1340,121s-92,108-125,137l29.88,53.81L1382.5,145.36Z"/><path class="cls-1" d="M1114,316l-40-125.51L1198,141l84-51,48.5,26.64L1205,255S1159,309,1114,316Z"/><polygon class="cls-1" points="1325 74.25 1350.17 90 1395 42 1395 15.91 1371 22.74 1325 74.25"/><polygon class="cls-1" points="1371 0.86 1284 72 1256 47 1234.4 0.86 1371 0.86"/><polygon class="cls-1" points="1148.7 0.86 1198.84 121 1264 83 1247.62 60.93 1219.35 0.86 1148.7 0.86"/><polygon class="cls-1" points="1399.4 0.86 1395 7.7 1413 20 1422.5 10.43 1422.5 0.86 1399.4 0.86"/><polygon class="cls-1" points="1001 1 1068 175 1189 131 1133.66 0.86 1001 1"/><path class="cls-1" d="M900,1l10,85,5,139s85-12,137-41c0,0-44-161-67-183Z"/><polyline class="cls-1" points="1440 400.52 1371 445.48 1405 522.2 1440 522.2"/><polygon class="cls-1" points="983.53 413 987 421 979 425.27 983 445.89 996 445.89 1001 459 1097 425 1082 379.07 983.53 413"/><circle class="cls-1" cx="1092" cy="401" r="20"/><circle class="cls-1" cx="1325.5" cy="92.5" r="12.5"/><path class="cls-1" d="M243.94,863,200,775s55-128,83-160c0,0,15,14,27-2l93,140-59,46-10.86-18,.86-9-27-46-5.5,3.14L321,773l1,24,14,19-58.38,47"/><polyline class="cls-1" points="175.14 863 183 825 197.91 825 207.88 863"/><polyline class="cls-1" points="148.1 863 172 776 124 742 88.79 863"/><polygon class="cls-1" points="43.24 863 67.44 738 0 724.87 0 863 43.24 863"/><path class="cls-1" d="M0,676l74,15s38.67-157,60.34-212.5L26,456,0,597.71Z"/><polygon class="cls-1" points="13 423 139 442 154 405 113 333 38 283 13 423"/><polygon class="cls-1" points="0 388.95 18 262 0 242.34 0 388.95"/><polygon class="cls-1" points="205 301 271 143 144 57 69 173 119 240 205 301"/><polygon class="cls-1" points="0 144.13 41 170 118 48 0 2.74 0 144.13"/><polygon class="cls-1" points="63 0 139 27 156.16 0 63 0"/><polygon class="cls-1" points="180.36 0 156.16 35 276 117 324.12 13.5 307.52 0 180.36 0"/><path class="cls-1" d="M196,438s-46.21,75-65.61,156L160,608l87-95Z"/><polygon class="cls-1" points="231.8 362.5 247 353.27 286 410 271 421.48 231.8 362.5"/><polygon class="cls-1" points="292.24 387.37 305 377 340 427 326 434 292.24 387.37"/><polygon class="cls-1" points="375.18 0 254.16 306.73 411.19 430.5 686 76.12 687.5 42.26 720 0 375.18 0"/><path d="M247.25,423.71l1.88,2.83-5.58,3.72,3.33,5,5.58-3.72,1.89,2.83-14.84,9.89-1.89-2.83,6.49-4.33-3.33-5-6.49,4.32-1.89-2.83Z"/><path d="M244.9,449.54a1.89,1.89,0,0,1-2.64-.51,1.92,1.92,0,0,1,.53-2.65,1.9,1.9,0,0,1,2.11,3.16Z"/><path d="M261,471.14c-3.23-.68-5.29-1.75-7.15-4.54a9,9,0,0,1,2.58-13.07,9.2,9.2,0,0,1,13,2.72,10.29,10.29,0,0,1,1.33,8.46l-3.22-.72a7.35,7.35,0,0,0-.86-6,6,6,0,0,0-8.44-1.69,5.9,5.9,0,0,0-1.69,8.53c1.22,1.84,2.79,2.59,5.14,3.06Z"/><path d="M263.35,477.24a1.89,1.89,0,0,1-2.64-.51,1.93,1.93,0,0,1,.54-2.65,1.9,1.9,0,0,1,2.1,3.16Z"/><path d="M285.78,481.56l1.9,2.85-11,15.62-2-2.94,2.29-3.2-4-6.05-3.87.81-1.95-2.93Zm-3,4.06-6.39,1.43L279,491Z"/><path d="M289.59,498.09a5.87,5.87,0,0,1,3.57,2.31,4.34,4.34,0,0,1-1.26,6.27l-7.5,5-1.83-2.75,5.19-3.46c2.17-1.45,3.43-2.56,2.31-4.23a2.58,2.58,0,0,0-2.29-1.16,6.6,6.6,0,0,0-3.38,1.47l-4.67,3.12-1.83-2.75,11-7.32,1.83,2.75Z"/><path d="M292.73,521.67a5.49,5.49,0,0,1-3.7-2.43c-1.86-2.79-1.09-6.83,2.28-9.07s7.33-1.54,9.23,1.31a5.67,5.67,0,0,1,.81,4.44l5.44-3.62,1.83,2.75L293.4,525.19l-1.83-2.75Zm.44-8.75a3.61,3.61,0,1,0,4,6,3.6,3.6,0,1,0-4-6Z"/><path d="M304.24,536.83A7.07,7.07,0,1,1,310,525.66a6.78,6.78,0,0,1-2.07,9.8c-.25.16-.39.22-.64.39L301.39,527a3.53,3.53,0,0,0-.49,4.78,4.29,4.29,0,0,0,2.89,2Zm3.38-5.18a3.55,3.55,0,0,0,.06-4.39,3.59,3.59,0,0,0-4-1.58Z"/><path d="M314.81,536.54a3.09,3.09,0,0,1,3.22,1.19,3.29,3.29,0,0,1,.51,1.4l-2.92.72a2.45,2.45,0,0,0-.31-1c-.53-.78-1.85-.8-3.5.21-.62.38-1.3.84-1.9,1.24l-4.44,3-1.83-2.75,11-7.32,1.59,2.38Z"/><path d="M314.68,546.83c-.28-2.35.21-4,1.59-4.88a4,4,0,0,1,5.53,1.45,5.36,5.36,0,0,1,.59,4.83l-2.84-.55a3.42,3.42,0,0,0-.26-2.58c-.37-.56-.88-.84-1.32-.55s-.34.79-.25,1.6l.16,1.35c.28,2.44,0,4-1.66,5.14-2,1.31-4.46.73-6.06-1.67a5.57,5.57,0,0,1-.68-5.1l3,.46a4.18,4.18,0,0,0,.25,3.15,1.3,1.3,0,0,0,1.7.63c.48-.32.52-1,.41-2Z"/><path d="M323.51,565.78a7.45,7.45,0,1,1,3.68-1.38c-.24.17-.38.23-.63.39L320.67,556a3.51,3.51,0,0,0-.49,4.77,4.23,4.23,0,0,0,2.89,2Zm3.39-5.18a3.84,3.84,0,0,0-4-6Z"/><path d="M335,566.31a5.84,5.84,0,0,1,3.56,2.31,4.34,4.34,0,0,1-1.25,6.27l-7.51,5L328,577.14l5.19-3.46c2.17-1.44,3.43-2.55,2.32-4.23a2.64,2.64,0,0,0-2.3-1.16,6.47,6.47,0,0,0-3.37,1.48l-4.68,3.11-1.83-2.75,11-7.31,1.83,2.75Z"/><path d="M337.82,581.56c-.28-2.35.2-3.95,1.59-4.88a4,4,0,0,1,5.53,1.45,5.39,5.39,0,0,1,.59,4.83l-2.85-.55a3.38,3.38,0,0,0-.25-2.58c-.37-.55-.89-.84-1.32-.55s-.34.79-.25,1.6l.15,1.36c.29,2.44,0,4-1.65,5.13-2,1.31-4.47.73-6.06-1.67a5.55,5.55,0,0,1-.68-5.09l3,.45a4.14,4.14,0,0,0,.24,3.15c.46.68,1.21,1,1.71.63s.52-1,.4-2Z"/><path d="M341.72,597.73l14.85-9.89,1.8,2.71a8.71,8.71,0,0,1,1.77,4.23,4.28,4.28,0,0,1-1.92,3.84,4.16,4.16,0,0,1-3.88.35,4.76,4.76,0,0,1-2.09,5.15,4.85,4.85,0,0,1-3.92.76,5.6,5.6,0,0,1-3.66-2.72Zm8.4-1.5-3.82,2.54.63,1c1.19,1.78,2.32,2.4,3.58,1.56s1.4-2.37.08-4.35Zm5.65-3.76-3.12,2.08.41.62c.88,1.32,1.91,1.62,2.95.93s1.08-1.65.24-2.91Z"/><path d="M364.54,599l1.83,2.75-15.21,10.13-1.83-2.75Z"/><path d="M363,605.88l1.88,2.82-4.63,7.08,8.32-1.55,1.85,2.8-14.09,2.64-1.18-1.78Z"/><path d="M367.09,633.3a5.44,5.44,0,0,1-3.7-2.42c-1.86-2.79-1.09-6.83,2.28-9.08s7.33-1.53,9.23,1.32a5.67,5.67,0,0,1,.81,4.44l5.44-3.62,1.83,2.75-15.22,10.14-1.83-2.75Zm.45-8.74a3.6,3.6,0,1,0,5.21.8A3.62,3.62,0,0,0,367.54,624.56Z"/><path d="M373,641.81a1.88,1.88,0,0,1-2.63-.51,1.92,1.92,0,0,1,.53-2.65,1.9,1.9,0,0,1,2.1,3.16Z"/><path d="M479.16,385.66l1.92-2.62,14,.75-9.46-6.93,2-2.74L502,384.65l-1.94,2.65-13.95-.76,9.44,6.91-2,2.75Z"/><path d="M502.44,365.55a7,7,0,0,1,5.86,11.09,6.62,6.62,0,0,1-3,2.34l.5,2.3-2,.44-.48-2.32a6.69,6.69,0,0,1-4.67-1.32,6.9,6.9,0,0,1-1.58-9.62,7.55,7.55,0,0,1,3.39-2.54L500,363.7l2-.41ZM501.13,369a3.65,3.65,0,0,0-1.49,1.25,3.56,3.56,0,0,0,1,5.11,4.58,4.58,0,0,0,2.05.85Zm3.49,6.84a3.82,3.82,0,0,0,1.17-1.09,3.57,3.57,0,0,0-.92-5.17,4.66,4.66,0,0,0-1.74-.78Z"/><path d="M505.81,360a3,3,0,0,1,1.15-4.39l1.68,2.49a2.28,2.28,0,0,0-.79.62c-.56.76-.12,2,1.4,3.21.57.45,1.23.93,1.81,1.36l4.31,3.15-2,2.67-10.64-7.79,1.68-2.31Z"/><path d="M510.5,353.53a3,3,0,0,1,1.15-4.39l1.69,2.49a2.32,2.32,0,0,0-.8.63c-.55.76-.11,2,1.41,3.21.56.44,1.23.93,1.81,1.35l4.31,3.16-2,2.66-10.65-7.79,1.69-2.3Z"/><path d="M528.39,344.28a7.2,7.2,0,0,1-10.93,8.07,6.94,6.94,0,1,1,8.37-11.06c.24.18.35.29.59.46l-6.28,8.58a3.53,3.53,0,0,0,4.65-1.18,4.29,4.29,0,0,0,.89-3.41Zm-6-1.4a3.83,3.83,0,0,0-4.24,5.79Z"/><path d="M521.67,327.59l2.07-2.82,12.86,3.87-7.52-11.17,2-2.8,10.59,15.72L539.8,333Z"/><path d="M548.22,310.33a6.92,6.92,0,1,1-9.73,1.56A6.88,6.88,0,0,1,548.22,310.33ZM542,318.81a3.52,3.52,0,0,0,5.19-.61,3.82,3.82,0,1,0-5.19.61Z"/><path d="M540.19,301.53l1.95-2.66,14.75,10.8-1.95,2.66Z"/><path d="M563.3,298.56a5.49,5.49,0,0,1-1,4.32c-2,2.7-6,3.36-9.3,1s-4-6.35-2-9.12a5.69,5.69,0,0,1,3.9-2.29l-5.27-3.86,2-2.66,14.75,10.8-2,2.66Zm-8.36,2.59a3.6,3.6,0,1,0-1.05-5.17A3.59,3.59,0,0,0,554.94,301.15Z"/><path d="M574.53,282.37c2.07,1.51,3.16,2.93,3.3,4.91a7.23,7.23,0,0,1-1.65,4.74c-2.14,2.92-4.64,4-7.4,3l2.16-2.94a3.7,3.7,0,0,0,2.72-1.79,4.16,4.16,0,0,0,1-2.78c-.13-1.08-.84-1.63-1.84-2.36a5.3,5.3,0,0,1-1,4.19c-2.1,2.87-6,3.44-9.21,1.11s-3.8-6.26-1.82-9a5.85,5.85,0,0,1,3.91-2.32l-1.16-.85,1.95-2.66Zm-10,5.45a3.57,3.57,0,0,0,5.15-.73,3.46,3.46,0,0,0-.89-5,3.59,3.59,0,1,0-4.26,5.78Z"/><path d="M582.66,272.1a5.48,5.48,0,0,1-1,4.32c-2,2.7-6,3.37-9.3,1s-4-6.36-2-9.12a5.67,5.67,0,0,1,3.89-2.3l-1.16-.85,2-2.66,10.65,7.79-2,2.66Zm-8.36,2.6a3.61,3.61,0,1,0,4.22-5.81,3.6,3.6,0,1,0-4.22,5.81Z"/><path d="M592.35,258.87a5.52,5.52,0,0,1-1,4.32c-2,2.7-6,3.37-9.31,1s-4-6.36-1.94-9.12a5.6,5.6,0,0,1,3.89-2.29l-5.27-3.86,1.95-2.67L595.42,257l-1.95,2.67Zm-8.36,2.6a3.6,3.6,0,1,0-1-5.18A3.64,3.64,0,0,0,584,261.47Z"/><path d="M602.63,242.85a7.07,7.07,0,1,1-12.47-1.55,6.76,6.76,0,0,1,9.91-1.43l.59.46-6.28,8.58a3.53,3.53,0,0,0,4.65-1.18,4.26,4.26,0,0,0,.89-3.41Zm-6-1.4a3.84,3.84,0,0,0-4.24,5.8Z"/><path d="M352.27,198.49a9.36,9.36,0,0,1-6.81,15.63,9.24,9.24,0,0,1-5.17-1.49l-2.08,2.46-1.52-1.29,2.06-2.46a9.41,9.41,0,0,1,6.66-15.93,9.06,9.06,0,0,1,5.37,1.74l2-2.28,1.54,1.26Zm-3.63,1.22a5.55,5.55,0,0,0-3.25-1,6.24,6.24,0,0,0-4.48,10.11Zm-6.16,10.36a6,6,0,0,0,3,.79,5.89,5.89,0,0,0,5.79-6.06,6.19,6.19,0,0,0-1.19-3.7Z"/><path d="M359.57,202.17a3,3,0,0,1,4.22-1.66l-1,2.83a2.21,2.21,0,0,0-1-.28c-.94,0-1.68,1.1-1.76,3,0,.73,0,1.54,0,2.27v5.34h-3.31V200.51h2.86Z"/><path d="M368.06,208c-2.11-1.07-3.18-2.36-3.18-4a4,4,0,0,1,4.28-3.8,5.36,5.36,0,0,1,4.34,2.18l-2,2.07a3.38,3.38,0,0,0-2.29-1.22c-.67,0-1.19.27-1.19.79s.47.72,1.19,1.1l1.22.62c2.18,1.12,3.35,2.26,3.35,4.22,0,2.36-1.86,4.12-4.74,4.12a5.57,5.57,0,0,1-4.62-2.26l2-2.23a4.16,4.16,0,0,0,2.76,1.54c.82,0,1.47-.47,1.47-1.07s-.55-1-1.47-1.47Z"/><path d="M376.76,195.64h3.3v4.87h2v2.83h-2V213.7h-3.3V203.34h-1.69v-2.83h1.69Z"/><path d="M396.18,211.14a7.07,7.07,0,1,1-6.11-11,6.77,6.77,0,0,1,7,7.15c0,.3,0,.45,0,.75H386.42a3.52,3.52,0,0,0,3.7,3.05,4.25,4.25,0,0,0,3.28-1.29Zm-2.43-5.69a3.83,3.83,0,0,0-7.18,0Z"/><path d="M409.47,212.31A5.47,5.47,0,0,1,405.4,214c-3.35,0-6.28-2.88-6.28-6.93s2.78-7,6.21-7a5.63,5.63,0,0,1,4.14,1.79v-6.54h3.31V213.7h-3.31Zm-7-5.22a3.6,3.6,0,1,0,3.56-3.9A3.63,3.63,0,0,0,402.44,207.09Z"/><path d="M418.74,208c-2.11-1.07-3.18-2.36-3.18-4a4,4,0,0,1,4.27-3.8,5.38,5.38,0,0,1,4.35,2.18l-2,2.07a3.36,3.36,0,0,0-2.28-1.22c-.67,0-1.2.27-1.2.79s.48.72,1.2,1.1l1.21.62c2.19,1.12,3.36,2.26,3.36,4.22,0,2.36-1.87,4.12-4.75,4.12a5.59,5.59,0,0,1-4.62-2.26l2-2.23a4.16,4.16,0,0,0,2.76,1.54c.82,0,1.46-.47,1.46-1.07s-.54-1-1.46-1.47Z"/><path d="M430.34,202a5.64,5.64,0,0,1,4.15-1.79c3.4,0,6.23,2.83,6.23,7s-3,6.93-6.31,6.93a5.52,5.52,0,0,1-4.07-1.73v6.21H427v-18h3.31Zm-.15,5.11a3.61,3.61,0,1,0,7.2,0,3.61,3.61,0,1,0-7.2,0Z"/><path d="M453.19,212.31a5.49,5.49,0,0,1-4.07,1.73c-3.36,0-6.29-2.88-6.29-6.93s2.79-7,6.21-7a5.64,5.64,0,0,1,4.15,1.79v-1.44h3.31V213.7h-3.31Zm-7-5.22a3.6,3.6,0,1,0,3.55-3.9A3.63,3.63,0,0,0,446.16,207.09Z"/><path d="M461.91,202.17a3,3,0,0,1,4.22-1.66l-1,2.83a2.25,2.25,0,0,0-1-.28c-.95,0-1.69,1.1-1.77,3,0,.73,0,1.54,0,2.27v5.34h-3.31V200.51h2.86Z"/><path d="M467.8,195.41h3.3V206l4.9-5.44h4.12l-5.66,6.33,6.35,6.86h-4.09l-5.62-6.09v6.09h-3.3Z"/><path d="M494.55,211.14a7.44,7.44,0,1,1,.9-3.83c0,.3,0,.45,0,.75H484.79a3.52,3.52,0,0,0,3.7,3.05,4.25,4.25,0,0,0,3.28-1.29Zm-2.43-5.69a3.83,3.83,0,0,0-7.18,0Z"/><path d="M501.38,201.85a5.88,5.88,0,0,1,3.9-1.69,4.34,4.34,0,0,1,4.52,4.52v9h-3.3v-6.24c0-2.61-.22-4.27-2.24-4.27a2.59,2.59,0,0,0-2.23,1.26,6.51,6.51,0,0,0-.65,3.63v5.62h-3.3V200.51h3.3Z"/><path d="M983.67,397.16h3.5l4.47,12.67,4.57-12.67h3.48L993.25,415H990Z"/><path d="M1013.28,408.39a6.92,6.92,0,1,1-7-6.93A6.88,6.88,0,0,1,1013.28,408.39Zm-10.51,0a3.52,3.52,0,0,0,3.55,3.83,3.82,3.82,0,1,0-3.55-3.83Z"/><path d="M1018.05,403.47a3,3,0,0,1,4.22-1.66l-1,2.83a2.39,2.39,0,0,0-1-.27c-.94,0-1.69,1.09-1.76,3,0,.72,0,1.54,0,2.26V415h-3.3V401.81h2.86Z"/><path d="M1031.31,397.16h8.84v3.33h-5.54v3.18h5.54V407h-5.54v8h-3.3Z"/><path d="M1044.87,403.47a3.09,3.09,0,0,1,2.79-2,3.14,3.14,0,0,1,1.44.35l-1,2.83a2.39,2.39,0,0,0-1-.27c-.95,0-1.69,1.09-1.77,3,0,.72,0,1.54,0,2.26V415H1042V401.81h2.85Z"/><path d="M1050.76,401.81h3.3v6.88c0,2.36.75,3.6,2.49,3.6s2.48-1.21,2.48-3.45v-7h3.31v6.09c0,2.43-.15,4.22-1.54,5.76a5.29,5.29,0,0,1-4.25,1.66c-3.18,0-5.14-1.61-5.67-4.69a15.15,15.15,0,0,1-.12-2.78Z"/><path d="M1078,412.44a7.44,7.44,0,1,1,.9-3.82c0,.29,0,.44,0,.74h-10.63a3.53,3.53,0,0,0,3.7,3.06,4.25,4.25,0,0,0,3.28-1.3Zm-2.43-5.69a3.84,3.84,0,0,0-7.18,0Z"/><path d="M1088.91,397.16h3.41v6.14l4.84-6.14h4.1l-6.26,7.95,6.86,9.89h-4l-5.51-7.92V415h-3.41Z"/><path d="M1107.32,398.55a2.11,2.11,0,0,1-2.11,2.12,2.2,2.2,0,0,1-2.11-2.29,2.06,2.06,0,0,1,2.11-2A2.14,2.14,0,0,1,1107.32,398.55Zm-3.75,3.26h3.3V415h-3.3Z"/><path d="M1111.94,403.47a3,3,0,0,1,4.22-1.66l-1,2.83a2.39,2.39,0,0,0-1-.27c-1,0-1.69,1.09-1.77,3,0,.72,0,1.54,0,2.26V415h-3.3V401.81h2.85Z"/><path d="M1117.83,396.72h3.3v10.53l4.9-5.44h4.12l-5.66,6.33,6.36,6.86h-4.1l-5.62-6.09V415h-3.3Z"/><path d="M1144.58,412.44a7.07,7.07,0,1,1-6.11-11,6.78,6.78,0,0,1,7,7.16c0,.29,0,.44,0,.74h-10.63a3.53,3.53,0,0,0,3.7,3.06,4.25,4.25,0,0,0,3.28-1.3Zm-2.43-5.69a3.84,3.84,0,0,0-7.18,0Z"/><path d="M1266.71,62.16h4.15c2.26,0,3.85.28,5.05,1.45a5.17,5.17,0,0,1,1.44,3.72,4.71,4.71,0,0,1-3.43,4.75l4.22,7.92h-3.7l-4-7.55h-.32V80h-3.41Zm3.41,7h1.56c1.54,0,2.34-.62,2.34-1.83s-.82-1.82-2.44-1.82h-1.46Z"/><path d="M1279.93,66.81h3.3v6.88c0,2.36.75,3.6,2.49,3.6s2.48-1.21,2.48-3.45v-7h3.3V72.9c0,2.43-.14,4.22-1.54,5.76a5.26,5.26,0,0,1-4.24,1.66c-3.18,0-5.15-1.61-5.67-4.69a15.15,15.15,0,0,1-.12-2.78Z"/><path d="M1298.11,68.15a5.88,5.88,0,0,1,3.9-1.69,4.34,4.34,0,0,1,4.52,4.52v9h-3.3V73.77c0-2.61-.22-4.28-2.24-4.28a2.58,2.58,0,0,0-2.23,1.27,6.49,6.49,0,0,0-.65,3.63V80h-3.3V66.81h3.3Z"/><path d="M1319.47,78.61a5.46,5.46,0,0,1-4.07,1.74c-3.35,0-6.28-2.88-6.28-6.93s2.78-7,6.21-7a5.65,5.65,0,0,1,4.14,1.79V61.72h3.31V80h-3.31Zm-7-5.22a3.61,3.61,0,1,0,7.18,0,3.6,3.6,0,1,0-7.18,0Z"/><path d="M1338.48,77.44a7.45,7.45,0,1,1,.89-3.82c0,.29,0,.44,0,.74h-10.64a3.55,3.55,0,0,0,3.71,3.06,4.27,4.27,0,0,0,3.28-1.3ZM1336,71.75a3.56,3.56,0,0,0-3.62-2.48,3.61,3.61,0,0,0-3.56,2.48Z"/><path d="M1342.4,61.94h3.31v4.87h2v2.83h-2V80h-3.31V69.64h-1.69V66.81h1.69Z"/><path d="M1359.22,78.61a5.5,5.5,0,0,1-4.08,1.74c-3.35,0-6.28-2.88-6.28-6.93s2.78-7,6.21-7a5.68,5.68,0,0,1,4.15,1.79V66.81h3.3V80h-3.3Zm-7-5.22a3.6,3.6,0,1,0,3.55-3.9A3.59,3.59,0,0,0,1352.19,73.39Zm6.46-11.67a2.66,2.66,0,1,1-2.66-2.66A2.64,2.64,0,0,1,1358.65,61.72Zm-3.7,0a1,1,0,1,0,2.08,0,1,1,0,1,0-2.08,0Z"/><path d="M1367.94,68.47a3,3,0,0,1,4.22-1.66l-1,2.83a2.39,2.39,0,0,0-1-.27c-.94,0-1.69,1.09-1.76,3,0,.72,0,1.54,0,2.26V80h-3.3V66.81h2.86Z"/><path d="M1377.23,68.15a5.86,5.86,0,0,1,3.9-1.69,4.34,4.34,0,0,1,4.52,4.52v9h-3.3V73.77c0-2.61-.23-4.28-2.24-4.28a2.61,2.61,0,0,0-2.24,1.27,6.49,6.49,0,0,0-.64,3.63V80h-3.31V66.81h3.31Z"/><path d="M1401.2,77.44a7.45,7.45,0,1,1,.89-3.82c0,.29,0,.44,0,.74h-10.63a3.53,3.53,0,0,0,3.7,3.06,4.27,4.27,0,0,0,3.28-1.3Zm-2.44-5.69a3.56,3.56,0,0,0-3.62-2.48,3.59,3.59,0,0,0-3.55,2.48Z"/><path d="M1405.12,61.94h3.31v4.87h2v2.83h-2V80h-3.31V69.64h-1.69V66.81h1.69Z"/><path d="M1021.4,678.34h3.26l7.65,11.72V678.34h3.4v17.84h-3.28l-7.62-11.7v11.7h-3.41Z"/><path d="M1038,683h3.38l3.43,8.27,3.8-8.27h3.4l-8.29,18h-3.41l2.71-5.82Z"/><path d="M1054.22,678.12h3.3V683h2v2.83h-2v10.36h-3.3V685.82h-1.69V683h1.69Z"/><path d="M1074.49,689.57a6.92,6.92,0,1,1-7-6.93A6.87,6.87,0,0,1,1074.49,689.57Zm-10.51,0a3.52,3.52,0,0,0,3.55,3.82,3.82,3.82,0,1,0-3.55-3.82Z"/><path d="M1079.26,684.65a3,3,0,0,1,4.22-1.66l-1,2.83a2.25,2.25,0,0,0-1-.28c-.94,0-1.69,1.1-1.76,3,0,.72,0,1.55,0,2.27v5.34h-3.3V683h2.86Z"/><path d="M1083.7,683h3.38l3.33,7.77,3.33-7.77h3.35l-5.61,13.19h-2.14Z"/><path class="cls-2" d="M609,571.41l.29,1.67-.1.07a62.43,62.43,0,0,0,5.89,17.62c.73,1.44,1.53,2.83,2.36,4.19,16.07-4.77,36.6-13.33,57.31-24.19,19.79-10.37,37.7-21.65,51-32.09-.63-1.54-1.31-3.07-2.08-4.58a61.53,61.53,0,0,0-11.23-15.51h0l-.71-.72a60.52,60.52,0,0,0-70.32-10.37,62,62,0,0,0-32.79,60.92C608.67,569.47,608.81,570.47,609,571.41Z"/><path class="cls-2" d="M681.1,589.73a487.26,487.26,0,0,1-48.37,22.2,60.45,60.45,0,0,0,64.59,5.45,61.94,61.94,0,0,0,33-57.1A485.94,485.94,0,0,1,681.1,589.73Z"/><path class="cls-2" d="M775.26,505.46c-4.66-9.21-30.44-5.83-64.89,6.83,1,.88,1.94,1.78,2.87,2.73,19.12-6,32.65-7.15,35.32-1.86,4.84,9.56-27.59,36.42-72.45,60s-85.13,34.92-90,25.36c-2.57-5.07,5.36-15,20.08-26.77-.28-1.65-.48-3.3-.64-5-32.07,22.14-51.16,42.66-46.34,52.19,7,13.74,61-.54,120.6-31.89S782.21,519.2,775.26,505.46Z"/><path d="M582.34,553.84h12.24V558h-4.07v18h-4.22V558h-3.95Z"/><path d="M597.05,553.28h4.1v8a7.24,7.24,0,0,1,4.84-2.1c3.09,0,5.61,2,5.61,6V576h-4.1v-7.74c0-3.33-.4-5.31-2.8-5.31a3.26,3.26,0,0,0-2.78,1.61c-.83,1.29-.77,2.77-.77,4.47v7h-4.1Z"/><path d="M618.11,561.67a3.82,3.82,0,0,1,3.45-2.5,3.91,3.91,0,0,1,1.79.43l-1.26,3.52a2.81,2.81,0,0,0-1.21-.34c-1.17,0-2.09,1.36-2.18,3.76,0,.9,0,1.91,0,2.81V576h-4.1V559.6h3.55Z"/><path d="M629.64,555.56a2.62,2.62,0,0,1-2.62,2.62,2.72,2.72,0,0,1-2.62-2.83,2.55,2.55,0,0,1,2.62-2.5A2.66,2.66,0,0,1,629.64,555.56Zm-4.65,4h4.1V576H625Z"/><path d="M630.94,559.6h1.48c0-3.67-.34-6.75,4-6.75a7.65,7.65,0,0,1,2.9.59v3.14a5.34,5.34,0,0,0-1.48-.28c-1.6,0-1.26.84-1.29,3.3h2.59v3.49h-2.59V576h-4.1V563.09h-1.48Z"/><path d="M641.91,553.56H646v6h2.43v3.52H646V576h-4.11V563.12h-2.09V559.6h2.09Z"/><path d="M659.74,553.84h5.15c2.86,0,4.87.43,6.26,1.78a6.51,6.51,0,0,1,1.78,4.63,5.76,5.76,0,0,1-2.8,5.24c-1.88,1.14-3.86,1.11-6.17,1.11V576h-4.22ZM664,562.5h2c1.92,0,2.87-.74,2.87-2.25s-1-2.28-3-2.28H664Z"/><path d="M676.17,553.28h4.1V576h-4.1Z"/><path d="M696.09,574.25a6.8,6.8,0,0,1-5.06,2.16c-4.16,0-7.8-3.58-7.8-8.6s3.46-8.64,7.71-8.64a7,7,0,0,1,5.15,2.22V559.6h4.1V576h-4.1Zm-8.73-6.47c0,2.8,1.85,4.87,4.41,4.87s4.51-1.91,4.51-4.91a4.49,4.49,0,0,0-4.51-4.81C689.06,562.93,687.36,565.09,687.36,567.78Z"/><path d="M708.42,561.27a7.31,7.31,0,0,1,4.85-2.1,5.39,5.39,0,0,1,5.61,5.61V576h-4.1v-7.74c0-3.24-.28-5.31-2.78-5.31a3.2,3.2,0,0,0-2.77,1.58c-.84,1.32-.81,2.8-.81,4.5v7h-4.1V559.6h4.1Z"/><path d="M738.18,572.8c-1.76,2.5-4.07,3.61-7.52,3.61a8.62,8.62,0,0,1-.07-17.24c5.19,0,8.7,3.7,8.7,8.88,0,.37,0,.56,0,.93h-13.2a4.38,4.38,0,0,0,4.6,3.79,5.31,5.31,0,0,0,4.07-1.6Zm-3-7.06a4.76,4.76,0,0,0-8.91,0Z"/><path d="M743.05,553.56h4.1v6h2.44v3.52h-2.44V576h-4.1V563.12H741V559.6h2.1Z"/></svg>
