<svg id="Layer_1" data-name="Layer 1" xmlns="http://www.w3.org/2000/svg" viewBox="0 0 305 175"><defs><style>.cls-1,.cls-2{fill:#fff;}.cls-1{stroke:#fff;stroke-miterlimit:10;}</style></defs><path class="cls-1" d="M70.85,100.09l.4,2.33-.13.11a87.3,87.3,0,0,0,8.24,24.68c1,2,2.15,4,3.31,5.86,22.52-6.67,51.27-18.67,80.29-33.88,27.73-14.52,52.81-30.34,71.42-45-.89-2.16-1.85-4.3-2.93-6.42a86.39,86.39,0,0,0-15.72-21.73h0l-1-1a84.8,84.8,0,0,0-98.51-14.54C84.14,27.27,67,61.65,70.25,95.89Q70.51,98.11,70.85,100.09Z"/><path class="cls-1" d="M171.9,125.76a688.89,688.89,0,0,1-67.77,31.1,84.7,84.7,0,0,0,90.5,7.62c30.38-15.85,47.39-47.57,46.3-80A681.72,681.72,0,0,1,171.9,125.76Z"/><path class="cls-2" d="M303.82,7.69c-6.53-12.9-42.65-8.17-90.92,9.56,1.38,1.24,2.72,2.5,4,3.83,26.8-8.45,45.74-10,49.49-2.61,6.78,13.4-38.66,51-101.49,84.05S45.64,151.45,38.86,138.05c-3.6-7.11,7.52-21.05,28.14-37.5-.4-2.31-.68-4.62-.9-6.94-44.92,31-71.68,59.76-64.92,73.12,9.75,19.24,85.39-.76,169-44.67S313.56,26.94,303.82,7.69Z"/></svg>
