<svg id="Layer_1" data-name="Layer 1" xmlns="http://www.w3.org/2000/svg" width="396.87mm" height="859.37mm" viewBox="0 0 1125 2436"><defs><style>.cls-1{fill:#fff;}.cls-2{fill:none;}</style></defs><polygon class="cls-1" points="463.85 1220.64 441.79 1220.64 452.75 1253.73 463.85 1220.64"/><path class="cls-1" d="M760.5,1279.48c31.81,0,57.38-25.63,58.45-58.84H701.29C702.24,1256.07,729.31,1279.48,760.5,1279.48Z"/><path class="cls-1" d="M225.5,1279.48c31.82,0,57.38-25.63,58.45-58.84H166.3C167.24,1256.07,194.31,1279.48,225.5,1279.48Z"/><polygon class="cls-2" points="395.35 1221 408.9 1221 400 1194.25 395.35 1221"/><polygon class="cls-2" points="463.9 1221 442.23 1221 453 1253.5 463.9 1221"/><path class="cls-2" d="M225.75,1279.25c31.63,0,57.09-25.33,58.44-58.25H166.56C167.79,1256.1,194.73,1279.25,225.75,1279.25Z"/><path class="cls-2" d="M819.25,1218.25c0-33-24.75-61.75-59-61.75-32.25,0-58.75,25-58.75,62,0,.84,0,1.67.06,2.5H819.18C819.22,1220.09,819.25,1219.17,819.25,1218.25Z"/><path class="cls-2" d="M284.25,1218.25c0-33-24.75-61.75-59-61.75-32.25,0-58.75,25-58.75,62,0,.84,0,1.67.06,2.5H284.19C284.22,1220.09,284.25,1219.17,284.25,1218.25Z"/><polygon class="cls-2" points="496.99 1221 510.54 1221 506 1194.25 496.99 1221"/><path class="cls-2" d="M760.75,1279.25c31.62,0,57.08-25.33,58.43-58.25H701.56C702.79,1256.1,729.73,1279.25,760.75,1279.25Z"/><path class="cls-1" d="M225.5,1123.75a93.31,93.31,0,0,0-93.5,94c0,1.09,0,2.17.06,3.25h34.5c0-.83-.06-1.66-.06-2.5,0-37,26.5-62,58.75-62,34.25,0,59,28.75,59,61.75,0,.92,0,1.84-.06,2.75h34.53c0-.83,0-1.66,0-2.5C318.75,1163.75,275,1123.75,225.5,1123.75Z"/><polygon class="cls-1" points="495 1128.25 463.9 1221 496.99 1221 506 1194.25 510.54 1221 543.63 1221 528 1128.25 495 1128.25"/><polygon class="cls-1" points="411.5 1128.25 378 1128.25 361.98 1221 395.35 1221 400 1194.25 408.9 1221 442.23 1221 411.5 1128.25"/><path class="cls-1" d="M760.5,1123.75a93.31,93.31,0,0,0-93.5,94c0,1.09,0,2.17.06,3.25h34.5c0-.83-.06-1.66-.06-2.5,0-37,26.5-62,58.75-62,34.25,0,59,28.75,59,61.75,0,.92,0,1.84-.07,2.75h34.54c0-.83,0-1.66,0-2.5C853.75,1163.75,810,1123.75,760.5,1123.75Z"/><path class="cls-1" d="M932.75,1185c-5.25-4.5-10.5-9-10.5-16,0-7.25,6.25-12.5,15.25-12.5,9.75,0,18.5,6.5,27,18.5l25.5-22.5c-14.25-16.5-29.25-28.75-52-28.75-27,0-49.25,19.75-49.25,45.25,0,18.91,12.11,33.16,33.56,52h52.23C963.74,1210,949.05,1199.35,932.75,1185Z"/><path class="cls-1" d="M973.7,1220.64c11.74,11.75,19,23.74,19,40.84,0,30-22.5,51-55,51-26.25,0-44.5-12.75-57.75-39l28.75-17.25c8.25,15.5,17.75,23.5,29.75,23.5,11.5,0,20.75-7.5,20.75-16.75,0-6.5-4.25-14-11.5-20-9.91-8.31-18.73-15.62-26.36-22.34H853.48c-1,51.82-41.85,91.59-92.73,91.59-52.34,0-92.61-40.58-94-91.59H543.28L558,1308H525l-14.81-87.34H496.94L467.5,1308h-30l-29.05-87.34H395.2L380,1308H346.75l15.09-87.34H318.48c-1,51.82-41.85,91.59-92.73,91.59-52.34,0-92.6-40.58-94-91.59H0V2436H1125V1220.64ZM562.5,2392.27,473,2302.77l10.61-10.61,78.9,78.9,78.9-78.9L652,2302.77Z"/></svg>
