<?xml version="1.0" encoding="utf-8"?>
<!-- Generator: Adobe Illustrator 25.0.1, SVG Export Plug-In . SVG Version: 6.00 Build 0)  -->
<svg version="1.1" id="Layer_1" xmlns="http://www.w3.org/2000/svg" xmlns:xlink="http://www.w3.org/1999/xlink" x="0px" y="0px"
	 viewBox="0 0 1920 1080" style="enable-background:new 0 0 1920 1080;" xml:space="preserve">
<style type="text/css">
	.st0{fill:#FFFFFF;}
</style>
<path class="st0" d="M698.5,520.5c0,42.2-33,74.8-74.2,74.8c-42.6,0-75.2-33.6-75.2-75.4c-0.3-41.2,32.9-74.9,74.1-75.2h0.7
	C663.5,444.7,698.5,476.7,698.5,520.5z M576.7,520.5c0,29.2,22,48.6,47.4,48.6c26,0,46.8-21.4,46.8-48.8c0-26.4-19.8-49.4-47.2-49.4
	C597.9,470.9,576.7,490.9,576.7,520.5z"/>
<path class="st0" d="M745.9,448.3h26.8l33.2,100.2l33.6-100.2h26.4l24.2,143.6h-26.4l-15.4-90.8l-30.6,90.8h-24l-30.2-90.8
	l-15.8,90.8h-26.6L745.9,448.3z"/>
<path class="st0" d="M1059.8,470.9c-25.8,0-47,20-47,49.6c0,29.2,22,48.6,47.4,48.6c26,0,46.8-21.4,46.8-48.8
	C1107,493.9,1087.2,470.9,1059.8,470.9z"/>
<path class="st0" d="M949.5,0v1022.8l38.6-39.5l5.2,5.3l-43.8,44.8v46.6h960V0H949.5z M1060.4,595.3c-41.7,0-73.6-33.6-73.6-75.4
	c-0.3-41.2,32.2-74.9,72.5-75.2h0.7c38.8,0,73,32,73,75.8C1133,562.7,1100.7,595.3,1060.4,595.3z M1199,595.5L1199,595.5
	c-20.6,0-34.8-10.2-45.2-31.2l22.5-13.8c6.5,12.4,13.9,18.8,23.3,18.8c9,0,16.2-6,16.2-13.4c0-5.2-3.3-11.2-9-16
	c-29.2-25-46.4-38.6-46.4-59s17.4-36.2,38.6-36.2c17.8,0,29.6,9.8,40.7,23l-20,18c-6.7-9.6-13.5-14.8-21.1-14.8
	c-7,0-11.9,4.2-11.9,10c0,5.6,4.1,9.2,8.2,12.8c26.2,23.6,47.2,34.8,47.2,61C1242,578.7,1224.4,595.5,1199,595.5L1199,595.5z"/>
<polygon class="st0" points="910,983.4 904.7,988.7 949.5,1033.5 949.5,1022.9 "/>
</svg>
