<svg id="Layer_1" data-name="Layer 1" xmlns="http://www.w3.org/2000/svg" width="1920" height="1080" viewBox="0 0 1920 1080"><defs><style>.cls-1{fill:#fff;}</style></defs><path class="cls-1" d="M698.54,520.47c0,42.2-33,74.8-74.2,74.8-42.6,0-75.2-33.6-75.2-75.4a74.65,74.65,0,0,1,74.8-75.2C663.54,444.67,698.54,476.67,698.54,520.47Zm-121.8,0c0,29.2,22,48.6,47.4,48.6,26,0,46.8-21.4,46.8-48.8,0-26.4-19.8-49.4-47.2-49.4C597.94,470.87,576.74,490.87,576.74,520.47Z"/><path class="cls-1" d="M745.94,448.27h26.8l33.2,100.2,33.6-100.2h26.4l24.2,143.6h-26.4l-15.4-90.8-30.6,90.8h-24l-30.2-90.8-15.8,90.8h-26.6Z"/><path class="cls-1" d="M1051.74,470.87c-25.8,0-47,20-47,49.6,0,29.2,22,48.6,47.4,48.6,26,0,46.8-21.4,46.8-48.8C1098.94,493.87,1079.14,470.87,1051.74,470.87Z"/><path class="cls-1" d="M939,0V1080h981V0Zm113.34,595.27c-42.6,0-75.2-33.6-75.2-75.4a74.65,74.65,0,0,1,74.8-75.2c39.6,0,74.6,32,74.6,75.8C1126.54,562.67,1093.54,595.27,1052.34,595.27Zm141.6.2c-21,0-35.6-10.2-46.2-31.2l23-13.8c6.6,12.4,14.2,18.8,23.8,18.8,9.2,0,16.6-6,16.6-13.4,0-5.2-3.4-11.2-9.2-16-29.8-25-47.4-38.6-47.4-59s17.8-36.2,39.4-36.2c18.2,0,30.2,9.8,41.6,23l-20.4,18c-6.8-9.6-13.8-14.8-21.6-14.8-7.2,0-12.2,4.2-12.2,10,0,5.6,4.2,9.2,8.4,12.8,26.8,23.6,48.2,34.8,48.2,61C1237.94,578.67,1219.94,595.47,1193.94,595.47Z"/></svg>
