<svg xmlns="http://www.w3.org/2000/svg" viewBox="0 0 325.98 184.25"><defs><style>.cls-1{fill:#fad2e3;}.cls-2{fill:none;stroke:#fff;stroke-miterlimit:10;}.cls-3{fill:#fff;}</style></defs><g id="Layer_2_copy" data-name="Layer 2 copy"><path class="cls-1" d="M240.39,48.48c21.67,42.51,5.18,94.75-36.82,116.67S110,170.39,88.31,127.88,83.13,33.14,125.13,11.21,218.73,6,240.39,48.48Z"/><path class="cls-2" d="M240.39,48.48c21.67,42.51,5.18,94.75-36.82,116.67S110,170.39,88.31,127.88,83.13,33.14,125.13,11.21,218.73,6,240.39,48.48Z"/><path class="cls-1" d="M28.49,181.94c-11.68,0-19.07-2.86-21.95-8.5-3.8-7.43.8-18.37,13.67-32.52,11.85-13,30.29-28.23,53.34-44L76.35,95l.32,3.37c.24,2.53.53,4.77.9,6.86l.2,1.18-.93.74c-24.35,19.21-30.55,30.9-28.22,35.44,1.24,2.43,5.19,3.71,11.42,3.71,22.36,0,67.39-15.9,114.72-40.5C205.7,89.75,233.48,72.09,253,56.13c27-22.15,25.72-30.55,24.68-32.6-1.24-2.42-5.19-3.71-11.41-3.71-8.68,0-21.4,2.54-36.8,7.35l-1.16.36-.85-.86c-1.23-1.23-2.54-2.47-4-3.78l-2.51-2.23,3.15-1.15c30.51-11.09,56.59-17.2,73.44-17.2,11.68,0,19.07,2.86,21.95,8.5,11.85,23.16-60.6,78.35-137.5,118.33C120.25,161.21,60,181.94,28.5,181.94Z"/><path class="cls-3" d="M297.49,4.31c10.53,0,17.6,2.38,20.17,7.41C327.62,31.18,266.44,83,181,127.36c-63.37,33-122.27,52.58-152.53,52.58-10.53,0-17.6-2.38-20.17-7.41C1.41,159,28.76,130,74.68,98.6c.22,2.34.51,4.68.92,7-21.08,16.64-32.45,30.74-28.77,37.93,1.67,3.26,6.28,4.8,13.21,4.8,21.87,0,66.87-15.38,115.64-40.73,64.23-33.39,110.68-71.44,103.75-85-1.67-3.25-6.27-4.8-13.19-4.8-9,0-21.92,2.61-37.4,7.44q-2-2-4.11-3.87c30.33-11,56-17.08,72.76-17.08m0-4c-17.33,0-43,6-74.12,17.32l-6.31,2.29,5,4.46c1.45,1.29,2.74,2.5,3.93,3.7l1.71,1.72,2.31-.72c15.21-4.75,27.73-7.26,36.21-7.26,7.69,0,9.31,2,9.63,2.62,1.29,2.52-2.1,12.07-24.17,30.14-19.38,15.88-47,33.45-77.86,49.48C127.49,128.15,81.76,144.34,60,144.34c-7.7,0-9.33-2-9.64-2.62C49,139,53,128.57,78.08,108.75L80,107.28l-.41-2.35c-.36-2-.64-4.24-.88-6.71L78,91.48l-5.6,3.82c-24.09,16.45-78.9,57.09-67.66,79.06C8,180.71,16,183.94,28.49,183.94c31.82,0,92.42-20.82,154.38-53,41.56-21.61,78.79-45.64,104.82-67.67C300.51,52.39,310,42.55,315.82,34c6.74-9.84,8.55-17.95,5.4-24.11C318,3.54,310,.31,297.49.31Z"/></g></svg>