<?xml version="1.0" encoding="utf-8"?>
<!-- Generator: Adobe Illustrator 25.0.1, SVG Export Plug-In . SVG Version: 6.00 Build 0)  -->
<svg version="1.1" id="Layer_1" xmlns="http://www.w3.org/2000/svg" xmlns:xlink="http://www.w3.org/1999/xlink" x="0px" y="0px"
	 viewBox="0 0 1920 1080" style="enable-background:new 0 0 1920 1080;" xml:space="preserve">
<style type="text/css">
	.st0{fill:#FFFFFF;}
</style>
<path class="st0" d="M1119.1,575.4c0,42.2-33,74.8-74.2,74.8c-42.6,0-75.2-33.6-75.2-75.4c-0.3-41.2,32.9-74.9,74.1-75.2h0.7
	C1084.1,499.6,1119.1,531.6,1119.1,575.4z M997.3,575.4c0,29.2,22,48.6,47.4,48.6c26,0,46.8-21.4,46.8-48.8
	c0-26.4-19.8-49.4-47.2-49.4C1018.5,525.8,997.3,545.8,997.3,575.4L997.3,575.4z"/>
<path class="st0" d="M1152.5,503.2h33.4c18.6,0,31.6,2.8,40.6,11.6c7,6.8,11.6,17.8,11.6,30c0,15.2-6.2,26.6-18.2,34
	c-12.2,7.4-25,7.2-40,7.2v60.8h-27.4V503.2z M1179.9,559.4h12.8c12.4,0,18.6-4.8,18.6-14.6c0-9.6-6.8-14.8-19.8-14.8h-11.6V559.4z"
	/>
<path class="st0" d="M917.3,983.6L957,1023V0H-3v1080h960v-46.4l-45-44.8L917.3,983.6z M756.2,650.4c-21.1,0-35.8-10.2-46.5-31.2
	l23.1-13.8c6.6,12.4,14.3,18.8,23.9,18.8c9.3,0,16.7-6,16.7-13.4c0-5.2-3.4-11.2-9.3-16c-30-25-47.7-38.6-47.7-59
	s17.9-36.2,39.6-36.2c18.3,0,30.4,9.8,41.9,23l-20.5,18c-6.8-9.6-13.9-14.8-21.7-14.8c-7.2,0-12.3,4.2-12.3,10
	c0,5.6,4.2,9.2,8.5,12.8c27,23.6,48.5,34.8,48.5,61C800.5,633.6,782.4,650.4,756.2,650.4z M862.7,584v62.8h-27.6V503.2h27.6v54h48.7
	v-54H939v143.6h-27.6V584H862.7z"/>
<polygon class="st0" points="996.5,983.6 957,1023.1 957,1033.7 1001.8,989 "/>
</svg>
