<svg id="Layer_1" data-name="Layer 1" xmlns="http://www.w3.org/2000/svg" width="1920" height="1080" viewBox="0 0 1920 1080"><defs><style>.cls-1{fill:#fff;}</style></defs><path class="cls-1" d="M0,0V1080H954V0ZM754.48,650.43c-21,0-35.6-10.2-46.2-31.2l23-13.8c6.6,12.4,14.2,18.8,23.8,18.8,9.2,0,16.6-6,16.6-13.4,0-5.2-3.4-11.2-9.2-16-29.8-25-47.4-38.6-47.4-59s17.8-36.2,39.4-36.2c18.2,0,30.2,9.8,41.6,23l-20.4,18c-6.8-9.6-13.8-14.8-21.6-14.8-7.2,0-12.2,4.2-12.2,10,0,5.6,4.2,9.2,8.4,12.8,26.8,23.6,48.2,34.8,48.2,61C798.48,633.63,780.48,650.43,754.48,650.43Zm181.59-3.6h-27.4V584h-48.4v62.8H832.88V503.23h27.39v54h48.4v-54h27.4Z"/><path class="cls-1" d="M1119.07,575.43c0,42.2-33,74.8-74.2,74.8-42.6,0-75.2-33.6-75.2-75.4a74.65,74.65,0,0,1,74.8-75.2C1084.07,499.63,1119.07,531.63,1119.07,575.43Zm-121.8,0c0,29.2,22,48.6,47.4,48.6,26,0,46.8-21.4,46.8-48.8,0-26.4-19.8-49.4-47.2-49.4C1018.47,525.83,997.27,545.83,997.27,575.43Z"/><path class="cls-1" d="M1152.47,503.23h33.4c18.6,0,31.6,2.8,40.6,11.6,7,6.8,11.6,17.8,11.6,30,0,15.2-6.2,26.6-18.2,34-12.2,7.4-25,7.2-40,7.2v60.8h-27.4Zm27.4,56.2h12.8c12.4,0,18.6-4.8,18.6-14.6,0-9.6-6.8-14.8-19.8-14.8h-11.6Z"/></svg>
