<svg id="Layer_1" data-name="Layer 1" xmlns="http://www.w3.org/2000/svg" width="396.87mm" height="859.37mm" viewBox="0 0 1125 2436"><defs><style>.cls-1{fill:#fff;}.cls-2{fill:none;}</style></defs><path class="cls-1" d="M598.81,1199.71c0,36.5,27.5,60.75,59.25,60.75,32.5,0,58.5-26.75,58.5-61,0-1.75-.08-3.49-.22-5.21H599C598.9,1196,598.81,1197.86,598.81,1199.71Z"/><path class="cls-2" d="M841.56,1143h-14.5v36.75h16c15.5,0,23.25-6,23.25-18.25C866.31,1149.46,857.81,1143,841.56,1143Z"/><path class="cls-2" d="M657.56,1137.71c-32.25,0-58.75,25-58.75,62,0,36.5,27.5,60.75,59.25,60.75,32.5,0,58.5-26.75,58.5-61C716.56,1166.46,691.81,1137.71,657.56,1137.71Z"/><path class="cls-2" d="M658.06,1260.46c32.5,0,58.5-26.75,58.5-61,0-1.75-.08-3.49-.22-5.21H599c-.13,1.79-.22,3.61-.22,5.46C598.81,1236.21,626.31,1260.46,658.06,1260.46Z"/><path class="cls-2" d="M841.56,1143h-14.5v36.75h16c15.5,0,23.25-6,23.25-18.25C866.31,1149.46,857.81,1143,841.56,1143Z"/><path class="cls-2" d="M657.56,1137.71c-30.63,0-56.06,22.57-58.53,56.54H716.34C713.9,1163.49,690,1137.71,657.56,1137.71Z"/><path class="cls-1" d="M279.57,1150.21c0-7.25,6.25-12.5,15.25-12.5,9.75,0,18.5,6.5,27,18.5l25.5-22.5c-14.25-16.5-29.25-28.75-52-28.75-27,0-49.25,19.75-49.25,45.25,0,16.16,8.85,28.92,24.8,44h52.51c-9.52-8.38-20.95-17.16-33.31-28C284.82,1161.71,279.57,1157.21,279.57,1150.21Z"/><polygon class="cls-1" points="488.07 1109.46 488.07 1176.96 427.57 1176.96 427.57 1109.46 393.32 1109.46 393.32 1194.25 522.32 1194.25 522.32 1109.46 488.07 1109.46"/><path class="cls-1" d="M657.81,1105a93.26,93.26,0,0,0-93.38,89.29H599c2.47-34,27.9-56.54,58.53-56.54,32.44,0,56.34,25.78,58.78,56.54h34.57A93.63,93.63,0,0,0,657.81,1105Z"/><path class="cls-1" d="M899.81,1161.46c0-15.25-5.75-29-14.5-37.5-11.25-11-27.5-14.5-50.75-14.5H792.81v84.79h95.8C896,1185.7,899.81,1174.74,899.81,1161.46Zm-56.75,18.25h-16V1143h14.5c16.25,0,24.75,6.5,24.75,18.5C866.31,1173.71,858.56,1179.71,843.06,1179.71Z"/><path class="cls-1" d="M888.61,1194.25a49.4,49.4,0,0,1-11.55,9.71c-15.25,9.25-31.25,9-50,9v76H792.81v-94.71h-41.9q.15,2.7.15,5.46c0,52.75-41.25,93.5-92.75,93.5-53.25,0-94-42-94-94.25q0-2.37.12-4.71H522.32V1289H488.07v-78.5h-60.5V1289H393.32v-94.71H323.38c16.28,14.34,26.94,27.54,26.94,48.21,0,30-22.5,51-55,51-26.25,0-44.5-12.75-57.75-39l28.75-17.25c8.25,15.5,17.75,23.5,29.75,23.5,11.5,0,20.75-7.5,20.75-16.75,0-6.5-4.25-14-11.5-20-13.64-11.44-25.23-21-34.45-29.71H-139.41V2546.1H1212.43V1194.25Zm-331.68,1197-89.51-89.51L478,2291.17l78.9,78.9,78.9-78.9,10.61,10.61Z"/></svg>
