<svg id="Layer_1" data-name="Layer 1" xmlns="http://www.w3.org/2000/svg" width="1920" height="1080" viewBox="0 0 1920 1080"><defs><style>.cls-1{fill:#fff;}</style></defs><path class="cls-1" d="M734.53,572.16c6.6,12.4,14.2,18.8,23.8,18.8,9.2,0,16.6-6,16.6-13.4,0-5.2-3.4-11.2-9.2-16-29.8-25-47.4-38.6-47.4-59s17.8-36.2,39.4-36.2c18.2,0,30.2,9.8,41.6,23l-20.4,18c-6.8-9.6-13.8-14.8-21.6-14.8-7.2,0-12.2,4.2-12.2,10,0,5.6,4.2,9.2,8.4,12.8,26.8,23.6,48.2,34.8,48.2,61,0,24-18,40.8-44,40.8-21,0-35.6-10.2-46.2-31.2Z"/><path class="cls-1" d="M836.13,470h27.4v54h48.4V470h27.4v143.6h-27.4v-62.8h-48.4v62.8h-27.4Z"/><path class="cls-1" d="M1047.53,492.56c-25.8,0-47,20-47,49.6,0,29.2,22,48.6,47.4,48.6,26,0,46.79-21.4,46.79-48.8C1094.72,515.56,1074.93,492.56,1047.53,492.56Z"/><path class="cls-1" d="M1194.73,496.76h-11.6v29.4h12.8c12.4,0,18.6-4.8,18.6-14.6C1214.53,502,1207.73,496.76,1194.73,496.76Z"/><path class="cls-1" d="M960,0V1080h960V0Zm88.12,617c-42.59,0-75.19-33.6-75.19-75.4a74.65,74.65,0,0,1,74.8-75.2c39.6,0,74.59,32,74.59,75.8C1122.32,584.36,1089.32,617,1048.12,617Zm175-71.4c-12.2,7.4-25,7.2-40,7.2v60.8h-27.4V470h33.4c18.6,0,31.6,2.8,40.59,11.6,7,6.8,11.61,17.8,11.61,30C1241.33,526.76,1235.12,538.16,1223.12,545.56Z"/></svg>
