<svg id="Layer_1" data-name="Layer 1" xmlns="http://www.w3.org/2000/svg" viewBox="0 0 200 200"><path d="M99.89,9.14A90.89,90.89,0,1,0,190.78,100,90.89,90.89,0,0,0,99.89,9.14Zm28.52,42.77c6.89,0,12.47,10,12.47,22.28s-5.58,22.27-12.47,22.27-12.48-10-12.48-22.27S121.52,51.91,128.41,51.91Zm-57,0c6.89,0,12.47,10,12.47,22.28S78.27,96.46,71.38,96.46,58.9,86.49,58.9,74.19,64.49,51.91,71.38,51.91Zm96.44,62.38c-14,62.37-67.93,57.4-67.93,57.4-60.59,2.16-69.43-57.4-69.43-57.4H22.81v-7.13H45.09v7.13H37.93c12.89,55.16,62,50.58,62,50.58,51.27.67,60.33-49.76,60.47-50.58h-7.14v-7.13H175.5v7.13Z"/></svg>
