<svg id="Layer_1" data-name="Layer 1" xmlns="http://www.w3.org/2000/svg" width="396.87mm" height="859.37mm" viewBox="0 0 1125 2436"><defs><style>.cls-1{fill:#fff;}</style></defs><path class="cls-1" d="M159.88,977.3h35.25l45,127.5,46-127.5h35l-64.75,179.5H223.63Z"/><path class="cls-1" d="M525.38,1067.55c0,52.75-41.25,93.5-92.75,93.5-53.25,0-94-42-94-94.25a93.31,93.31,0,0,1,93.5-94C481.63,972.8,525.38,1012.8,525.38,1067.55Zm-152.25,0c0,36.5,27.5,60.75,59.25,60.75,32.5,0,58.5-26.75,58.5-61,0-33-24.75-61.75-59-61.75C399.63,1005.55,373.13,1030.55,373.13,1067.55Z"/><path class="cls-1" d="M569.63,977.3h41.75c22.75,0,38.75,2.75,50.75,14.5,9,8.75,14.5,22.25,14.5,37.5,0,23.5-11.75,39.5-34.5,47.75l42.5,79.75H647.38l-40.25-76h-3.25v76H569.63Zm34.25,70.25h15.75c15.5,0,23.5-6.25,23.5-18.5,0-11.75-8.25-18.25-24.5-18.25H603.88Z"/><path class="cls-1" d="M722.63,977.3h98v33.5H756.88v32h63.75v33.5H756.88v47h63.75v33.5h-98Z"/><path class="cls-1" d="M875.62,1105.05c8.25,15.5,17.75,23.5,29.75,23.5,11.5,0,20.75-7.5,20.75-16.75,0-6.5-4.25-14-11.5-20-37.25-31.25-59.25-48.25-59.25-73.75s22.25-45.25,49.25-45.25c22.75,0,37.75,12.25,52,28.75l-25.5,22.5c-8.5-12-17.25-18.5-27-18.5-9,0-15.25,5.25-15.25,12.5,0,7,5.25,11.5,10.5,16,33.5,29.5,60.25,43.5,60.25,76.25,0,30-22.5,51-55,51-26.25,0-44.5-12.75-57.75-39Z"/><path class="cls-1" d="M876.75,1310.8H862v36.75h15.75c15.5,0,23.5-6.25,23.5-18.5C901.25,1317.3,893,1310.8,876.75,1310.8Z"/><path class="cls-1" d="M0,1218V2436H1125V1218Zm522,59.3,45,127.5,46-127.5h35l-64.75,179.5H550.5l-63.75-179.5ZM175.76,1391.55c0,19.75-1,34.75-14.5,50.5-11.5,13.25-26.5,19-46,19-18.5,0-33.25-5.25-44.5-17-14.5-15-16.5-31.25-16.5-54.5V1277.3H88.51v121.5c0,19.5,9.5,29.5,26,29.5,9.75,0,18.5-4,22.75-10.75,3.75-5.75,4.25-14,4.25-23.5V1277.3h34.25Zm193.75,65.25h-33l-76.75-117.75V1456.8H225.51V1277.3h32.75l77,118v-118h34.25Zm82.74,0H418V1277.3h34.25Zm115.13,932.47-89.51-89.5,10.61-10.61,78.9,78.9,78.9-78.9,10.61,10.61ZM783.75,1310.8H720v32h63.75v33.5H720v47h63.75v33.5h-98V1277.3h98Zm121.75,146-40.25-76H862v76H827.75V1277.3H869.5c22.75,0,38.75,2.75,50.75,14.5,9,8.75,14.5,22.25,14.5,37.5,0,23.5-11.75,39.5-34.5,47.75l42.5,79.75Zm117.25,4.5c-26.25,0-44.5-12.75-57.75-39l28.75-17.25c8.25,15.5,17.75,23.5,29.75,23.5,11.5,0,20.75-7.5,20.75-16.75,0-6.5-4.25-14-11.5-20-37.25-31.25-59.25-48.25-59.25-73.75s22.25-45.25,49.25-45.25c22.75,0,37.75,12.25,52,28.75l-25.5,22.5c-8.5-12-17.25-18.5-27-18.5-9,0-15.25,5.25-15.25,12.5,0,7,5.25,11.5,10.5,16,33.5,29.5,60.25,43.5,60.25,76.25C1077.75,1440.3,1055.25,1461.3,1022.75,1461.3Z"/></svg>
