<svg id="Layer_1" data-name="Layer 1" xmlns="http://www.w3.org/2000/svg" width="1920" height="1080" viewBox="0 0 1920 1080"><defs><style>.cls-1{fill:#fff;}</style></defs><path class="cls-1" d="M620.74,365.93h28.2l36,102,36.8-102h28l-51.79,143.6h-26.2Z"/><path class="cls-1" d="M913.13,438.13c0,42.2-33,74.8-74.19,74.8-42.6,0-75.2-33.6-75.2-75.4a74.65,74.65,0,0,1,74.8-75.2C878.14,362.33,913.13,394.33,913.13,438.13Zm-121.79,0c0,29.2,22,48.6,47.4,48.6,26,0,46.8-21.4,46.8-48.8,0-26.4-19.8-49.4-47.2-49.4C812.54,388.53,791.34,408.53,791.34,438.13Z"/><path class="cls-1" d="M536.24,605.93h27.4v97.2c0,15.6,7.6,23.6,20.8,23.6,7.8,0,14.8-3.2,18.2-8.6,3-4.6,3.4-11.2,3.4-18.8v-93.4h27.4v91.4c0,15.8-.8,27.8-11.6,40.4-9.2,10.6-21.2,15.2-36.8,15.2-14.8,0-26.6-4.2-35.6-13.6-11.6-12-13.2-25-13.2-43.6Z"/><path class="cls-1" d="M673.24,605.93h26.2l61.6,94.4v-94.4h27.4v143.6H762l-61.4-94.2v94.2h-27.4Z"/><path class="cls-1" d="M827.24,605.93h27.4v143.6h-27.4Z"/><path class="cls-1" d="M1194.23,632.73h-11.8v29.4H1195c12.4,0,18.8-5,18.8-14.8C1213.83,637.93,1207.23,632.73,1194.23,632.73Z"/><path class="cls-1" d="M987.74,392.73h-11.8v29.4h12.6c12.39,0,18.79-5,18.79-14.8C1007.33,397.93,1000.73,392.73,987.74,392.73Z"/><path class="cls-1" d="M943,0V698.2l3.43,9.73,36.8-102h28l-51.8,143.6H943V1080h977V0Zm67.73,509.53-32.19-60.8h-2.6v60.8h-27.4V365.93h33.4c18.19,0,31,2.2,40.59,11.6,7.2,7,11.6,17.8,11.6,30,0,18.8-9.4,31.6-27.59,38.2l34,63.8Zm109.1,123.2h-51v25.6h51v26.8h-51v37.6h51v26.8h-78.4V605.93h78.4Zm29.5-240h-51v25.6h51v26.8h-51v37.6h51v26.8h-78.4V365.93h78.4Zm67.9,356.8-32.2-60.8h-2.6v60.8H1155V605.93h33.4c18.2,0,31,2.2,40.6,11.6,7.2,7,11.6,17.8,11.6,30,0,18.8-9.4,31.6-27.6,38.2l34,63.8Zm-.7-236.4c-21,0-35.6-10.2-46.2-31.2l23-13.8c6.6,12.4,14.2,18.8,23.8,18.8,9.2,0,16.6-6,16.6-13.4,0-5.2-3.4-11.2-9.2-16-29.8-25-47.4-38.6-47.4-59s17.8-36.2,39.4-36.2c18.2,0,30.2,9.8,41.6,23l-20.4,18c-6.8-9.6-13.8-14.8-21.6-14.8-7.2,0-12.2,4.2-12.2,10,0,5.6,4.2,9.2,8.4,12.8,26.8,23.6,48.2,34.8,48.2,61C1260.53,496.33,1242.53,513.13,1216.53,513.13Zm94.5,240c-21,0-35.6-10.2-46.2-31.2l23-13.8c6.6,12.4,14.2,18.8,23.8,18.8,9.2,0,16.6-6,16.6-13.4,0-5.2-3.4-11.2-9.2-16-29.8-25-47.4-38.6-47.4-59s17.8-36.2,39.4-36.2c18.2,0,30.2,9.8,41.6,23l-20.4,18c-6.8-9.6-13.8-14.8-21.6-14.8-7.2,0-12.2,4.2-12.2,10,0,5.6,4.2,9.2,8.4,12.8,26.8,23.6,48.2,34.8,48.2,61C1355,736.33,1337,753.13,1311,753.13Z"/><polygon class="cls-1" points="910.4 605.51 882.21 605.51 933.2 749.1 943 749.1 943 697.86 910.4 605.51"/></svg>
