<?xml version="1.0" encoding="utf-8"?>
<!-- Generator: Adobe Illustrator 25.0.1, SVG Export Plug-In . SVG Version: 6.00 Build 0)  -->
<svg version="1.1" id="Layer_1" xmlns="http://www.w3.org/2000/svg" xmlns:xlink="http://www.w3.org/1999/xlink" x="0px" y="0px"
	 viewBox="0 0 1920 1080" style="enable-background:new 0 0 1920 1080;" xml:space="preserve">
<style type="text/css">
	.st0{fill:#FFFFFF;}
</style>
<path class="st0" d="M638.2,587.4h21.2v75.1c0,12,5.9,18.2,16.1,18.2c6,0,11.4-2.5,14.1-6.6c2.3-3.6,2.6-8.7,2.6-14.5v-72.1h21.2
	v70.6c0,12.2-0.6,21.5-9,31.2C697.3,697.5,688,701,676,701c-11.4,0-20.5-3.2-27.5-10.5c-9-9.3-10.2-19.3-10.2-33.7L638.2,587.4z"/>
<path class="st0" d="M744.1,587.4h20.2l47.6,72.9v-72.9h21.2v110.9h-20.4l-47.4-72.8v72.8h-21.2L744.1,587.4L744.1,587.4z"/>
<path class="st0" d="M863,587.4h21.2v110.9H863V587.4z"/>
<path class="st0" d="M700,375.2h21.8l27.8,78.8l28.4-78.8h21.6l-40,110.9h-20.3L700,375.2z"/>
<path class="st0" d="M925.9,430.9c0,32.6-25.5,57.8-57.3,57.8c-32.9,0-58.1-26-58.1-58.2c0.1-31.9,26.1-57.6,57.9-57.5
	C900.3,373.1,926,399.1,925.9,430.9L925.9,430.9L925.9,430.9z M831.8,430.9c0,22.6,17,37.5,36.6,37.5c20.1,0,36.2-16.5,36.2-37.7
	c0-20.4-15.3-38.2-36.5-38.2C848.1,392.6,831.8,408.1,831.8,430.9z"/>
<polygon class="st0" points="927.5,587.3 905.7,587.3 945.1,698.2 955,698.2 955,665.3 "/>
<path class="st0" d="M954.7,0v374.9h23.5c13.9,0,23.7,1.7,31,9c5.5,5.4,8.9,13.8,8.9,23.2c0,14.5-7.2,24.4-21.1,29.5l26,49.3h-22.7
	l-24.6-47h-2v47h-19v179.9l28-78.5h21.4l-39.5,110.9h-9.9v324.7l38.8-39.3l5.2,5.3l-44,44.6v46.5h960V0H954.7z M1087.1,607.9h-39
	v19.8h39v20.7h-39v29h39v20.7h-59.9V587.2h59.9V607.9z M1106.1,395.7h-39v19.8h39v20.7h-39v29h39v20.7h-59.9v-111h59.9V395.7z
	 M1161.5,698.2l-24.6-47h-2v47H1114v-111h25.5c13.9,0,23.7,1.7,31,9c5.5,5.4,8.9,13.8,8.9,23.2c0,14.5-7.2,24.4-21.1,29.5l26,49.3
	H1161.5z M1157.4,488.7L1157.4,488.7c-16,0-27.2-7.9-35.3-24.1l17.6-10.7c5,9.6,10.9,14.5,18.2,14.5c7,0,12.7-4.6,12.7-10.4
	c0-4-2.6-8.6-7-12.4c-22.7-19.3-36.2-29.8-36.2-45.6s13.6-28,30.1-28c13.9,0,23.1,7.6,31.8,17.8l-15.6,13.9
	c-5.2-7.4-10.5-11.4-16.5-11.4c-5.5,0-9.3,3.2-9.3,7.7c0,4.3,3.2,7.1,6.4,9.9c20.5,18.2,36.8,26.9,36.8,47.1
	C1191,475.7,1177.3,488.7,1157.4,488.7L1157.4,488.7z M1233.1,701c-16,0-27.2-7.9-35.3-24.1l17.6-10.7c5,9.6,10.9,14.5,18.2,14.5
	c7,0,12.7-4.6,12.7-10.4c0-4-2.6-8.7-7-12.4c-22.7-19.3-36.2-29.8-36.2-45.6s13.6-28,30.1-28c13.9,0,23.1,7.6,31.8,17.8l-15.6,13.9
	c-5.2-7.4-10.5-11.4-16.5-11.4c-5.5,0-9.3,3.2-9.3,7.7s3.2,7.1,6.4,9.9c20.5,18.2,36.8,26.9,36.8,47.1
	C1266.7,688,1253,701,1233.1,701z"/>
<polygon class="st0" points="915.2,983.6 909.9,988.9 954.7,1033.6 954.7,1023 "/>
<path class="st0" d="M997.9,406.9c0-7.3-5.1-11.3-15.1-11.3h-9.1v22.7h9.7C993,418.4,997.9,414.5,997.9,406.9z"/>
<path class="st0" d="M1159,619.2c0-7.3-5.1-11.3-15.1-11.3h-9.1v22.7h9.7C1154.1,630.7,1159,626.8,1159,619.2z"/>
</svg>
