<svg id="Layer_1" data-name="Layer 1" xmlns="http://www.w3.org/2000/svg" width="677.33mm" height="381mm" viewBox="0 0 1920 1080"><defs><style>.cls-1{fill:#fff;}</style></defs><path class="cls-1" d="M632.24,587.23h21.17v75.09c0,12,5.87,18.23,16.07,18.23,6,0,11.44-2.47,14.06-6.64,2.32-3.56,2.63-8.66,2.63-14.53V587.23h21.17v70.61c0,12.2-.62,21.47-9,31.21-7.11,8.19-16.38,11.74-28.44,11.74-11.43,0-20.54-3.24-27.5-10.5-9-9.28-10.2-19.32-10.2-33.69Z"/><path class="cls-1" d="M738.08,587.23h20.24l47.59,72.93V587.23h21.17V698.17h-20.4l-47.43-72.78v72.78H738.08Z"/><path class="cls-1" d="M857.05,587.23h21.17V698.17H857.05Z"/><path class="cls-1" d="M694,374.94h21.78l27.81,78.8L772,374.94h21.64l-40,110.94H733.37Z"/><path class="cls-1" d="M919.86,430.72c0,32.6-25.5,57.79-57.33,57.79-32.91,0-58.09-26-58.09-58.25a57.71,57.71,0,0,1,115.42.46Zm-94.1,0c0,22.56,17,37.55,36.62,37.55,20.08,0,36.15-16.54,36.15-37.7,0-20.4-15.29-38.17-36.46-38.17C842.14,392.4,825.76,407.85,825.76,430.72Z"/><path class="cls-1" d="M1140.56,607.93h-9.11v22.71h9.73c9.58,0,14.53-3.86,14.53-11.43C1155.71,612,1150.61,607.93,1140.56,607.93Z"/><path class="cls-1" d="M992.62,406.93c0-7.27-5.09-11.28-15.14-11.28h-9.11v22.71h9.73C987.68,418.36,992.62,414.5,992.62,406.93Z"/><polygon class="cls-1" points="921.48 587.09 899.7 587.09 939.1 698.02 949 698.02 949 665.05 921.48 587.09"/><path class="cls-1" d="M949.22,0V374.94H973c14.06,0,24,1.7,31.37,9,5.56,5.41,9,13.75,9,23.18,0,14.52-7.26,24.41-21.32,29.51l26.26,49.29h-23l-24.87-47h-2v47H949.22v179.9l28.34-78.55H999.2l-40,110.94h-10v324.73l39.25-39.26,5.3,5.31-44.55,44.55V1080h971V0Zm133.87,607.93h-39.4v19.78h39.4v20.7h-39.4v29.05h39.4v20.71h-60.57V587.23h60.57Zm19.23-212.28h-39.4v19.77h39.4v20.71h-39.4v29.05h39.4v20.7h-60.57V374.94h60.57Zm56,302.52-24.87-47h-2v47h-21.17V587.23h25.8c14.06,0,24,1.7,31.37,9,5.56,5.41,9,13.75,9,23.17,0,14.53-7.26,24.42-21.32,29.52l26.26,49.29Zm-4.09-209.51h0c-16.22,0-27.5-7.88-35.69-24.1l17.77-10.66c5.1,9.58,11,14.52,18.39,14.52,7.1,0,12.82-4.63,12.82-10.35,0-4-2.63-8.65-7.11-12.36-23-19.32-36.62-29.82-36.62-45.58s13.76-28,30.44-28c14.06,0,23.33,7.57,32.14,17.77l-15.76,13.91c-5.25-7.42-10.66-11.44-16.69-11.44-5.56,0-9.42,3.25-9.42,7.73,0,4.32,3.24,7.1,6.49,9.89,20.7,18.23,37.24,26.88,37.24,47.12C1188.23,475.68,1174.32,488.66,1154.23,488.66ZM1230.79,701c-16.22,0-27.5-7.88-35.69-24.11l17.77-10.66c5.1,9.58,11,14.53,18.38,14.53,7.11,0,12.83-4.64,12.83-10.36,0-4-2.63-8.65-7.11-12.36-23-19.31-36.62-29.82-36.62-45.58s13.75-28,30.44-28c14.06,0,23.33,7.57,32.14,17.76l-15.76,13.91c-5.25-7.42-10.66-11.43-16.69-11.43-5.56,0-9.42,3.24-9.42,7.72s3.24,7.11,6.49,9.89c20.7,18.23,37.23,26.89,37.23,47.13C1264.78,688,1250.88,701,1230.79,701Z"/><polygon class="cls-1" points="909.75 983.55 904.45 988.85 949.2 1033.61 949.2 1023 909.75 983.55"/></svg>
