<svg id="Layer_1" data-name="Layer 1" xmlns="http://www.w3.org/2000/svg" width="1920" height="1080" viewBox="0 0 1920 1080">
    <defs>
        <style>
            .cls-1 {
                fill: #fff;
            }

        </style>
    </defs>
    <path class="cls-1" d="M665.22,341h28.2l36,102,36.8-102h28l-51.8,143.6h-26.2Z" />
    <path class="cls-1" d="M957.62,413.21c0,42.2-33,74.8-74.2,74.8-42.6,0-75.2-33.6-75.2-75.4a74.65,74.65,0,0,1,74.8-75.2C922.62,337.41,957.62,369.41,957.62,413.21Zm-121.8,0c0,29.2,22,48.6,47.4,48.6,26,0,46.8-21.4,46.8-48.8,0-26.4-19.8-49.4-47.2-49.4C857,363.61,835.82,383.61,835.82,413.21Z" />
    <path class="cls-1" d="M675.22,581h27.4v97.2c0,15.6,7.6,23.6,20.8,23.6,7.8,0,14.8-3.2,18.2-8.6,3-4.6,3.4-11.2,3.4-18.8V581h27.4v91.4c0,15.8-.8,27.8-11.6,40.4-9.2,10.6-21.2,15.2-36.8,15.2-14.8,0-26.6-4.2-35.6-13.6-11.6-12-13.2-25-13.2-43.6Z" />
    <path class="cls-1" d="M812.22,581h26.2l61.6,94.4V581h27.4v143.6H901l-61.4-94.2v94.2h-27.4Z" />
    <path class="cls-1" d="M1051.82,382.41c0-9.4-6.6-14.6-19.6-14.6h-11.8v29.4H1033C1045.42,397.21,1051.82,392.21,1051.82,382.41Z" />
    <path class="cls-1" d="M1333.22,607.81h-11.8v29.4H1334c12.4,0,18.8-5,18.8-14.8C1352.82,613,1346.21,607.81,1333.22,607.81Z" />
    <path class="cls-1" d="M960,0V1080h960V0Zm155.42,341h78.4v26.8h-51v25.6h51v26.8h-51v37.6h51v26.8h-78.4Zm-121.8,383.6h-27.4V581h27.4Zm26.8-240H993V341h33.4c18.2,0,31,2.2,40.6,11.6,7.2,7,11.6,17.8,11.6,30,0,18.8-9.4,31.6-27.6,38.2l34,63.8h-29.8l-32.2-60.8h-2.6Zm78,240h-26.2l-51-143.6h28.2l36,102,36.8-102h28Zm160.4-116.8h-51v25.6h51v26.8h-51v37.6h51v26.8h-78.4V581h78.4Zm-44-150.8,23-13.8c6.6,12.4,14.2,18.8,23.8,18.8,9.2,0,16.59-6,16.59-13.4,0-5.2-3.4-11.2-9.2-16-29.79-25-47.39-38.6-47.39-59s17.8-36.2,39.4-36.2c18.19,0,30.19,9.8,41.59,23l-20.4,18c-6.79-9.6-13.79-14.8-21.59-14.8-7.2,0-12.2,4.2-12.2,10,0,5.6,4.2,9.2,8.4,12.8,26.8,23.6,48.19,34.8,48.19,61,0,24-18,40.8-44,40.8C1240,488.21,1225.42,478,1214.82,457Zm141.39,267.6L1324,663.81h-2.6v60.8H1294V581h33.4c18.2,0,31,2.2,40.59,11.6,7.2,7,11.61,17.8,11.61,30,0,18.8-9.41,31.6-27.6,38.2l34,63.8Zm93.8,3.6c-21,0-35.6-10.2-46.2-31.2l23-13.8c6.6,12.4,14.2,18.8,23.8,18.8,9.2,0,16.6-6,16.6-13.4,0-5.2-3.4-11.2-9.2-16-29.8-25-47.4-38.6-47.4-59s17.8-36.2,39.4-36.2c18.2,0,30.2,9.8,41.6,23l-20.4,18c-6.8-9.6-13.8-14.8-21.6-14.8-7.2,0-12.2,4.2-12.2,10,0,5.6,4.2,9.2,8.4,12.8,26.8,23.6,48.2,34.8,48.2,61C1494,711.41,1476,728.21,1450,728.21Z" />
</svg>
